<svg width="197" height="131" viewBox="0 0 197 131" fill="none" xmlns="http://www.w3.org/2000/svg">
<g clip-path="url(#clip0_88_6638)">
<path d="M99.7985 36.8189C98.0419 33.9096 95.9605 30.8033 92.7008 29.8533C88.9258 28.7532 85.048 30.9386 81.7587 33.0952C71.9218 39.5449 62.4487 46.5346 53.3828 54.0322L53.3927 54.1451C60.4509 53.6577 67.5091 53.1702 74.5672 52.6828C79.6668 52.3306 84.9415 51.9299 89.4481 49.514C91.1582 48.5973 92.8251 47.3727 94.7629 47.2874C97.1705 47.1814 99.2697 48.8652 100.919 50.6245C110.678 61.0309 113.502 76.9448 124.45 86.0876C117.547 69.0378 109.303 52.5633 99.7985 36.8189Z" fill="#F2F2F2"/>
<path d="M159.783 125.084C158.704 123.72 158.263 123.4 157.198 122.023C148.531 110.797 140.384 99.1918 132.759 87.2074C127.579 79.0681 122.656 70.7725 117.99 62.3206C115.768 58.3024 113.608 54.2528 111.508 50.1715C109.879 47.0071 108.286 43.8237 106.729 40.6214C106.284 39.7067 105.852 38.7878 105.421 37.8669C104.407 35.7012 103.412 33.5249 102.343 31.3887C101.125 28.9538 99.6432 26.4012 97.407 24.7654C96.3893 23.9903 95.1724 23.5214 93.8985 23.4134C92.0781 23.2956 90.3984 24.0484 88.8195 24.8705C77.2673 30.903 66.4521 38.4662 56.6699 47.0723C46.8627 55.6977 38.0966 65.4423 30.5504 76.1076C30.3195 76.4377 29.7736 76.1223 30.0066 75.7901C30.9242 74.4907 31.8599 73.2052 32.8139 71.9339C44.6753 56.1359 59.2192 42.5505 75.7807 31.7987C78.567 29.9904 81.4058 28.2669 84.2968 26.6283C85.754 25.8019 87.2175 24.9861 88.7061 24.2208C90.1654 23.4701 91.7149 22.7952 93.382 22.7699C99.0552 22.6816 101.993 29.1157 104.01 33.445C104.644 34.8076 105.286 36.1659 105.936 37.52C108.39 42.6609 110.939 47.7549 113.583 52.8019C115.214 55.9181 116.881 59.0159 118.584 62.0956C123.883 71.6857 129.516 81.0817 135.482 90.2836C143.385 102.473 151.225 113.24 160.228 124.639C160.476 124.954 160.033 125.404 159.783 125.084Z" fill="#E4E4E4"/>
<path d="M56.1094 43.8949C55.7797 43.5269 55.4522 43.1589 55.1204 42.791C52.5043 39.8935 49.6972 37.0297 46.1046 35.3686C44.3917 34.5516 42.5217 34.1175 40.6245 34.0965C38.6635 34.1029 36.7466 34.618 34.9346 35.3392C34.078 35.682 33.2402 36.0709 32.4151 36.4851C31.4723 36.9603 30.5463 37.4671 29.6246 37.978C27.8945 38.9368 26.1868 39.9377 24.5016 40.9806C21.1484 43.0559 17.9002 45.2896 14.7571 47.6817C13.1277 48.9223 11.532 50.2035 9.96989 51.5253C8.51696 52.7533 7.09342 54.0142 5.69927 55.308C5.40113 55.5834 4.95599 55.1377 5.25412 54.8622C5.62155 54.5195 5.9932 54.1789 6.36484 53.8424C7.41465 52.892 8.48128 51.9599 9.56473 51.0459C11.5404 49.3764 13.5673 47.7714 15.6453 46.2309C18.8766 43.8339 22.2192 41.5995 25.6731 39.5277C27.399 38.4932 29.1487 37.5021 30.9221 36.5545C31.4576 36.2686 31.9993 35.9889 32.5473 35.724C33.7907 35.0959 35.0827 34.5692 36.4106 34.1491C38.2917 33.5397 40.282 33.3439 42.2455 33.5751C44.1414 33.8513 45.968 34.4841 47.629 35.4401C51.1563 37.4145 53.8921 40.4675 56.5545 43.447C56.8233 43.7498 56.3802 44.1976 56.1094 43.8949Z" fill="#E4E4E4"/>
<path d="M128.384 73.9201L136.836 70.8242L141.033 69.287C142.399 68.7864 143.763 68.2165 145.176 67.858C146.404 67.5068 147.707 67.5234 148.926 67.9059C150.013 68.3087 151.007 68.9261 151.851 69.7216C152.713 70.5164 153.515 71.374 154.25 72.2874C155.164 73.387 156.064 74.4982 156.968 75.6056C160.7 80.1762 164.408 84.7666 168.091 89.3768C171.774 93.987 175.432 98.6168 179.066 103.266C182.709 107.927 186.327 112.607 189.919 117.307C190.359 117.882 190.799 118.458 191.238 119.035C191.481 119.353 192.028 119.039 191.782 118.716C188.163 113.969 184.519 109.242 180.849 104.534C177.171 99.8145 173.467 95.1152 169.737 90.4359C166.008 85.7567 162.253 81.0977 158.474 76.4591C157.532 75.3035 156.589 74.1491 155.644 72.996C154.847 72.0234 154.059 71.0402 153.185 70.1349C151.581 68.4731 149.576 67.0046 147.177 66.9647C145.766 66.9413 144.4 67.3896 143.09 67.8645C141.677 68.3764 140.267 68.8979 138.856 69.4149L130.344 72.5325L128.216 73.3119C127.839 73.4502 128.002 74.06 128.384 73.9201Z" fill="#E4E4E4"/>
<path d="M44.9923 39.0144C40.6969 36.8037 35.1961 37.2367 31.249 39.9987C38.7779 41.2994 46.2243 43.0399 53.5503 45.2111C50.5081 43.4258 48.1284 40.6285 44.9923 39.0144Z" fill="#F2F2F2"/>
<path d="M31.2068 39.9912L30.3799 40.6643C30.6596 40.4287 30.9504 40.2078 31.2491 39.9988C31.235 39.9964 31.2209 39.9936 31.2068 39.9912Z" fill="#F2F2F2"/>
<path d="M151.533 73.9511C150.701 72.9368 149.801 71.8749 148.557 71.4629L147.395 71.5088C156.24 87.1602 168.185 100.836 182.498 111.698C172.176 99.1156 161.855 86.5333 151.533 73.9511Z" fill="#F2F2F2"/>
<path d="M79.2803 65.584C79.818 67.5403 81.0294 69.2431 82.7001 70.3911C83.346 70.8315 84.1102 71.254 84.3312 72.0046C84.4474 72.4831 84.3758 72.988 84.1311 73.4152C83.8868 73.8368 83.5896 74.2254 83.2467 74.5715L83.2154 74.6889C81.6125 73.7377 80.0876 72.5344 79.2022 70.8927C78.3168 69.251 78.1932 67.0993 79.2803 65.584Z" fill="#F2F2F2"/>
<path d="M132.645 112.145C133.183 114.101 134.394 115.804 136.065 116.952C136.711 117.392 137.475 117.815 137.696 118.565C137.812 119.044 137.741 119.549 137.496 119.976C137.252 120.397 136.955 120.786 136.612 121.132L136.58 121.249C134.978 120.298 133.453 119.095 132.567 117.453C131.682 115.811 131.558 113.66 132.645 112.145Z" fill="#F2F2F2"/>
<path d="M26.1441 108.934C26.6818 110.89 27.8932 112.593 29.5639 113.741C30.2098 114.181 30.974 114.604 31.1949 115.354C31.3112 115.833 31.2396 116.338 30.9949 116.765C30.7506 117.186 30.4534 117.575 30.1105 117.921L30.0792 118.039C28.4763 117.087 26.9514 115.884 26.066 114.242C25.1806 112.601 25.057 110.449 26.1441 108.934Z" fill="#F2F2F2"/>
<path d="M148.701 23.395C155.152 23.395 160.381 18.1578 160.381 11.6975C160.381 5.23715 155.152 0 148.701 0C142.249 0 137.02 5.23715 137.02 11.6975C137.02 18.1578 142.249 23.395 148.701 23.395Z" fill="#3C3C5E"/>
<path d="M169.78 2.72282C164.119 1.95653 157.656 5.02073 156.189 10.5495C155.819 9.56647 155.147 8.72662 154.269 8.15127C153.391 7.57592 152.354 7.29486 151.306 7.3487C150.259 7.40253 149.255 7.78847 148.441 8.45076C147.627 9.11304 147.044 10.0174 146.777 11.0331L147.425 11.498C159.556 14.1252 172.114 14.0683 184.221 11.3314C180.284 7.18705 175.441 3.48909 169.78 2.72282Z" fill="#F0F0F0"/>
<path d="M145.502 18.3195C139.841 17.5532 133.378 20.6174 131.911 26.1462C131.541 25.1632 130.869 24.3233 129.991 23.748C129.114 23.1726 128.076 22.8915 127.029 22.9454C125.981 22.9992 124.978 23.3851 124.163 24.0474C123.349 24.7097 122.766 25.6141 122.499 26.6298L123.147 27.0947C135.279 29.7218 147.836 29.665 159.944 26.9281C156.006 22.7837 151.163 19.0858 145.502 18.3195Z" fill="#F0F0F0"/>
<path d="M194.911 21.2684C194.888 21.2684 194.864 21.2648 194.842 21.2576C134.284 2.07875 80.91 4.58673 46.7985 10.0679C42.1563 10.8136 37.5017 11.6748 32.964 12.6279C31.8055 12.8709 30.6036 13.1314 29.3918 13.4026C27.9446 13.7254 26.5166 14.0578 25.1473 14.3902C24.5559 14.5304 23.9761 14.6717 23.4078 14.8142C22.547 15.027 21.6736 15.2487 20.7373 15.4924C19.6911 15.7626 18.6282 16.0459 17.5773 16.3346C17.5734 16.336 17.5695 16.3371 17.5655 16.338L17.5656 16.3382C16.3786 16.6628 15.1979 16.9967 14.0561 17.3302C13.4381 17.509 12.8413 17.6853 12.2698 17.8593C12.2059 17.877 12.1493 17.894 12.092 17.9115L11.9692 17.9489C11.898 17.9706 11.8278 17.9919 11.7576 18.0121L11.7531 18.0134L11.7532 18.0136L11.5673 18.0714C11.3457 18.1386 11.1294 18.2043 10.9167 18.2697C5.29505 20.0051 2.20465 21.2397 2.17412 21.2518C2.1462 21.263 2.11635 21.2686 2.08627 21.2683C2.0562 21.2679 2.02649 21.2617 1.99883 21.2498C1.97118 21.238 1.94612 21.2208 1.9251 21.1992C1.90408 21.1777 1.88749 21.1522 1.8763 21.1243C1.86511 21.0963 1.85953 21.0664 1.85988 21.0363C1.86022 21.0062 1.86649 20.9764 1.87832 20.9487C1.89014 20.921 1.9073 20.8959 1.92881 20.8749C1.95032 20.8538 1.97576 20.8372 2.00368 20.826C2.03444 20.8139 5.13994 19.573 10.782 17.8311C10.9955 17.7655 11.2124 17.6998 11.4347 17.6324L11.6074 17.5787C11.6133 17.5764 11.6192 17.5746 11.6253 17.5728C11.6952 17.5529 11.7649 17.5316 11.8358 17.5101L11.9589 17.4727C12.0202 17.4541 12.0805 17.4358 12.1424 17.4187C12.7101 17.2458 13.3088 17.0691 13.9284 16.8897C15.0706 16.5559 16.2525 16.222 17.4404 15.897C17.4441 15.8956 17.4479 15.8947 17.4516 15.8936C18.5062 15.604 19.573 15.3193 20.6226 15.0483C21.5603 14.8044 22.4354 14.5822 23.2977 14.3689C23.8683 14.2267 24.4493 14.0851 25.0405 13.944C26.4113 13.6112 27.8422 13.2783 29.292 12.9549C30.5058 12.6834 31.7097 12.4223 32.87 12.179C37.4148 11.2244 42.0767 10.3618 46.726 9.61503C80.8863 4.126 134.336 1.61397 194.98 20.8204C195.032 20.8369 195.077 20.8715 195.106 20.918C195.134 20.9645 195.146 21.0198 195.137 21.074C195.129 21.1281 195.102 21.1775 195.06 21.2131C195.019 21.2488 194.966 21.2684 194.911 21.2684Z" fill="#CCCCCC"/>
<path d="M60.2335 96.2958C60.1542 96.0635 60.0207 95.8536 59.8441 95.6834C59.7789 95.6228 59.7084 95.5683 59.6334 95.5205C59.0356 95.1214 58.1424 95.032 57.5744 95.5205C57.5172 95.5702 57.4643 95.6247 57.4164 95.6834C57.2469 95.8921 57.0728 96.0962 56.8942 96.2958C56.601 96.6306 56.301 96.954 55.9872 97.2683C55.8979 97.3554 55.8085 97.4449 55.7169 97.532C55.6643 97.5848 55.6116 97.6352 55.5589 97.6857C55.3573 97.8784 55.1512 98.0642 54.9428 98.2476C54.8329 98.3463 54.7229 98.4426 54.6107 98.5366C54.4435 98.6766 54.2763 98.8165 54.1068 98.9518C54.0908 98.9633 54.0748 98.9747 54.0587 98.9885C54.0541 98.9908 54.0518 98.9954 54.0473 98.9977C54.045 98.9977 54.0427 98.9977 54.0404 99.0022C54.0342 99.0047 54.0287 99.0086 54.0244 99.0137C53.974 99.0481 53.9396 99.0711 53.9144 99.0917C53.9236 99.0871 53.9328 99.0802 53.9419 99.0756C53.9007 99.1077 53.8572 99.1399 53.8159 99.172C53.4151 99.4679 53.0052 99.7523 52.586 100.018C51.549 100.683 50.4598 101.262 49.3291 101.75C49.2536 101.78 49.1757 101.812 49.0978 101.842C46.1375 103.056 42.9261 103.53 39.7418 103.223C39.4165 103.197 39.0913 103.163 38.7661 103.119C38.3904 103.064 38.0171 102.998 37.6461 102.922C36.2335 102.64 34.8514 102.222 33.5189 101.674C31.852 100.91 30.2666 99.9785 28.787 98.8944C28.558 98.7316 28.3267 98.5688 28.0953 98.4105C28.3587 97.7637 28.6175 97.1169 28.8695 96.4655C28.9954 96.1513 29.1168 95.837 29.2359 95.5205C30.1727 93.0824 31.0522 90.6213 31.895 88.1511C32.747 85.6487 33.5509 83.1319 34.3068 80.6005C34.3846 80.3436 34.4602 80.0867 34.5335 79.8298C34.9297 78.4926 35.3099 77.1524 35.6741 75.8091C35.7085 75.6784 35.7451 75.5499 35.7772 75.4192C35.8825 75.0339 35.9856 74.6485 36.0864 74.2632C36.3154 73.3939 35.7978 72.3549 34.8862 72.1462C34.4473 72.0335 33.9819 72.0958 33.588 72.32C33.1941 72.5442 32.9024 72.9128 32.7745 73.348C32.676 73.7196 32.5775 74.0889 32.4768 74.4604C31.9935 76.2563 31.4851 78.0461 30.9514 79.8298C30.8735 80.0867 30.7957 80.3436 30.7178 80.6005C29.5405 84.4859 28.248 88.3323 26.8402 92.1397C26.6707 92.6007 26.499 93.0602 26.3249 93.5182C26.2402 93.743 26.1554 93.9677 26.0684 94.1925C25.9012 94.6352 25.7294 95.0778 25.5576 95.5205C25.4591 95.7797 25.3584 96.0389 25.2576 96.2958C25.1912 96.4586 25.127 96.6215 25.0629 96.782C24.4099 96.5472 23.7333 96.3842 23.0451 96.2958L22.9352 96.282C22.4016 96.2177 21.862 96.2223 21.3296 96.2958C20.5329 96.3889 19.7662 96.6561 19.0839 97.0786C18.4016 97.5011 17.8203 98.0685 17.3811 98.7408C16.2886 100.463 16.3023 102.927 17.8346 104.39C19.4126 105.897 21.8015 105.885 23.6589 104.943C24.6433 104.409 25.4733 103.63 26.0684 102.681C26.2964 102.337 26.5059 101.981 26.6959 101.615C26.744 101.647 26.7921 101.679 26.8402 101.713C27.0235 101.842 27.2067 101.972 27.3876 102.101C28.4419 102.866 29.5529 103.549 30.7109 104.145C33.201 105.384 35.8814 106.196 38.6401 106.546C38.7019 106.553 38.7615 106.562 38.8233 106.569C39.1279 106.608 39.4348 106.638 39.7418 106.663C44.1443 106.995 48.5522 106.093 52.4715 104.057C52.8036 103.885 53.1327 103.705 53.4586 103.516C53.9648 103.223 54.4595 102.911 54.9428 102.58C55.2062 102.401 55.4627 102.22 55.7169 102.03C56.8279 101.21 57.8634 100.293 58.8112 99.2889C59.1708 98.9105 59.5151 98.5198 59.8441 98.1169C60.1553 97.7873 60.3346 97.3547 60.348 96.9013C60.3462 96.6942 60.3074 96.4891 60.2335 96.2958ZM22.3076 101.759C22.3557 101.725 22.4038 101.688 22.4496 101.651C22.4359 101.686 22.3695 101.725 22.3076 101.759ZM23.0428 101.018C22.9902 101.078 22.9421 101.138 22.8894 101.197C22.7291 101.377 22.5569 101.545 22.374 101.702C22.3489 101.725 22.3214 101.748 22.2939 101.768C22.2936 101.768 22.2933 101.768 22.293 101.769C22.2927 101.769 22.2925 101.769 22.2923 101.769C22.292 101.769 22.2919 101.769 22.2918 101.77C22.2916 101.77 22.2916 101.77 22.2916 101.771C22.2585 101.785 22.2264 101.802 22.1954 101.821C22.0969 101.881 21.9961 101.936 21.8931 101.986C21.6913 102.061 21.4837 102.118 21.2724 102.158C21.11 102.17 20.9471 102.172 20.7846 102.163H20.78C20.6678 102.138 20.5569 102.107 20.4479 102.071C20.3929 102.044 20.3402 102.011 20.2875 101.979C20.2669 101.961 20.2486 101.943 20.2372 101.931C20.2148 101.911 20.1941 101.889 20.1753 101.865C20.1753 101.864 20.1753 101.864 20.1752 101.864C20.1751 101.864 20.1749 101.863 20.1747 101.863C20.1745 101.863 20.1742 101.863 20.1739 101.863C20.1736 101.862 20.1733 101.862 20.173 101.862C20.1478 101.817 20.1203 101.771 20.0952 101.725C20.0939 101.724 20.093 101.722 20.0929 101.72C20.0746 101.663 20.0585 101.603 20.0448 101.544C20.0398 101.439 20.0406 101.334 20.0471 101.229C20.0778 101.083 20.1191 100.939 20.1707 100.798C20.2171 100.698 20.2699 100.602 20.3288 100.509C20.3334 100.5 20.3563 100.463 20.3815 100.422C20.3838 100.42 20.3837 100.42 20.3837 100.417C20.4181 100.378 20.4525 100.337 20.4891 100.3C20.5509 100.232 20.6174 100.172 20.6838 100.11C20.813 100.025 20.9468 99.9481 21.0846 99.8784C21.3032 99.8006 21.5276 99.74 21.7557 99.6972C22.092 99.6705 22.43 99.6735 22.7657 99.7064C23.0837 99.7616 23.3975 99.8391 23.7048 99.938C23.5185 100.3 23.3065 100.648 23.0703 100.979C23.0612 100.993 23.052 101.007 23.0428 101.018ZM20.496 100.264C20.4758 100.296 20.452 100.326 20.425 100.353C20.4431 100.319 20.4672 100.289 20.496 100.264Z" fill="#3F3D56"/>
<path d="M53.3489 72.8706C53.3283 73.5908 53.3076 74.311 53.287 75.0312C53.2435 76.6299 53.1985 78.2293 53.1519 79.8295C53.1038 81.63 53.0534 83.4297 53.0007 85.2287C52.9755 86.1576 52.9496 87.0865 52.9229 88.0154C52.8519 90.5178 52.7816 93.0194 52.7122 95.5202C52.7053 95.7793 52.6961 96.0362 52.6892 96.2954C52.6549 97.5363 52.6205 98.7771 52.5862 100.018C52.5472 101.364 52.5091 102.711 52.4717 104.057C52.4442 105.066 52.4159 106.076 52.3869 107.087C52.1808 114.41 51.9747 121.734 51.7685 129.058C51.7598 129.511 51.576 129.944 51.2558 130.264C50.9355 130.585 50.5036 130.769 50.0508 130.778C49.5963 130.774 49.1615 130.592 48.8402 130.27C48.5188 129.948 48.3367 129.513 48.333 129.058C48.4475 124.938 48.5636 120.819 48.6811 116.7C48.7842 112.975 48.8888 109.25 48.9949 105.525C49.0293 104.298 49.0636 103.07 49.098 101.841C49.1507 99.9927 49.2026 98.1441 49.2537 96.2954C49.2606 96.0362 49.2698 95.7793 49.2766 95.5202C49.2812 95.2931 49.2881 95.0683 49.2949 94.8413C49.3957 91.2517 49.4965 87.6614 49.5973 84.0704C49.6385 82.6575 49.6782 81.2439 49.7164 79.8295C49.7622 78.2171 49.808 76.6054 49.8538 74.9945C49.8744 74.2858 49.8927 73.5793 49.9133 72.8706C49.9221 72.4171 50.1058 71.9846 50.4261 71.6639C50.7464 71.3431 51.1783 71.1591 51.6311 71.1504C52.0856 71.1541 52.5203 71.3365 52.8417 71.6583C53.163 71.9801 53.3452 72.4155 53.3489 72.8706Z" fill="#3F3D56"/>
<path d="M147.58 73.348C145.779 80.1784 143.626 86.9108 141.13 93.5185C140.442 95.3411 139.737 97.1601 138.984 98.9571L139.157 98.5462C138.821 99.4021 138.392 100.218 137.877 100.98C137.842 101.029 137.806 101.078 137.77 101.126C137.948 100.898 137.982 100.853 137.871 100.991C137.813 101.06 137.756 101.129 137.695 101.196C137.535 101.376 137.363 101.545 137.18 101.702C137.134 101.741 137.088 101.78 137.04 101.817L137.255 101.65C137.23 101.709 137.055 101.787 137.001 101.821C136.824 101.927 136.64 102.021 136.45 102.1L136.86 101.927C136.548 102.052 136.223 102.142 135.891 102.193L136.348 102.131C136.021 102.177 135.691 102.18 135.363 102.142L135.82 102.203C135.552 102.166 135.29 102.096 135.04 101.993L135.451 102.166C135.317 102.108 135.189 102.04 135.066 101.961C135.004 101.92 134.813 101.775 135.063 101.967C135.322 102.165 135.096 101.984 135.043 101.931C134.998 101.887 134.958 101.839 134.914 101.794C134.712 101.587 135.143 102.151 135.005 101.909C134.932 101.787 134.865 101.662 134.804 101.533L134.977 101.944C134.898 101.749 134.843 101.545 134.811 101.336L134.872 101.793C134.839 101.534 134.839 101.272 134.871 101.012L134.81 101.47C134.852 101.18 134.928 100.897 135.038 100.626L134.865 101.037C134.941 100.854 135.031 100.678 135.134 100.509C135.182 100.422 135.238 100.34 135.301 100.264C135.312 100.267 135.011 100.611 135.171 100.437C135.213 100.392 135.252 100.344 135.294 100.299C135.362 100.227 135.435 100.161 135.506 100.093C135.745 99.8652 135.171 100.315 135.447 100.134C135.648 100.003 135.858 99.8876 136.077 99.7905L135.667 99.9639C136.034 99.8131 136.418 99.7098 136.811 99.6566L136.354 99.718C136.846 99.6613 137.343 99.6672 137.834 99.7356L137.377 99.6741C137.998 99.7684 138.606 99.9395 139.185 100.183L138.774 100.01C140.009 100.541 141.102 101.329 142.193 102.101C143.248 102.866 144.358 103.549 145.516 104.144C148.006 105.384 150.687 106.196 153.446 106.546C157.402 107.032 161.417 106.514 165.122 105.041C168.827 103.569 172.104 101.188 174.651 98.1168C174.962 97.7867 175.141 97.3539 175.154 96.9004C175.151 96.4448 174.97 96.0085 174.651 95.684C174.021 95.1047 172.83 94.9411 172.222 95.684C171.645 96.3892 171.025 97.0577 170.365 97.6857C170.057 97.9783 169.741 98.262 169.416 98.5366C169.231 98.6934 169.043 98.8472 168.853 98.9979C168.762 99.0691 168.482 99.2589 168.913 98.9526C168.814 99.0228 168.719 99.0994 168.622 99.1716C167.179 100.236 165.616 101.127 163.965 101.824L164.375 101.651C162.604 102.395 160.743 102.906 158.839 103.17L159.296 103.108C157.338 103.366 155.355 103.363 153.398 103.099L153.854 103.161C151.897 102.892 149.984 102.37 148.161 101.608L148.571 101.781C146.812 101.002 145.143 100.034 143.593 98.8935C142.786 98.2953 141.935 97.759 141.048 97.2893C140.014 96.7604 138.894 96.4196 137.741 96.2828C135.579 96.028 133.376 96.8712 132.188 98.7416C131.094 100.463 131.108 102.926 132.64 104.39C134.217 105.897 136.606 105.884 138.465 104.941C140.256 104.033 141.331 102.147 142.088 100.368C143.79 96.364 145.296 92.2679 146.7 88.151C148.089 84.078 149.349 79.9637 150.479 75.8083C150.619 75.2936 150.757 74.7784 150.893 74.2627C151.122 73.3937 150.604 72.3544 149.693 72.1466C149.254 72.0334 148.788 72.0954 148.394 72.3196C148 72.5438 147.708 72.9125 147.58 73.348Z" fill="#3F3D56"/>
<path d="M164.719 72.8706L164.101 94.842L163.486 116.699L163.138 129.058C163.142 129.513 163.324 129.948 163.646 130.27C163.967 130.592 164.402 130.774 164.856 130.778C165.309 130.769 165.741 130.585 166.061 130.264C166.381 129.944 166.565 129.511 166.574 129.058L167.192 107.086L167.807 85.2295L168.155 72.8706C168.151 72.4156 167.969 71.9803 167.647 71.6585C167.326 71.3367 166.891 71.1543 166.437 71.1504C165.984 71.1592 165.552 71.3432 165.232 71.6639C164.912 71.9847 164.728 72.4171 164.719 72.8706Z" fill="#3F3D56"/>
<path opacity="0.2" d="M105.262 122.924H105.796V98.6016H118.239V98.0688H105.796V87.8061H115.405C115.264 87.6267 115.119 87.4496 114.97 87.2747H105.796V80.4964C105.619 80.421 105.442 80.3484 105.262 80.28V87.2747H94.8065V78.5898C94.6274 78.5981 94.4509 78.6104 94.2731 78.6255V87.2747H85.9317V80.795C85.7525 80.8744 85.5761 80.9579 85.401 81.0456V87.2747H78.3889V87.8061H85.401V98.0688H78.3889V98.6016H85.401V122.924H85.9317V98.6016C87.0271 98.6014 88.1119 98.8173 89.1241 99.237C90.1362 99.6567 91.0558 100.272 91.8305 101.048C92.6051 101.823 93.2195 102.744 93.6386 103.758C94.0577 104.772 94.2733 105.858 94.2731 106.955V122.924H94.8065V98.6016H105.262V122.924ZM85.9317 98.0688V87.8061H94.2731V98.0688H85.9317ZM94.8065 98.0688V87.8061H95.0158C96.3615 87.8062 97.694 88.0717 98.9372 88.5875C100.18 89.1033 101.31 89.8593 102.262 90.8123C103.213 91.7653 103.968 92.8966 104.483 94.1417C104.998 95.3867 105.263 96.7212 105.262 98.0688H94.8065Z" fill="black"/>
<path d="M102.005 115.631C101.333 118.631 99.725 121.338 97.4129 123.36C97.2434 123.507 97.0739 123.649 96.8975 123.789C96.4693 123.828 96.044 123.868 95.6218 123.909C95.2714 123.941 94.9255 123.975 94.582 124.007L94.5202 124.014L94.4766 123.638L94.3026 122.115C93.6273 121.011 93.2088 119.769 93.0779 118.481C92.9471 117.193 93.1073 115.892 93.5468 114.675C94.1514 113.041 95.2462 111.599 96.3227 110.168C97.8091 108.19 99.2543 106.236 99.307 103.826C100.038 104.763 100.646 105.791 101.116 106.883C100.673 107.092 100.275 107.386 99.9437 107.748C99.8498 107.851 99.7559 107.995 99.82 108.119C99.875 108.225 100.012 108.25 100.132 108.264C100.418 108.294 100.706 108.323 100.993 108.353C101.222 108.379 101.451 108.401 101.68 108.427C101.957 109.337 102.145 110.273 102.241 111.22C102.395 112.694 102.316 114.182 102.005 115.631Z" fill="#3F3D56"/>
<path d="M109.609 109.619C108.258 110.603 107.468 112.018 106.854 113.578C106.225 113.78 105.659 114.142 105.212 114.628C105.118 114.732 105.024 114.876 105.088 115C105.143 115.106 105.28 115.131 105.399 115.144C105.686 115.174 105.974 115.204 106.261 115.234C105.647 117.078 105.083 118.986 103.998 120.544C103.276 121.572 102.335 122.427 101.242 123.046C100.945 123.216 100.637 123.368 100.322 123.502C99.1582 123.592 98.0168 123.687 96.8976 123.789C96.4693 123.828 96.044 123.868 95.6219 123.908C95.2714 123.941 94.9256 123.975 94.582 124.007C94.5797 123.881 94.5797 123.755 94.582 123.629C94.6545 120.268 95.8889 117.037 98.0748 114.486C98.1779 114.367 98.2832 114.25 98.3909 114.133C99.4983 112.948 100.801 111.963 102.241 111.22C104.511 110.038 107.054 109.486 109.609 109.619Z" fill="#3C3C5E"/>
<path d="M96.0179 122.732L95.7545 123.512L95.6217 123.909C95.2713 123.941 94.9254 123.975 94.5819 124.007L94.52 124.014C94.1398 124.053 93.7619 124.092 93.384 124.131C93.2855 124.016 93.187 123.899 93.0908 123.78C90.7002 120.881 89.5527 117.152 89.899 113.408C90.2453 109.665 92.0574 106.21 94.9391 103.8C94.6368 105.385 94.9895 106.904 95.569 108.41C95.5072 108.436 95.4476 108.461 95.3904 108.488C94.947 108.697 94.5486 108.991 94.2177 109.353C94.1238 109.456 94.0299 109.601 94.094 109.725C94.149 109.83 94.2864 109.855 94.4055 109.869C94.6918 109.899 94.9804 109.929 95.2667 109.959C95.4957 109.984 95.7247 110.007 95.9538 110.032C96.0614 110.044 96.1691 110.055 96.2767 110.066C96.2927 110.101 96.3065 110.133 96.3225 110.167C96.9753 111.585 97.6784 113.009 98.0746 114.486C98.174 114.857 98.252 115.233 98.3083 115.612C98.4846 116.895 98.3703 118.201 97.9738 119.434C97.5773 120.666 96.9088 121.793 96.0179 122.732Z" fill="#3C3C5E"/>
<path d="M119.072 89.4653C117.1 85.6138 114.046 82.3732 110.453 79.9918C106.849 77.6137 102.713 76.1655 98.4144 75.7762C97.8509 75.7249 97.286 75.6948 96.7197 75.6861C96.0506 75.676 85.9858 78.5833 82.6141 80.9573C79.2443 83.3024 76.4723 86.4079 74.5216 90.0233C72.5744 93.6585 71.6166 97.7429 71.7445 101.866C71.9114 106.014 73.0659 110.062 75.1119 113.673C77.1299 117.272 79.9953 120.322 83.4589 122.56C86.9718 124.804 90.5006 130.756 94.6483 130.966C98.8272 131.178 103.593 125.563 107.404 123.859C111.216 122.14 114.511 119.451 116.961 116.059C119.342 112.736 120.882 108.883 121.45 104.833C122.039 100.685 121.765 96.4074 120.35 92.4432C119.987 91.4246 119.56 90.43 119.072 89.4653C118.664 88.6614 117.47 88.3653 116.722 88.8482C116.337 89.0858 116.058 89.463 115.943 89.9013C115.828 90.3396 115.886 90.8054 116.106 91.2018C116.345 91.6739 116.568 92.1539 116.773 92.6416L116.6 92.2307C117.379 94.1058 117.908 96.0751 118.175 98.0882L118.114 97.6309C118.397 99.8149 118.392 102.027 118.099 104.21L118.16 103.752C117.863 105.935 117.281 108.069 116.43 110.1L116.603 109.689C116.165 110.725 115.654 111.729 115.075 112.693C114.781 113.18 114.47 113.656 114.14 114.12C113.996 114.324 113.846 114.524 113.696 114.724C113.5 114.984 113.963 114.383 113.761 114.639C113.726 114.682 113.692 114.726 113.657 114.769C113.553 114.9 113.448 115.029 113.341 115.156C112.627 116.01 111.847 116.806 111.01 117.538C110.801 117.72 110.589 117.899 110.374 118.073C110.267 118.16 110.16 118.25 110.048 118.331C110.053 118.328 110.41 118.056 110.199 118.214C110.132 118.263 110.066 118.314 109.999 118.363C109.555 118.693 109.099 119.006 108.631 119.302C107.554 119.981 106.424 120.573 105.252 121.071L105.662 120.897C103.64 121.75 101.515 122.332 99.3413 122.629L99.7979 122.568C97.6254 122.862 95.4236 122.866 93.25 122.579L93.7067 122.641C91.7312 122.375 89.799 121.852 87.959 121.085L88.3693 121.258C87.3036 120.808 86.276 120.271 85.2966 119.655C84.8119 119.349 84.3398 119.024 83.8803 118.681C83.8148 118.632 83.7498 118.582 83.6845 118.533C83.4748 118.374 83.8351 118.649 83.838 118.651C83.7161 118.564 83.5988 118.47 83.4864 118.37C83.2645 118.189 83.046 118.004 82.8311 117.815C81.9709 117.056 81.1676 116.235 80.4278 115.359C80.2426 115.139 80.0613 114.917 79.884 114.691C79.8073 114.593 79.6673 114.395 79.9766 114.812C79.9359 114.757 79.8937 114.704 79.8526 114.649C79.7539 114.518 79.6565 114.386 79.5604 114.253C79.224 113.787 78.9043 113.309 78.6012 112.82C77.9164 111.713 77.3186 110.555 76.8135 109.355L76.9867 109.766C76.1601 107.796 75.5949 105.727 75.3055 103.61L75.3668 104.068C75.1057 102.117 75.102 100.14 75.3558 98.1877L75.2944 98.645C75.5546 96.7547 76.0624 94.907 76.8048 93.1497L76.6316 93.5606C77.0987 92.4605 77.6496 91.3979 78.2796 90.3825C78.5949 89.8743 78.9292 89.3786 79.2822 88.8952C79.3624 88.7853 79.4435 88.6761 79.5255 88.5677C79.5997 88.4695 79.8038 88.2251 79.4556 88.6567C79.4897 88.6144 79.5226 88.5709 79.5563 88.5282C79.75 88.2824 79.9484 88.0404 80.1516 87.8023C80.9207 86.9007 81.7537 86.0559 82.6443 85.2745C82.8694 85.077 83.098 84.8837 83.3302 84.6945C83.4357 84.6085 83.5419 84.5234 83.6488 84.4392C83.6915 84.4056 83.7348 84.3725 83.7774 84.3386C83.3199 84.7032 83.6503 84.4378 83.7541 84.3599C84.2326 84.0008 84.7239 83.6597 85.228 83.3367C86.3486 82.619 87.5275 81.9969 88.7521 81.477L88.3417 81.6504C90.1191 80.9031 97.9935 79.1391 99.4256 79.3316L98.969 79.2702C101.074 79.5645 103.131 80.1337 105.089 80.9634L104.678 80.79C105.67 81.2118 106.634 81.6967 107.564 82.2417C108.029 82.5145 108.485 82.8021 108.931 83.1047C109.142 83.2479 109.351 83.3943 109.558 83.5439C109.662 83.6187 109.764 83.6943 109.867 83.7707C109.923 83.8131 109.98 83.8561 110.036 83.8987C110.274 84.0774 109.708 83.6399 109.958 83.8375C110.793 84.4946 111.586 85.2034 112.333 85.9599C112.699 86.3337 113.053 86.7195 113.395 87.1171C113.57 87.3211 113.741 87.5281 113.909 87.7381C113.993 87.8424 114.277 88.22 113.928 87.7575C114.014 87.8705 114.1 87.9828 114.184 88.0967C114.907 89.0777 115.55 90.1162 116.106 91.2018C116.516 92.004 117.706 92.3032 118.456 91.8189C118.841 91.5814 119.12 91.2042 119.235 90.7659C119.35 90.3275 119.292 89.8617 119.072 89.4653Z" fill="#3F3D56"/>
<path d="M99.0567 117.538C98.8794 117.546 98.7039 117.499 98.5539 117.404C98.4039 117.309 98.2868 117.17 98.2183 117.006C98.1498 116.842 98.1333 116.661 98.1711 116.488C98.2088 116.314 98.299 116.156 98.4293 116.035C98.4511 115.948 98.4668 115.886 98.4886 115.799C98.4808 115.78 98.473 115.761 98.4651 115.742C97.6681 113.839 92.5823 119.145 92.3624 120.933C92.2656 121.724 92.3064 122.525 92.4832 123.302C90.8358 119.703 89.9804 115.792 89.9749 111.833C89.9745 110.84 90.0296 109.847 90.1399 108.86C90.2311 108.051 90.3576 107.247 90.5194 106.449C91.4024 102.12 93.2981 98.0631 96.0509 94.6104C97.6253 94.6984 99.005 94.4582 99.1383 91.4027C99.1619 90.8592 99.5645 90.3886 99.6532 89.8531C99.5029 89.8729 99.3502 89.8852 99.1999 89.8951C99.153 89.8975 99.1038 89.9 99.0569 89.9025L99.0393 89.9033C98.8741 89.9107 98.7103 89.8701 98.5676 89.7865C98.4249 89.7028 98.3094 89.5797 98.2349 89.4318C98.1605 89.284 98.1304 89.1177 98.1481 88.9531C98.1658 88.7884 98.2307 88.6325 98.3349 88.5039C98.3997 88.4239 98.4647 88.344 98.5297 88.2641C98.6282 88.1407 98.7293 88.0198 98.8278 87.8964C98.8392 87.8847 98.8499 87.8723 98.8598 87.8594C98.9732 87.7187 99.0865 87.5806 99.1999 87.4399C98.993 87.1183 98.7147 86.849 98.3868 86.6528C97.2509 85.9866 95.6838 86.448 94.8633 87.4769C94.0404 88.5059 93.8852 89.9494 94.1709 91.2349C94.452 92.3288 94.917 93.3668 95.5458 94.3044C95.4842 94.3834 95.4202 94.4599 95.3586 94.5388C94.2325 95.9888 93.2511 97.5459 92.4284 99.1876C92.6612 97.3668 89.8147 90.7911 88.714 89.3983C87.3917 87.7253 84.6804 88.4554 84.4475 90.5762C84.4452 90.5967 84.443 90.6172 84.4409 90.6378C84.6044 90.7301 84.7644 90.8282 84.921 90.9319C85.1177 91.0635 85.2702 91.2516 85.3583 91.4715C85.4465 91.6913 85.4663 91.9327 85.4151 92.1641C85.3639 92.3954 85.2442 92.6058 85.0715 92.7678C84.8989 92.9298 84.6814 93.0358 84.4476 93.0719L84.4236 93.0756C82.235 96.205 89.2511 104.35 91.0073 102.521C90.1807 104.867 89.6622 107.31 89.4648 109.79C89.3531 111.253 89.3597 112.723 89.4846 114.185L89.4771 114.133C89.0869 110.949 82.3928 106.215 80.438 106.609C79.3119 106.836 78.2027 106.785 78.3737 107.922C78.3765 107.94 78.3792 107.959 78.382 107.977C78.6855 108.1 78.9809 108.243 79.2666 108.404C79.4301 108.496 79.5901 108.594 79.7467 108.698C79.9434 108.829 80.0959 109.017 80.1841 109.237C80.2722 109.457 80.292 109.698 80.2408 109.93C80.1897 110.161 80.0699 110.372 79.8973 110.534C79.7246 110.696 79.5071 110.802 79.2733 110.838L79.2493 110.841C79.2321 110.844 79.2173 110.846 79.2001 110.849C78.2038 114.282 85.5918 119.821 90.0833 118.059H90.0857C90.5309 119.996 91.1758 121.881 92.0101 123.685H98.8845C98.9091 123.608 98.9313 123.529 98.9535 123.453C98.3172 123.493 97.6783 123.455 97.0513 123.339C97.5613 122.712 98.0713 122.081 98.5814 121.454C98.5928 121.442 98.6035 121.43 98.6134 121.417C98.8721 121.096 99.1333 120.778 99.392 120.457L99.3922 120.457C99.406 119.473 99.2933 118.493 99.0569 117.538L99.0567 117.538ZM91.1846 102.03L91.1883 102.025L91.1846 102.035V102.03ZM89.662 115.776L89.6028 115.643C89.6053 115.547 89.6053 115.451 89.6028 115.352C89.6028 115.325 89.5979 115.298 89.5979 115.27C89.6201 115.441 89.6398 115.611 89.6644 115.781L89.662 115.776Z" fill="#3F3D56"/>
<path d="M21.8153 103.213C23.2067 103.213 24.3347 102.083 24.3347 100.69C24.3347 99.2966 23.2067 98.167 21.8153 98.167C20.4239 98.167 19.2959 99.2966 19.2959 100.69C19.2959 102.083 20.4239 103.213 21.8153 103.213Z" fill="#3F3D56"/>
<path d="M52.0479 130.737C53.4394 130.737 54.5673 129.607 54.5673 128.214C54.5673 126.82 53.4394 125.691 52.0479 125.691C50.6565 125.691 49.5286 126.82 49.5286 128.214C49.5286 129.607 50.6565 130.737 52.0479 130.737Z" fill="#3F3D56"/>
<path d="M166.794 130.737C168.186 130.737 169.314 129.607 169.314 128.214C169.314 126.82 168.186 125.691 166.794 125.691C165.403 125.691 164.275 126.82 164.275 128.214C164.275 129.607 165.403 130.737 166.794 130.737Z" fill="#3F3D56"/>
<path d="M172.978 98.6261C174.37 98.6261 175.498 97.4965 175.498 96.1031C175.498 94.7097 174.37 93.5801 172.978 93.5801C171.587 93.5801 170.459 94.7097 170.459 96.1031C170.459 97.4965 171.587 98.6261 172.978 98.6261Z" fill="#3F3D56"/>
<path d="M165.649 75.231C167.04 75.231 168.168 74.1015 168.168 72.708C168.168 71.3146 167.04 70.1851 165.649 70.1851C164.258 70.1851 163.13 71.3146 163.13 72.708C163.13 74.1015 164.258 75.231 165.649 75.231Z" fill="#3F3D56"/>
<path d="M60.5222 96.1031C60.5207 96.7476 60.2719 97.3668 59.8271 97.8326C59.3824 98.2985 58.7759 98.5753 58.1331 98.6057C57.4902 98.6362 56.8603 98.418 56.3737 97.9963C55.887 97.5746 55.5809 96.9817 55.5186 96.3402C55.4563 95.6988 55.6427 95.0579 56.0391 94.5503C56.4356 94.0426 57.0117 93.707 57.6484 93.6129C58.285 93.5188 58.9334 93.6734 59.4594 94.0447C59.9854 94.416 60.3487 94.9756 60.4741 95.6077C60.5065 95.7709 60.5226 95.9368 60.5222 96.1031Z" fill="#3F3D56"/>
<path d="M110.91 82.5704C112.301 82.5704 113.429 81.4408 113.429 80.0474C113.429 78.654 112.301 77.5244 110.91 77.5244C109.518 77.5244 108.39 78.654 108.39 80.0474C108.39 81.4408 109.518 82.5704 110.91 82.5704Z" fill="#3F3D56"/>
<path d="M85.9451 80.0475C85.9436 80.6919 85.6947 81.3112 85.25 81.777C84.8053 82.2428 84.1988 82.5196 83.5559 82.5501C82.9131 82.5805 82.2832 82.3623 81.7965 81.9406C81.3099 81.5189 81.0037 80.926 80.9415 80.2846C80.8792 79.6431 81.0655 79.0023 81.462 78.4946C81.8584 77.9869 82.4346 77.6513 83.0712 77.5572C83.7078 77.4631 84.3563 77.6177 84.8823 77.989C85.4083 78.3603 85.7716 78.9199 85.897 79.5521C85.9293 79.7152 85.9454 79.8812 85.9451 80.0475Z" fill="#3F3D56"/>
<path d="M53.4221 72.7081C53.4206 73.3526 53.1718 73.9718 52.727 74.4376C52.2823 74.9035 51.6758 75.1802 51.033 75.2107C50.3901 75.2412 49.7602 75.023 49.2736 74.6013C48.7869 74.1796 48.4808 73.5867 48.4185 72.9452C48.3562 72.3038 48.5426 71.6629 48.939 71.1552C49.3355 70.6476 49.9116 70.312 50.5483 70.2178C51.1849 70.1237 51.8333 70.2783 52.3593 70.6497C52.8853 71.021 53.2486 71.5806 53.374 72.2127C53.4064 72.3758 53.4225 72.5418 53.4221 72.7081Z" fill="#3F3D56"/>
<path d="M137.249 104.13C138.64 104.13 139.768 103.001 139.768 101.607C139.768 100.214 138.64 99.0845 137.249 99.0845C135.857 99.0845 134.729 100.214 134.729 101.607C134.729 103.001 135.857 104.13 137.249 104.13Z" fill="#3F3D56"/>
<path d="M97.6257 81.1946C99.6496 81.1946 101.29 79.5516 101.29 77.5248C101.29 75.498 99.6496 73.855 97.6257 73.855C95.6019 73.855 93.9612 75.498 93.9612 77.5248C93.9612 79.5516 95.6019 81.1946 97.6257 81.1946Z" fill="#3F3D56"/>
<path d="M196.727 130.929L0.272706 131C0.236893 131 0.201431 130.993 0.168344 130.979C0.135258 130.965 0.105197 130.945 0.0798735 130.92C0.0545503 130.895 0.0344604 130.865 0.0207556 130.831C0.00705076 130.798 0 130.763 0 130.727C0 130.691 0.00705076 130.656 0.0207556 130.622C0.0344604 130.589 0.0545503 130.559 0.0798735 130.534C0.105197 130.508 0.135258 130.488 0.168344 130.475C0.201431 130.461 0.236893 130.454 0.272706 130.454L196.727 130.383C196.799 130.384 196.869 130.412 196.92 130.464C196.971 130.515 196.999 130.584 196.999 130.656C196.999 130.729 196.971 130.798 196.92 130.849C196.869 130.9 196.799 130.929 196.727 130.929Z" fill="#CACACA"/>
</g>
<defs>
<clipPath id="clip0_88_6638">
<rect width="197" height="131" fill="white"/>
</clipPath>
</defs>
</svg>
