<svg width="252" height="181" viewBox="0 0 252 181" fill="none" xmlns="http://www.w3.org/2000/svg">
<g clip-path="url(#clip0_66_5851)">
<path opacity="0.1" d="M2.72192 98.4014C6.70945 115.382 15.1508 130.061 28.4893 137.186C56.2159 151.972 118.742 144.344 165.404 135.584C188.984 131.172 210.388 118.981 226.168 100.976L2.72192 98.4014Z" fill="#3C3C5E"/>
<path opacity="0.1" d="M247.429 18.4709H221.825C221.238 18.4709 220.676 18.2387 220.261 17.8254C219.846 17.412 219.613 16.8515 219.613 16.267C219.613 15.6825 219.846 15.1219 220.261 14.7086C220.676 14.2953 221.238 14.0631 221.825 14.0631H226.251C225.676 14.0446 225.132 13.8042 224.732 13.3927C224.332 12.9812 224.108 12.4309 224.108 11.8581C224.108 11.2853 224.332 10.7349 224.732 10.3234C225.132 9.91188 225.676 9.67148 226.251 9.65304H223.09C222.516 9.63459 221.971 9.39419 221.571 8.98268C221.171 8.57117 220.947 8.02082 220.947 7.44801C220.947 6.8752 221.171 6.32484 221.571 5.91333C221.971 5.50182 222.516 5.26143 223.09 5.24298H236.454C233.489 3.86984 230.023 2.89263 226.028 2.37999C189.589 -2.28181 176.579 0.80317 171.99 3.98198C166.328 7.89542 160.011 10.7744 153.26 12.1613C130.778 16.7819 88.7318 22.3431 50.6229 10.3808C31.6821 4.43054 17.6063 14.4819 9.16724 31.2708H251.874C251.557 26.3916 250.608 21.8877 248.867 17.9422C248.467 18.2848 247.957 18.4724 247.429 18.4709Z" fill="#3C3C5E"/>
<path opacity="0.1" d="M0.548958 62.9583C-0.434445 72.8337 -0.100781 82.7955 1.54125 92.5837L226.341 100.777C232.599 93.6042 237.853 85.62 241.96 77.0421L0.548958 62.9583ZM89.4599 84.0908H85.0336C85.6203 84.0908 86.1829 84.323 86.5977 84.7363C87.0125 85.1496 87.2456 85.7102 87.2456 86.2947C87.2456 86.8792 87.0125 87.4398 86.5977 87.8531C86.1829 88.2664 85.6203 88.4986 85.0336 88.4986H59.4293C58.8427 88.4986 58.2801 88.2664 57.8652 87.8531C57.4504 87.4398 57.2174 86.8792 57.2174 86.2947C57.2174 85.7102 57.4504 85.1496 57.8652 84.7363C58.2801 84.323 58.8427 84.0908 59.4293 84.0908H63.8556C63.281 84.0724 62.7361 83.832 62.3362 83.4205C61.9362 83.009 61.7126 82.4586 61.7126 81.8858C61.7126 81.313 61.9362 80.7626 62.3362 80.3511C62.7361 79.9396 63.281 79.6992 63.8556 79.6808H60.695C60.1204 79.6623 59.5755 79.4219 59.1755 79.0104C58.7756 78.5989 58.552 78.0485 58.552 77.4757C58.552 76.9029 58.7756 76.3526 59.1755 75.9411C59.5755 75.5296 60.1204 75.2892 60.695 75.2707H86.2992C86.8739 75.2892 87.4187 75.5296 87.8187 75.9411C88.2186 76.3526 88.4422 76.9029 88.4422 77.4757C88.4422 78.0485 88.2186 78.5989 87.8187 79.0104C87.4187 79.4219 86.8739 79.6623 86.2992 79.6808H89.4599C90.0345 79.6992 90.5794 79.9396 90.9793 80.3511C91.3792 80.7626 91.6028 81.313 91.6028 81.8858C91.6028 82.4586 91.3792 83.009 90.9793 83.4205C90.5794 83.832 90.0345 84.0724 89.4599 84.0908Z" fill="#3C3C5E"/>
<path opacity="0.1" d="M251.885 31.4175L6.45903 37.3677C3.47298 45.0138 1.50448 53.6531 0.585693 62.6174H247.585C249.197 57.3541 250.39 51.9723 251.152 46.522C251.887 41.256 252.181 36.1617 251.885 31.4175ZM50.4115 50.9069H45.9852C46.2757 50.9069 46.5633 50.9639 46.8317 51.0746C47.1001 51.1854 47.3439 51.3477 47.5493 51.5524C47.7547 51.757 47.9176 52 48.0288 52.2674C48.14 52.5347 48.1972 52.8213 48.1972 53.1108C48.1972 53.4002 48.14 53.6868 48.0288 53.9541C47.9176 54.2215 47.7547 54.4645 47.5493 54.6691C47.3439 54.8738 47.1001 55.0361 46.8317 55.1469C46.5633 55.2576 46.2757 55.3146 45.9852 55.3146H20.3809C19.7943 55.3146 19.2317 55.0824 18.8168 54.6691C18.402 54.2558 18.169 53.6953 18.169 53.1108C18.169 52.5262 18.402 51.9657 18.8168 51.5524C19.2317 51.1391 19.7943 50.9069 20.3809 50.9069H24.8072C24.2326 50.8884 23.6877 50.648 23.2878 50.2365C22.8878 49.825 22.6642 49.2746 22.6642 48.7018C22.6642 48.129 22.8878 47.5787 23.2878 47.1672C23.6877 46.7557 24.2326 46.5153 24.8072 46.4968H21.6466C21.0719 46.4784 20.5271 46.238 20.1271 45.8265C19.7272 45.4149 19.5036 44.8646 19.5036 44.2918C19.5036 43.719 19.7272 43.1686 20.1271 42.7571C20.5271 42.3456 21.0719 42.1052 21.6466 42.0868H47.2508C47.8254 42.1052 48.3703 42.3456 48.7703 42.7571C49.1702 43.1686 49.3938 43.719 49.3938 44.2918C49.3938 44.8646 49.1702 45.4149 48.7703 45.8265C48.3703 46.238 47.8254 46.4784 47.2508 46.4968H50.4115C50.9861 46.5153 51.531 46.7557 51.9309 47.1672C52.3308 47.5787 52.5544 48.129 52.5544 48.7018C52.5544 49.2746 52.3308 49.825 51.9309 50.2365C51.531 50.648 50.9861 50.8884 50.4115 50.9069Z" fill="#3C3C5E"/>
<path opacity="0.1" d="M129.461 181C173.713 181 209.586 179.066 209.586 176.679C209.586 174.293 173.713 172.358 129.461 172.358C85.2096 172.358 49.3364 174.293 49.3364 176.679C49.3364 179.066 85.2096 181 129.461 181Z" fill="#3C3C5E"/>
<path d="M195.98 144.907C195.98 144.907 197.241 146.553 195.396 149.027C193.552 151.501 192.031 153.604 192.64 155.153C192.64 155.153 195.421 150.542 197.693 150.478C199.965 150.414 198.469 147.681 195.98 144.907Z" fill="#3C3C5E"/>
<path opacity="0.1" d="M195.979 144.907C196.088 145.066 196.174 145.24 196.236 145.422C198.446 148.011 199.622 150.425 197.5 150.484C195.52 150.542 193.147 154.066 192.58 154.956C192.598 155.025 192.62 155.093 192.646 155.16C192.646 155.16 195.428 150.549 197.7 150.484C199.971 150.42 198.469 147.681 195.979 144.907Z" fill="#081025"/>
<path d="M198.324 147.003C198.324 147.582 198.26 148.052 198.18 148.052C198.099 148.052 198.033 147.582 198.033 147.003C198.033 146.424 198.115 146.697 198.196 146.697C198.276 146.697 198.324 146.424 198.324 147.003Z" fill="#FFD037"/>
<path d="M199.128 147.695C198.618 147.971 198.175 148.139 198.136 148.068C198.097 147.997 198.481 147.715 198.991 147.438C199.5 147.161 199.298 147.363 199.337 147.438C199.376 147.514 199.638 147.418 199.128 147.695Z" fill="#FFD037"/>
<path d="M189.313 144.907C189.313 144.907 188.052 146.553 189.897 149.027C191.741 151.501 193.26 153.604 192.653 155.153C192.653 155.153 189.869 150.542 187.6 150.478C185.331 150.414 186.821 147.681 189.313 144.907Z" fill="#3C3C5E"/>
<path opacity="0.1" d="M189.314 144.907C189.204 145.066 189.117 145.239 189.056 145.422C186.847 148.011 185.668 150.425 187.793 150.484C189.771 150.542 192.157 154.066 192.713 154.956C192.695 155.025 192.672 155.091 192.646 155.16C192.646 155.16 189.863 150.549 187.593 150.484C185.324 150.42 186.821 147.681 189.314 144.907Z" fill="#081025"/>
<path d="M186.968 147.003C186.968 147.582 187.033 148.052 187.113 148.052C187.193 148.052 187.26 147.582 187.26 147.003C187.26 146.424 187.177 146.697 187.097 146.697C187.016 146.697 186.968 146.424 186.968 147.003Z" fill="#FFD037"/>
<path d="M186.162 147.695C186.672 147.971 187.118 148.139 187.157 148.068C187.196 147.997 186.812 147.715 186.302 147.438C185.793 147.161 185.995 147.363 185.956 147.438C185.917 147.514 185.652 147.418 186.162 147.695Z" fill="#FFD037"/>
<path d="M187.37 154.945C187.37 154.945 190.898 154.835 191.964 154.082C193.03 153.329 197.392 152.425 197.656 153.624C197.92 154.823 202.957 159.641 198.974 159.673C194.991 159.705 189.72 159.055 188.659 158.412C187.598 157.769 187.37 154.945 187.37 154.945Z" fill="#A8A8A8"/>
<path opacity="0.2" d="M199.043 159.263C195.06 159.295 189.789 158.645 188.728 158.002C187.919 157.51 187.598 155.75 187.49 154.94H187.373C187.373 154.94 187.602 157.773 188.657 158.419C189.711 159.064 194.989 159.712 198.972 159.68C200.121 159.68 200.52 159.263 200.497 158.659C200.337 159.03 199.898 159.256 199.043 159.263Z" fill="#081025"/>
<path d="M61.8414 156.231C62.2629 155.888 62.5704 155.426 62.7234 154.906C62.836 154.382 62.6109 153.761 62.1078 153.558C61.5428 153.343 60.9387 153.734 60.4793 154.128C60.0199 154.521 59.4985 154.972 58.899 154.887C59.2073 154.609 59.4379 154.256 59.5684 153.863C59.6988 153.469 59.7246 153.049 59.6432 152.642C59.617 152.474 59.5456 152.316 59.4365 152.185C59.1218 151.851 58.5544 151.992 58.1777 152.256C56.9833 153.093 56.6502 154.711 56.6433 156.164C56.5239 155.64 56.625 155.093 56.6227 154.562C56.6204 154.032 56.4711 153.418 56.0163 153.137C55.734 152.987 55.4173 152.912 55.0975 152.922C54.56 152.901 53.9628 152.956 53.5953 153.345C53.1359 153.832 53.2576 154.647 53.655 155.176C54.0524 155.704 54.6542 156.048 55.2077 156.416C55.6532 156.68 56.0333 157.041 56.3195 157.471C56.352 157.532 56.3796 157.596 56.4022 157.661H59.7672C60.5202 157.28 61.2179 156.799 61.8414 156.231Z" fill="#3C3C5E"/>
<path d="M35.0977 159.842C35.0977 159.842 31.8682 148.924 35.7018 140.888C37.3338 137.528 37.8271 133.73 37.1076 130.066C36.7526 128.33 36.2382 126.631 35.5709 124.99" stroke="#535461" stroke-width="2" stroke-miterlimit="10"/>
<path d="M37.9481 119.909C37.9481 121.248 35.5179 125.129 35.5179 125.129C35.5179 125.129 33.0854 121.239 33.0854 119.909C33.1049 119.28 33.3695 118.682 33.8234 118.244C34.2772 117.805 34.8846 117.56 35.5168 117.56C36.149 117.56 36.7563 117.805 37.2102 118.244C37.664 118.682 37.9287 119.28 37.9481 119.909Z" fill="#3C3C5E"/>
<path d="M41.9678 127.322C41.2396 128.446 37.0798 130.386 37.0798 130.386C37.0798 130.386 37.1556 125.809 37.8861 124.688C38.245 124.168 38.7934 123.808 39.4147 123.684C40.0361 123.561 40.6812 123.683 41.213 124.027C41.7447 124.37 42.1211 124.906 42.2621 125.522C42.403 126.137 42.2974 126.783 41.9678 127.322Z" fill="#3C3C5E"/>
<path d="M41.7933 139.989C40.5943 140.591 36.021 140.174 36.021 140.174C36.021 140.174 38.4052 136.263 39.6043 135.661C39.8902 135.51 40.2035 135.418 40.5258 135.389C40.8481 135.36 41.1729 135.396 41.4812 135.494C41.7895 135.592 42.0751 135.75 42.3213 135.959C42.5675 136.168 42.7693 136.424 42.9149 136.712C43.0605 137 43.147 137.314 43.1694 137.636C43.1917 137.957 43.1494 138.28 43.0449 138.585C42.9405 138.89 42.776 139.172 42.5611 139.413C42.3461 139.654 42.0851 139.85 41.7933 139.989Z" fill="#3C3C5E"/>
<path d="M39.4941 149.544C38.4145 150.34 33.8367 150.688 33.8367 150.688C33.8367 150.688 35.5226 146.434 36.593 145.637C36.8479 145.429 37.1425 145.275 37.459 145.183C37.7755 145.092 38.1074 145.066 38.4344 145.106C38.7614 145.147 39.0767 145.253 39.3613 145.418C39.6459 145.584 39.8937 145.805 40.0899 146.069C40.286 146.333 40.4262 146.634 40.5021 146.953C40.578 147.273 40.588 147.604 40.5314 147.928C40.4749 148.251 40.3529 148.56 40.173 148.835C39.9931 149.11 39.759 149.345 39.4849 149.528L39.4941 149.544Z" fill="#3C3C5E"/>
<path d="M31.976 130.645C32.9384 131.576 37.4267 132.544 37.4267 132.544C37.4267 132.544 36.3264 128.102 35.3594 127.169C35.1323 126.937 34.8611 126.754 34.5617 126.629C34.2623 126.503 33.9408 126.439 33.6161 126.44C33.2914 126.441 32.9702 126.506 32.6712 126.632C32.3723 126.758 32.1018 126.943 31.8756 127.175C31.6494 127.407 31.4722 127.682 31.3543 127.983C31.2364 128.285 31.1802 128.607 31.1892 128.93C31.1981 129.254 31.2719 129.572 31.4062 129.866C31.5406 130.161 31.7327 130.426 31.9714 130.645H31.976Z" fill="#3C3C5E"/>
<path d="M29.4288 141.852C30.6278 142.454 35.2011 142.037 35.2011 142.037C35.2011 142.037 32.8169 138.128 31.6178 137.524C31.0437 137.25 30.3846 137.212 29.782 137.416C29.1795 137.621 28.6815 138.053 28.395 138.619C28.1085 139.186 28.0563 139.842 28.2496 140.446C28.4429 141.05 28.8662 141.555 29.4288 141.852Z" fill="#3C3C5E"/>
<path d="M28.4548 153.084C29.5344 153.878 34.11 154.228 34.11 154.228C34.11 154.228 32.4263 149.974 31.3536 149.177C30.8341 148.832 30.2013 148.699 29.5862 148.806C28.971 148.913 28.4206 149.251 28.049 149.751C27.6774 150.251 27.5129 150.874 27.5898 151.492C27.6666 152.109 27.9788 152.674 28.4617 153.068L28.4548 153.084Z" fill="#3C3C5E"/>
<path d="M37.9481 119.909C37.9481 121.248 35.5179 125.129 35.5179 125.129C35.5179 125.129 33.0854 121.239 33.0854 119.909C33.1049 119.28 33.3695 118.682 33.8234 118.244C34.2772 117.805 34.8846 117.56 35.5168 117.56C36.149 117.56 36.7563 117.805 37.2102 118.244C37.664 118.682 37.9287 119.28 37.9481 119.909Z" fill="#3C3C5E"/>
<path d="M41.9678 127.322C41.2396 128.446 37.0798 130.386 37.0798 130.386C37.0798 130.386 37.1556 125.809 37.8861 124.688C38.245 124.168 38.7934 123.808 39.4147 123.684C40.0361 123.561 40.6812 123.683 41.213 124.027C41.7447 124.37 42.1211 124.906 42.2621 125.522C42.403 126.137 42.2974 126.783 41.9678 127.322Z" fill="#3C3C5E"/>
<path d="M41.7933 139.989C40.5943 140.591 36.021 140.174 36.021 140.174C36.021 140.174 38.4052 136.263 39.6043 135.661C39.8902 135.51 40.2035 135.418 40.5258 135.389C40.8481 135.36 41.1729 135.396 41.4812 135.494C41.7895 135.592 42.0751 135.75 42.3213 135.959C42.5675 136.168 42.7693 136.424 42.9149 136.712C43.0605 137 43.147 137.314 43.1694 137.636C43.1917 137.957 43.1494 138.28 43.0449 138.585C42.9405 138.89 42.776 139.172 42.5611 139.413C42.3461 139.654 42.0851 139.85 41.7933 139.989Z" fill="#3C3C5E"/>
<path d="M39.4941 149.544C38.4145 150.34 33.8367 150.688 33.8367 150.688C33.8367 150.688 35.5226 146.434 36.593 145.637C36.8479 145.429 37.1425 145.275 37.459 145.183C37.7755 145.092 38.1074 145.066 38.4344 145.106C38.7614 145.147 39.0767 145.253 39.3613 145.418C39.6459 145.584 39.8937 145.805 40.0899 146.069C40.286 146.333 40.4262 146.634 40.5021 146.953C40.578 147.273 40.588 147.604 40.5314 147.928C40.4749 148.251 40.3529 148.56 40.173 148.835C39.9931 149.11 39.759 149.345 39.4849 149.528L39.4941 149.544Z" fill="#3C3C5E"/>
<path d="M31.976 130.645C32.9384 131.576 37.4267 132.544 37.4267 132.544C37.4267 132.544 36.3264 128.102 35.3594 127.169C35.1323 126.937 34.8611 126.754 34.5617 126.629C34.2623 126.503 33.9408 126.439 33.6161 126.44C33.2914 126.441 32.9702 126.506 32.6712 126.632C32.3723 126.758 32.1018 126.943 31.8756 127.175C31.6494 127.407 31.4722 127.682 31.3543 127.983C31.2364 128.285 31.1802 128.607 31.1892 128.93C31.1981 129.254 31.2719 129.572 31.4062 129.866C31.5406 130.161 31.7327 130.426 31.9714 130.645H31.976Z" fill="#3C3C5E"/>
<path d="M29.4288 141.852C30.6278 142.454 35.2011 142.037 35.2011 142.037C35.2011 142.037 32.8169 138.128 31.6178 137.524C31.0437 137.25 30.3846 137.212 29.782 137.416C29.1795 137.621 28.6815 138.053 28.395 138.619C28.1085 139.186 28.0563 139.842 28.2496 140.446C28.4429 141.05 28.8662 141.555 29.4288 141.852Z" fill="#3C3C5E"/>
<path d="M28.4548 153.084C29.5344 153.878 34.11 154.228 34.11 154.228C34.11 154.228 32.4263 149.974 31.3536 149.177C30.8341 148.832 30.2013 148.699 29.5862 148.806C28.971 148.913 28.4206 149.251 28.049 149.751C27.6774 150.251 27.5129 150.874 27.5898 151.492C27.6666 152.109 27.9788 152.674 28.4617 153.068L28.4548 153.084Z" fill="#3C3C5E"/>
<path d="M27.4602 159.156C27.4602 159.156 31.3926 158.378 32.44 157.341C33.4874 156.304 38.2054 154.489 38.7291 155.785C39.2528 157.08 45.8038 161.488 41.3477 162.266C36.8915 163.044 30.8666 163.303 29.5573 162.783C28.2481 162.264 27.4602 159.156 27.4602 159.156Z" fill="#A8A8A8"/>
<path opacity="0.2" d="M41.3545 161.781C36.9007 162.559 30.8735 162.817 29.5642 162.3C28.5673 161.904 27.8737 160.012 27.6003 159.126L27.4602 159.156C27.4602 159.156 28.2481 162.266 29.5573 162.783C30.8666 163.3 36.8938 163.042 41.3477 162.266C42.634 162.037 43.0015 161.513 42.8637 160.847C42.7603 161.28 42.3124 161.614 41.3545 161.781Z" fill="#081025"/>
<path d="M166.362 59.9557C167.596 58.5826 167.113 56.4427 167.113 56.4427C167.113 56.4427 161.293 41.6632 160.647 41.5007C160.002 41.3382 158.383 37.6102 158.383 37.6102C158.383 37.6102 142.862 22.9108 142.304 22.9108C141.746 22.9108 136.079 18.8508 135.353 18.7707C134.627 18.6906 133.493 18.2833 132.28 17.6265C131.067 16.9697 118.778 17.7089 118.294 18.2764C117.809 18.844 115.537 19.2513 115.537 19.2513C115.537 19.2513 110.93 19.4939 110.282 20.3064C109.634 21.1188 104.868 21.5491 104.868 21.5491C104.868 21.5491 102.523 22.4187 105.706 24.7279C104.686 24.8881 103.494 25.0117 102.284 25.0986C101.981 25.1192 101.673 25.1398 101.365 25.1558H101.184C100.98 24.5434 100.584 24.0129 100.053 23.6431C99.7066 23.4555 99.3483 23.2896 98.9808 23.1465C98.4115 22.8449 97.8783 22.4802 97.3913 22.0594C95.0347 20.1922 92.52 18.5322 89.8756 17.0978C89.4674 16.8432 89.012 16.6727 88.5365 16.5966C87.5511 16.5028 86.6713 17.1916 85.7066 17.4228C84.0114 17.8279 82.3025 16.798 80.5591 16.782C78.3816 16.7614 76.3993 18.4503 75.7355 20.5329C75.4897 21.3042 75.3794 22.1624 74.8488 22.7734C74.1598 23.5721 72.9952 23.6889 72.0511 24.1626C71.3671 24.5181 70.7939 25.0535 70.3938 25.7108C69.9937 26.368 69.782 27.122 69.7817 27.8907V27.909C69.7817 28.0303 69.7817 28.1516 69.8024 28.2729C69.9104 29.2524 70.3652 30.1563 70.6982 31.0855C71.0405 32.0375 71.2567 33.03 71.3414 34.0377C71.3425 34.0484 71.3425 34.0591 71.3414 34.0698C71.3552 34.2368 71.3666 34.4039 71.3735 34.5733C71.3735 34.6076 71.3735 34.6442 71.3735 34.6808C71.3735 34.841 71.3735 35.0035 71.3735 35.166C71.3735 36.0402 71.3437 36.9213 71.346 37.7956V37.8413V38.2372C71.346 38.2693 71.346 38.3013 71.346 38.3334C71.346 38.4501 71.346 38.5622 71.3598 38.6858V38.8094C71.3598 38.9169 71.3758 39.0268 71.3873 39.1344C71.3873 39.1801 71.3873 39.2282 71.3988 39.274C71.3988 39.3792 71.4241 39.4822 71.4378 39.5852L71.4585 39.7317C71.4746 39.8347 71.493 39.9376 71.5114 40.0406L71.5389 40.1825C71.5619 40.2924 71.5894 40.4114 71.617 40.5121C71.6285 40.551 71.6354 40.5876 71.6446 40.6265C71.6859 40.7791 71.7319 40.9255 71.7824 41.0659C72.1263 42.0269 72.6942 42.8928 73.4393 43.5926C74.1843 44.2924 75.0854 44.8061 76.0685 45.0915C76.4387 45.1932 76.8216 45.241 77.2055 45.2334C77.8946 45.2174 78.5538 45.0045 78.9627 44.5354C79.0638 44.6498 79.1625 44.7642 79.2682 44.8786C80.7663 46.502 82.6352 47.7414 84.7165 48.4919C86.7977 49.2424 89.0299 49.4818 91.2238 49.1899C93.4176 48.8979 95.5085 48.0832 97.3191 46.8148C99.1296 45.5464 100.607 43.8617 101.625 41.9035C101.866 41.8509 102.105 41.8028 102.346 41.7571C102.764 41.6792 103.184 41.606 103.607 41.5282L104.013 41.4641L104.174 41.4367C106.241 41.1117 108.249 40.8943 109.687 40.7501L104.004 41.4527C104.004 41.4527 102.626 48.046 102.229 48.7761C101.831 49.5061 103.607 50.7236 103.607 50.7236C103.607 50.7236 105.144 52.5911 105.144 53.1609C105.144 53.7308 106.921 55.3534 107.406 56.2459C107.468 56.3591 107.545 56.4631 107.636 56.5549C107.277 56.6932 106.946 56.8939 106.657 57.1476C105.534 58.2072 105.908 60.0655 105.394 61.5211C105.072 62.4365 104.399 63.178 103.752 63.8989C103.519 64.1342 103.324 64.4035 103.173 64.6976C103.089 64.8924 103.037 65.0995 103.019 65.3109C103.007 65.428 103.003 65.5457 103.005 65.6634V65.7046C103.005 65.7961 103.005 65.8853 103.023 65.9746C103.023 66.0135 103.023 66.0524 103.023 66.0913C103.136 67.0479 103.462 67.9725 103.561 68.9291C103.66 69.8857 103.54 70.8492 103.738 71.7807C103.806 72.1055 103.913 72.4211 104.055 72.7213L100.765 76.383C100.765 76.383 100.745 76.5638 100.738 76.8613C97.9954 79.1292 93.7552 83.4089 95.2689 87.1827C95.4342 87.5962 95.5874 87.9921 95.7282 88.3705C94.6142 89.0776 94.2467 89.9175 95.9166 90.7551C96.1808 90.8879 96.4357 91.0023 96.6861 91.1053C97.5429 93.6113 97.8782 94.3093 99.3138 92.4624C99.4677 92.261 99.6469 92.0047 99.8421 91.7278C101.863 91.6866 103.033 90.7551 103.033 90.7551C103.033 90.7551 108.69 90.4302 110.153 91.325C110.886 91.7827 112.609 91.8742 114.134 91.8628C114.113 93.4999 114.19 95.1368 114.364 96.7649C114.364 96.7649 114.12 103.667 114.768 105.13C115.416 106.592 115.774 109.109 115.774 109.109C115.774 109.109 114.687 111.544 115.333 112.844C115.978 114.144 114.768 116.012 114.768 116.012V120.802L115.227 120.77C115.193 121.092 115.149 121.431 115.092 121.754C114.958 122.502 114.759 123.173 114.451 123.39C113.642 123.969 113.562 127.052 113.562 127.052C113.562 127.052 112.269 130.789 112.51 131.439C112.751 132.089 110.975 133.386 111.38 134.361C111.784 135.336 112.611 141.506 113.33 143.287C114.049 145.067 111.864 144.587 111.864 144.587L112.51 149.214C112.51 149.214 113.158 153.924 112.673 154.249C112.188 154.574 109.4 156.929 111.318 158.309C111.467 158.416 111.619 158.515 111.777 158.609C111.786 158.822 111.78 159.036 111.761 159.249C111.724 159.613 111.632 159.904 111.428 159.936C110.858 160.018 109.726 160.586 109.487 160.343C109.248 160.101 107.879 160.957 106.501 161.236L106.31 161.266L104.521 160.808C101.932 159.825 99.0903 159.721 96.4357 160.51C96.4357 160.51 95.1379 160.712 94.5086 161.678C94.1893 162.172 94.0492 162.868 94.334 163.838C95.1977 166.708 101.085 167.697 101.085 167.697C101.085 167.697 103.124 168.115 105.575 168.669C105.495 168.669 105.412 168.669 105.33 168.669C104.653 168.665 104 168.913 103.498 169.365C102.996 169.817 102.683 170.44 102.619 171.111C102.556 171.782 102.747 172.452 103.156 172.989C103.564 173.526 104.16 173.892 104.826 174.013C105.491 174.134 106.178 174.002 106.75 173.643C107.323 173.284 107.74 172.724 107.918 172.074C108.097 171.424 108.025 170.731 107.715 170.132C107.406 169.532 106.883 169.07 106.248 168.836C109.005 169.468 112.057 170.237 113.298 170.779C114.221 171.126 115.168 171.409 116.13 171.626C116.177 172.194 116.405 172.732 116.781 173.162C117.157 173.592 117.66 173.891 118.218 174.016C118.776 174.141 119.36 174.086 119.884 173.857C120.408 173.629 120.846 173.24 121.133 172.747C124.884 173.528 128.497 174.189 128.497 174.189L134.531 174.288H134.572C133.861 174.292 133.181 174.578 132.681 175.082C132.18 175.585 131.901 176.266 131.903 176.974C131.906 177.683 132.19 178.362 132.694 178.862C133.197 179.362 133.879 179.643 134.591 179.643C135.302 179.643 135.984 179.362 136.488 178.862C136.991 178.362 137.276 177.683 137.278 176.974C137.28 176.266 137.001 175.585 136.501 175.082C136 174.578 135.32 174.292 134.609 174.288L143.744 174.436C143.634 174.807 143.606 175.196 143.661 175.579C143.716 175.961 143.854 176.327 144.063 176.651C144.273 176.976 144.551 177.252 144.877 177.46C145.204 177.668 145.572 177.803 145.955 177.857C146.339 177.911 146.73 177.881 147.102 177.771C147.473 177.661 147.816 177.472 148.108 177.217C148.399 176.963 148.632 176.649 148.791 176.296C148.949 175.944 149.03 175.562 149.027 175.176C149.027 174.955 148.999 174.735 148.944 174.521L157.002 174.651L158.61 172.889C158.7 172.718 158.754 172.53 158.768 172.338C158.817 171.759 158.516 170.88 156.458 170.507C156.306 170.479 152.107 170.546 148.398 170.608V169.157C148.398 169.157 148.294 168.358 148.23 167.417C148.212 167.14 148.196 166.852 148.189 166.568C148.398 166.712 148.632 166.818 148.878 166.882C150.414 167.127 152.516 162.659 152.516 162.659C152.516 162.659 152.516 160.142 153.001 158.112C153.485 156.082 154.379 149.26 154.379 149.26L156.322 141.06C156.322 141.06 157.126 124.331 156.722 123.681C156.318 123.031 157.209 121.893 157.209 121.893C157.209 121.893 157.854 118.321 156.885 117.103C155.916 115.886 157.45 114.666 157.45 114.666C157.45 114.666 157.854 110.444 156.722 108.821C155.589 107.198 157.252 106.061 157.252 106.061L157.657 99.4837C159.354 97.7787 160.889 87.629 160.971 85.4365C160.992 84.2024 161.268 82.9857 161.78 81.8618C161.78 81.8618 162.91 80.1568 163.073 79.0194C163.236 77.882 164.451 75.5293 164.451 75.5293L166.553 67.7322C167.4 64.5877 167.185 62.2626 166.622 60.6056C166.539 60.3722 166.452 60.1594 166.362 59.9557ZM128.391 60.4134C129.684 61.2258 129.28 61.4684 129.684 61.9559C130.089 62.4434 129.765 62.361 129.441 63.1734C129.117 63.9858 129.36 63.7433 129.521 64.6358C129.682 65.5283 129.604 65.5283 129.604 65.5283L130.008 65.5855L129.445 69.3548C128.527 69.9521 128.106 71.0964 127.916 72.2773C127.374 71.5724 126.827 70.8401 126.338 70.1581C126.505 69.7851 126.473 69.3411 126.478 68.9223C126.496 67.5491 127.011 66.2378 127.247 64.8852C127.489 63.5094 127.444 62.0987 127.116 60.7407C126.999 60.2297 126.817 59.7353 126.576 59.2691C127.1 59.617 127.764 60.0289 128.391 60.4225V60.4134ZM129.845 139.994C129.845 139.994 130.867 139.307 131.86 138.682C132.193 141.092 132.507 143.598 132.73 145.864C132.374 145.076 132.126 144.541 132.126 144.541C131.761 144.104 131.543 143.565 131.501 142.998C131.462 142.115 129.845 140.003 129.845 140.003V139.994ZM123.783 56.5251C124.013 56.5572 124.339 56.8478 124.647 57.1957C124.362 56.9668 124.075 56.738 123.781 56.5228L123.783 56.5251ZM108.989 86.5694C108.056 86.8623 104.895 86.8188 103.017 86.709C103.719 85.512 104.418 84.2945 105.038 83.2029C105.404 83.2972 105.776 83.3638 106.152 83.402L112.305 78.017C114.62 78.8259 117.145 78.8097 119.449 77.9712L119.617 78.2321C119.688 78.3466 119.764 78.461 119.846 78.5891L119.692 78.3397C119.692 78.3397 117.317 79.7495 117.559 80.3994C117.8 81.0494 117.237 82.6719 116.348 84.4112C116.118 84.8461 115.919 85.2763 115.726 85.7089C113.713 85.8965 109.921 86.2764 108.989 86.5694ZM120.664 161.598L120.63 160.954C121.02 160.87 121.277 160.792 121.277 160.792C121.197 159.838 121.062 158.889 120.873 157.95C120.63 156.975 120.756 157.3 121.702 156.576C122.649 155.853 121.702 147.651 121.702 147.651C121.702 147.651 122.162 147.081 122.89 148.544C123.618 150.006 124.348 150.899 124.592 150.979C124.835 151.059 123.62 152.686 124.592 154.228C125.195 155.226 125.606 156.328 125.802 157.476C125.802 157.476 125.157 160.055 126.126 161.202C126.257 161.335 126.413 161.442 126.586 161.515C126.586 161.728 126.586 161.955 126.586 162.167C126.586 162.595 126.586 162.962 126.565 163.039C126.556 163.094 126.532 163.146 126.497 163.189C126.462 163.232 126.416 163.265 126.364 163.286C126.312 163.306 126.255 163.312 126.2 163.304C126.145 163.297 126.092 163.275 126.048 163.241C125.798 163.078 124.211 163.442 124.319 164.461C123.943 164.902 123.518 165.299 123.051 165.644L120.848 165.076L120.664 161.598Z" fill="url(#paint0_linear_66_5851)"/>
<path d="M100.825 77.4677C100.825 77.4677 100.056 83.7498 106.159 84.3929L107.077 80.0447L105.155 77.4677L102.401 76.5386L100.825 77.4677Z" fill="#3C3C5E"/>
<path opacity="0.1" d="M102.401 76.5386L100.825 77.4654C100.825 77.4654 100.056 83.7475 106.159 84.3906" fill="#081025"/>
<path d="M111.899 41.9471C111.899 41.9471 107.781 42.1988 103.651 42.8808C103.228 42.9525 102.808 43.0288 102.39 43.1096C102.146 43.1554 101.907 43.2035 101.668 43.2561C99.5046 43.7001 97.5338 44.2768 96.3853 45.0137C95.0071 45.8948 94.5477 43.5216 94.5041 40.2238C94.4857 39.0635 94.5247 37.791 94.5868 36.5049C94.6672 35.0173 94.7843 33.5114 94.9083 32.1566C95.1817 29.154 95.4964 26.8197 95.4964 26.8197C95.4964 26.8197 96.9389 26.8197 98.866 26.7533L99.4862 26.7304C100.09 26.7075 100.731 26.6755 101.377 26.6366C101.682 26.6206 101.99 26.6023 102.295 26.5794C103.517 26.4924 104.723 26.3688 105.741 26.2086C106.825 26.0347 107.705 25.815 108.182 25.5221C110.365 24.2267 111.899 41.9471 111.899 41.9471Z" fill="#F8BDC5"/>
<path d="M130.249 65.1438L129.445 70.4601C129.445 70.4601 127.693 72.6343 127.923 73.8426C128.152 75.051 130.174 128.452 130.174 128.452C130.174 128.452 134.136 151.004 132.76 153.903C131.384 156.803 132.68 163.57 132.68 163.57L140.926 162.282L143.682 63.6929L130.249 65.1438Z" fill="#474463"/>
<path opacity="0.1" d="M130.249 65.1438L129.445 70.4601C129.445 70.4601 127.693 72.6343 127.923 73.8426C128.152 75.051 130.174 128.452 130.174 128.452C130.174 128.452 134.136 151.004 132.76 153.903C131.384 156.803 132.68 163.57 132.68 163.57L140.926 162.282L143.682 63.6929L130.249 65.1438Z" fill="#081025"/>
<path d="M148.439 164.939C148.177 165.371 148.198 166.644 148.271 167.726C148.336 168.658 148.439 169.45 148.439 169.45V174.926C148.439 174.926 139.628 171.866 134.777 168.644C132.776 167.314 132.206 166.079 132.317 165.09C132.478 163.682 134.017 162.765 134.777 162.765C135.503 162.765 137.795 161.504 139.674 160.389C141.151 159.517 142.377 158.737 142.377 158.737C142.377 158.737 148.924 164.133 148.439 164.939Z" fill="#575988"/>
<path opacity="0.1" d="M148.439 164.939C148.177 165.371 148.198 166.644 148.271 167.726C146.312 166.811 140.246 160.948 139.674 160.389C141.151 159.517 142.377 158.737 142.377 158.737C142.377 158.737 148.924 164.133 148.439 164.939Z" fill="#081025"/>
<path d="M166.548 68.849L164.447 76.5821C164.447 76.5821 163.234 78.9164 163.068 80.0447C162.903 81.1729 161.775 82.8642 161.775 82.8642C161.265 83.9774 160.99 85.1832 160.967 86.4069C160.886 88.5833 159.359 98.6507 157.652 100.342L157.248 106.867C157.248 106.867 155.64 107.993 156.763 109.613C157.887 111.233 157.491 115.412 157.491 115.412C157.491 115.412 155.955 116.62 156.926 117.829C157.898 119.037 157.248 122.582 157.248 122.582C157.248 122.582 156.359 123.708 156.763 124.354C157.168 124.999 156.364 141.591 156.364 141.591L154.42 149.724C154.42 149.724 153.529 156.492 153.042 158.506C152.555 160.52 152.558 163.014 152.558 163.014C152.558 163.014 150.456 167.445 148.919 167.205C147.383 166.964 139.947 159.712 139.947 159.712L140.997 135.224C140.997 135.224 141.886 124.834 141.321 122.82C140.756 120.806 140.352 110.739 140.352 110.739L139.219 94.8723L127.913 77.1519C127.913 77.1519 127.093 71.9958 129.436 70.4671L129.861 67.6819L130.245 65.1507L143.666 63.6998L164.199 58.3857C164.199 58.3857 165.781 59.3584 166.61 61.7865C167.178 63.4229 167.396 65.7297 166.548 68.849Z" fill="#474463"/>
<path d="M130.824 76.9963C130.824 76.9963 121.285 88.668 121.689 85.4068C121.941 83.3585 120.637 80.8571 119.622 79.2757C119.022 78.3351 118.526 77.7195 118.526 77.7195C118.526 77.7195 124.346 67.0891 124.67 68.5378C124.774 68.9955 125.447 70.0459 126.313 71.2451C128.139 73.758 130.824 76.9963 130.824 76.9963Z" fill="#FFC1C8"/>
<path opacity="0.3" d="M148.439 173.786V174.931C148.439 174.931 139.628 171.871 134.777 168.649C132.776 167.319 132.206 166.083 132.317 165.094C134.995 166.445 139.977 169.019 141.486 170.18C142.768 171.164 146.08 172.722 148.439 173.786Z" fill="white"/>
<path d="M146.365 178.132C147.853 178.132 149.059 176.931 149.059 175.448C149.059 173.965 147.853 172.763 146.365 172.763C144.877 172.763 143.67 173.965 143.67 175.448C143.67 176.931 144.877 178.132 146.365 178.132Z" fill="#474463"/>
<path d="M118.843 174.363C120.331 174.363 121.537 173.161 121.537 171.679C121.537 170.196 120.331 168.994 118.843 168.994C117.355 168.994 116.148 170.196 116.148 171.679C116.148 173.161 117.355 174.363 118.843 174.363Z" fill="#474463"/>
<path d="M158.81 172.633C158.795 172.824 158.741 173.01 158.651 173.18L157.043 174.926L134.57 174.567L128.527 174.468C128.527 174.468 115.806 172.162 113.327 171.086C110.849 170.01 101.105 168.042 101.105 168.042C101.105 168.042 95.2205 167.058 94.3569 164.213C94.0651 163.25 94.2121 162.561 94.5314 162.071C95.1585 161.112 96.4586 160.911 96.4586 160.911C99.1142 160.129 101.953 160.234 104.544 161.209L142.214 170.864L142.798 171.013C142.798 171.013 156.226 170.763 156.497 170.811C158.557 171.187 158.858 172.059 158.81 172.633Z" fill="#3C3C5E"/>
<path opacity="0.3" d="M158.81 172.633C156.549 172.34 152.608 171.908 151.593 172.324C151.593 172.324 144.424 171.441 134.561 174.567L128.527 174.468C128.527 174.468 115.806 172.162 113.327 171.086C110.849 170.01 101.105 168.042 101.105 168.042C101.105 168.042 95.2205 167.058 94.3569 164.213C94.0651 163.25 94.2121 162.561 94.5314 162.071C94.9334 163.238 95.7075 164.93 96.9432 165.403C98.8842 166.147 106.862 167.662 106.862 167.662L122.651 171.514C122.651 171.514 131.768 173.484 135.316 172.2C136.77 171.679 139.499 171.214 142.207 170.85L142.791 170.999C142.791 170.999 156.219 170.75 156.49 170.798C158.557 171.187 158.858 172.059 158.81 172.633Z" fill="white"/>
<path d="M137.005 169.733C136.986 170.071 136.944 170.406 136.879 170.738C136.879 170.738 127.948 171.056 123.299 170.37C122.015 170.18 121.289 169.77 120.929 169.28C120.768 169.049 120.668 168.781 120.638 168.501C120.609 168.221 120.651 167.938 120.761 167.678C120.812 167.529 120.878 167.385 120.956 167.248C121.303 166.644 121.836 166.216 122.128 166.273C122.936 166.436 124.323 164.783 124.323 164.783C124.213 163.774 125.805 163.41 126.053 163.575C126.097 163.609 126.15 163.631 126.205 163.639C126.26 163.647 126.317 163.64 126.369 163.62C126.421 163.6 126.466 163.566 126.502 163.523C126.537 163.48 126.56 163.428 126.57 163.374C126.586 163.298 126.591 162.934 126.591 162.508C126.591 161.799 126.57 160.906 126.57 160.906L135.546 161.994L135.902 163.703C136.229 165.227 136.683 167.321 136.879 168.038C137.014 168.592 137.057 169.165 137.005 169.733Z" fill="#474463"/>
<path opacity="0.1" d="M137.005 169.733C136.986 170.071 136.943 170.406 136.878 170.738C136.878 170.738 127.948 171.056 123.299 170.37C122.015 170.18 121.289 169.77 120.928 169.28C122.12 169.209 123.671 169.17 124.631 169.404C126 169.743 134.189 169.743 137.005 169.733Z" fill="#081025"/>
<path d="M120.947 167.243C120.957 167.326 120.944 167.41 120.909 167.486C120.875 167.561 120.82 167.626 120.752 167.674C119.622 168.543 114.198 167.598 114.198 167.598C114.198 167.598 103.118 166.912 101.462 165.786C101.312 165.688 101.187 165.557 101.097 165.403C100.407 164.163 102.902 162.08 103.118 162.08C103.334 162.08 106.313 161.675 106.513 161.636C107.891 161.36 109.269 160.508 109.499 160.751C109.729 160.993 110.877 160.428 111.437 160.348C111.642 160.318 111.736 160.03 111.771 159.661C111.803 159.163 111.786 158.662 111.72 158.167L120.57 160.54L120.648 161.945L120.903 166.623L120.935 167.198C120.941 167.212 120.945 167.228 120.947 167.243Z" fill="#474463"/>
<path opacity="0.1" d="M114.207 167.598C114.207 167.598 103.127 166.912 101.471 165.786C101.321 165.688 101.196 165.557 101.105 165.404C103.35 165.587 107.091 165.896 107.767 166.067C108.738 166.296 114.198 166.63 114.198 166.63H120.912L120.944 167.205C121.236 168.825 114.207 167.598 114.207 167.598Z" fill="#081025"/>
<path d="M105.35 174.363C106.838 174.363 108.044 173.161 108.044 171.679C108.044 170.196 106.838 168.994 105.35 168.994C103.862 168.994 102.656 170.196 102.656 171.679C102.656 173.161 103.862 174.363 105.35 174.363Z" fill="#474463"/>
<path d="M134.614 179.936C136.102 179.936 137.308 178.734 137.308 177.251C137.308 175.769 136.102 174.567 134.614 174.567C133.126 174.567 131.919 175.769 131.919 177.251C131.919 178.734 133.126 179.936 134.614 179.936Z" fill="#474463"/>
<path d="M107.211 80.3674C107.211 80.3674 106.701 81.2828 105.934 82.6422C104.096 85.8737 100.791 91.6019 99.3691 93.4145C97.3478 95.9914 97.5109 93.5769 95.3265 88.1805C93.7048 84.1664 98.6961 79.5732 101.365 77.4861C102.284 76.7606 102.927 76.3418 102.927 76.3418L107.211 80.3674Z" fill="#F8BDC5"/>
<path d="M116.991 86.5693C116.991 86.5693 110.282 87.1323 108.989 87.5351C107.696 87.9379 102.119 87.6953 101.639 87.5351C101.158 87.3749 91.6123 89.549 95.9788 91.7232C100.345 93.8973 103.099 91.7232 103.099 91.7232C103.099 91.7232 108.759 91.4005 110.22 92.2885C111.681 93.1764 117.01 92.6912 117.01 92.6912L116.991 86.5693Z" fill="#FFC1C8"/>
<path opacity="0.1" d="M103.053 37.2761C103.88 39.3838 103.363 41.2193 102.39 43.1027C99.9501 43.5605 97.6555 44.1898 96.3784 45.0068C92.74 47.3434 95.4894 26.8036 95.4894 26.8036C95.4894 26.8036 97.2489 26.8036 99.4793 26.7144C98.804 29.7856 101.363 32.9736 103.053 37.2761Z" fill="#081025"/>
<path d="M103.26 36.8185C103.256 40.192 102.005 43.4458 99.7467 45.9594C97.4884 48.4729 94.3805 50.0702 91.0157 50.4466C87.651 50.823 84.2649 49.9521 81.5034 48C78.7419 46.048 76.7983 43.1514 76.0433 39.8629C75.2883 36.5743 75.7748 33.1239 77.4099 30.1698C79.045 27.2158 81.7143 24.9648 84.9087 23.8463C88.103 22.7278 91.5989 22.82 94.7293 24.1054C97.8598 25.3908 100.406 27.7794 101.882 30.8156C102.791 32.6868 103.263 34.7393 103.26 36.8185Z" fill="#F8BDC5"/>
<path opacity="0.1" d="M166.615 61.7797C166.178 62.4124 165.525 62.8642 164.777 63.0499C161.624 63.9355 139.391 69.2519 137.937 68.9292C136.653 68.6454 131.143 67.8558 129.873 67.675L130.256 65.1439L143.677 63.6929L164.21 58.3789C164.21 58.3789 165.786 59.3515 166.615 61.7797Z" fill="#081025"/>
<path opacity="0.1" d="M111.899 41.947C109.271 42.104 106.653 42.3942 104.055 42.8167C104.092 42.6989 104.087 42.572 104.041 42.4574L109.416 41.796C109.416 41.796 108.63 29.2089 105.741 26.1926C106.825 26.0187 107.705 25.799 108.182 25.506C110.365 24.2267 111.899 41.947 111.899 41.947Z" fill="#081025"/>
<path d="M104.868 23.0435C104.868 23.0435 109.639 22.6155 110.284 21.8099C110.929 21.0044 115.539 20.7641 115.539 20.7641C115.539 20.7641 117.802 20.3613 118.296 19.796C118.79 19.2307 131.067 18.5075 132.28 19.1529C133.493 19.7983 134.625 20.1988 135.353 20.2812C136.081 20.3636 141.739 24.3868 142.304 24.3868C142.869 24.3868 158.382 38.9673 158.382 38.9673C158.382 38.9673 159.99 42.6725 160.647 42.8327C161.304 42.9929 167.116 57.6534 167.116 57.6534C167.116 57.6534 167.924 61.1961 164.773 62.084C161.621 62.972 139.387 68.286 137.933 67.9633C136.479 67.6407 129.606 66.6749 129.606 66.6749C129.606 66.6749 129.686 66.6749 129.526 65.7892C129.365 64.9035 129.121 65.1438 129.443 64.3383C129.765 63.5327 130.091 63.6128 129.686 63.1299C129.282 62.647 129.686 62.4044 128.393 61.5989C127.1 60.7933 125.637 59.9076 125.563 59.6673C125.49 59.427 124.351 57.8136 123.786 57.7335C123.221 57.6534 107.374 53.2227 107.374 53.2227L103.655 52.0144C103.655 52.0144 101.877 50.806 102.277 50.0828C102.676 49.3596 104.052 42.8166 104.052 42.8166L109.737 42.1186C109.737 42.1186 108.89 28.4788 105.706 26.1902C102.523 23.9017 104.868 23.0435 104.868 23.0435Z" fill="#3C3C5E"/>
<path opacity="0.1" d="M107.211 80.3674C107.211 80.3674 106.701 81.2828 105.934 82.6422C105.814 78.4404 102.865 77.6257 101.365 77.4861C102.284 76.7606 102.927 76.3418 102.927 76.3418L107.211 80.3674Z" fill="#081025"/>
<path d="M103.26 49.8403L103.65 52.0145C103.65 52.0145 105.187 53.8682 105.187 54.4312C105.187 54.9942 106.965 56.6053 107.452 57.491C107.939 58.3767 109.634 58.5392 108.986 60.0702C108.338 61.6012 104.622 73.2798 104.622 73.2798L100.823 77.4678C100.823 77.4678 107.128 76.9026 106.156 84.393L114.322 77.2985L120.717 65.7069C120.717 65.7069 114.492 53.9483 114.251 52.9825C114.01 52.0168 103.26 49.8403 103.26 49.8403Z" fill="#3C3C5E"/>
<path opacity="0.1" d="M122.167 53.8682C122.167 53.8682 127.339 50.2431 127.339 49.8403C127.339 49.4376 122.167 53.8682 122.167 53.8682Z" fill="#081025"/>
<path opacity="0.1" d="M130.824 58.3788C130.824 58.3788 133.58 57.7334 133.81 56.2848C134.039 54.8361 130.824 58.3788 130.824 58.3788Z" fill="#081025"/>
<path opacity="0.1" d="M133.079 62.084C133.079 62.084 136.961 60.1684 136.798 59.8366C136.635 59.5048 133.079 62.084 133.079 62.084Z" fill="#081025"/>
<path opacity="0.1" d="M153.856 49.8152C153.856 49.8152 152.248 50.8611 152.725 51.8406C153.203 52.8201 153.856 49.8152 153.856 49.8152Z" fill="#081025"/>
<path opacity="0.1" d="M158.617 50.2432C158.617 50.2432 154.037 54.5914 155.072 54.6738C156.108 54.7562 158.617 50.2432 158.617 50.2432Z" fill="#081025"/>
<path opacity="0.1" d="M148.198 117.659C148.198 117.659 154.099 118.788 154.259 119.19C154.42 119.593 148.198 117.659 148.198 117.659Z" fill="#081025"/>
<path opacity="0.1" d="M150.3 121.525C150.3 121.525 153.451 123.459 153.532 124.022C153.612 124.585 150.3 121.525 150.3 121.525Z" fill="#081025"/>
<path opacity="0.1" d="M149.571 125.875C149.571 125.875 150.056 128.05 150.864 128.372C151.673 128.695 149.571 125.875 149.571 125.875Z" fill="#081025"/>
<path opacity="0.1" d="M101.896 30.7445C101.896 30.7674 101.896 30.7926 101.884 30.8154C101.774 31.5318 101.48 32.3076 100.805 32.5456C100.397 32.6599 99.9607 32.62 99.5804 32.4335C98.4319 31.9323 97.4098 30.7285 96.1832 31.0191C95.5998 31.1564 95.1909 31.5981 94.9015 32.1405C94.7008 32.5309 94.5467 32.9434 94.4421 33.3695C94.2124 34.2666 94.0287 35.2415 94.3801 36.0951C94.4379 36.2348 94.507 36.3695 94.5868 36.4979C94.913 37.0174 95.3724 37.4591 95.694 37.9832C96.0936 38.6377 96.197 39.6195 95.5745 40.0681C95.4183 40.1704 95.2413 40.2368 95.0561 40.2625C94.871 40.2882 94.6825 40.2726 94.5041 40.2168C94.0481 40.0741 93.6097 39.8806 93.1972 39.6401C92.384 39.2167 91.3596 38.9536 90.5878 39.4433C90.3214 39.6081 90.1077 39.8461 89.8528 40.02C89.3228 40.347 88.6941 40.4775 88.0772 40.3885C86.6164 40.2397 86.0697 39.3174 84.9534 38.6034C84.1356 38.077 82.4267 37.8528 81.9397 38.9284C81.6273 39.615 82.0913 40.48 81.7858 41.1803C81.4803 41.8806 80.5087 42.0958 80.0585 42.7457C79.4659 43.6016 80.0172 44.8397 79.5831 45.7895C79.5166 45.9366 79.4274 46.0725 79.3189 46.1923C76.8848 43.5791 75.5626 40.1272 75.6304 36.5627C75.6982 32.9981 77.1507 29.5987 79.6824 27.0792C82.2141 24.5597 85.6277 23.1166 89.2054 23.0532C92.7831 22.9899 96.2461 24.3113 98.8661 26.7395L99.4863 26.7166C100.09 26.6937 100.731 26.6617 101.377 26.6228C101.529 26.9448 101.649 27.2814 101.733 27.6275C101.983 28.6471 102.038 29.7045 101.896 30.7445Z" fill="#081025"/>
<path d="M81.6113 38.6081C81.2966 39.2946 81.7606 40.1597 81.4574 40.8577C81.1542 41.5557 80.1757 41.7732 79.7301 42.4231C79.1352 43.2813 79.6864 44.5194 79.2546 45.4669C78.7585 46.5494 77.2609 46.7187 76.1124 46.4029C75.1312 46.1238 74.2308 45.616 73.4855 44.9216C72.7402 44.2272 72.1715 43.3661 71.8262 42.4094C71.0476 40.2009 71.5506 37.7705 71.3485 35.4384C71.2624 34.4391 71.0462 33.4551 70.7053 32.5114C70.3723 31.5959 69.9175 30.6942 69.8095 29.7216C69.7322 28.8963 69.905 28.0669 70.3054 27.3404C70.7058 26.6139 71.3155 26.0236 72.0559 25.6457C73.0023 25.188 74.1668 25.0575 74.8559 24.2725C75.3842 23.6638 75.4968 22.8147 75.7426 22.0481C76.4064 19.9883 78.3887 18.3085 80.5662 18.3291C82.3073 18.3429 84.0116 19.3659 85.7137 18.9631C86.6761 18.7342 87.5513 18.0477 88.5435 18.1461C89.0188 18.2205 89.4742 18.3894 89.8827 18.6427C92.5245 20.0644 95.0383 21.7106 97.396 23.5631C97.8838 23.9816 98.4178 24.3432 98.9878 24.641C99.3549 24.7835 99.7131 24.9479 100.061 25.133C100.802 25.5907 101.191 26.4627 101.402 27.3095C101.656 28.3285 101.713 29.3861 101.572 30.4265C101.471 31.1611 101.181 31.985 100.481 32.2299C100.072 32.3436 99.6345 32.302 99.2543 32.1131C98.1058 31.6165 97.086 30.4127 95.8594 30.7011C94.8579 30.93 94.3755 32.0605 94.1137 33.0515C93.884 33.9486 93.6956 34.9235 94.0517 35.7794C94.3457 36.4889 94.9705 37.0084 95.3632 37.6652C95.756 38.322 95.8686 39.3038 95.2438 39.7501C94.5547 40.2467 93.6198 39.718 92.8641 39.3244C92.0556 38.901 91.0266 38.6378 90.2571 39.1253C89.9929 39.2901 89.7793 39.5281 89.5221 39.7043C88.9917 40.0282 88.3646 40.1576 87.7488 40.0705C86.2856 39.9217 85.739 38.9994 84.6249 38.2854C83.8049 37.7544 82.1006 37.5302 81.6113 38.6081Z" fill="#474463"/>
<path opacity="0.1" d="M126.315 71.2338C126.253 71.5771 125.779 71.616 125.683 71.9501C124.764 75.1793 122.743 78.0835 119.623 79.2735C119.024 78.3329 118.528 77.7173 118.528 77.7173C118.528 77.7173 124.348 67.0869 124.672 68.5356C124.776 68.9864 125.449 70.0346 126.315 71.2338Z" fill="#081025"/>
<path d="M126.487 69.0093C126.487 71.1124 125.862 73.1683 124.69 74.9172C123.517 76.666 121.851 78.0292 119.901 78.8343C117.951 79.6394 115.805 79.8503 113.735 79.4403C111.664 79.0303 109.763 78.0178 108.27 76.5309C106.777 75.044 105.761 73.1494 105.349 71.0868C104.937 69.0242 105.148 66.8862 105.956 64.9432C106.763 63.0002 108.131 61.3395 109.886 60.1711C111.641 59.0026 113.704 58.379 115.815 58.379C117.218 58.3738 118.608 58.6453 119.905 59.1776C121.202 59.71 122.38 60.4928 123.372 61.4809C124.364 62.4691 125.15 63.643 125.684 64.935C126.219 66.2271 126.492 67.6118 126.487 69.0093Z" fill="#FFC1C8"/>
<path opacity="0.1" d="M120.588 160.547L120.667 161.952C119.732 162.158 117.954 162.428 116.918 161.797C115.579 160.98 113.601 160.78 111.789 159.668C111.821 159.17 111.804 158.669 111.738 158.174L120.588 160.547Z" fill="#081025"/>
<path opacity="0.1" d="M135.902 163.708C135.84 164.021 135.783 164.213 135.783 164.213C135.783 164.213 128.651 163.486 126.595 162.504C126.595 161.794 126.574 160.902 126.574 160.902L135.551 161.989L135.902 163.708Z" fill="#081025"/>
<path d="M134.292 131.755C133.807 133.043 133.564 133.286 134.051 133.929C134.538 134.572 134.292 137.957 133.52 138.277C132.748 138.598 129.845 140.531 129.845 140.531C129.845 140.531 131.453 142.625 131.501 143.507C131.543 144.069 131.762 144.605 132.126 145.038C132.126 145.038 134.616 150.354 135.112 152.045C135.608 153.736 136.063 156.393 136.063 156.393C136.063 156.393 135.192 158.81 135.794 160.181C136.396 161.552 135.794 163.563 135.794 163.563C135.794 163.563 127.109 162.678 126.147 161.54C125.184 160.403 125.825 157.844 125.825 157.844C125.627 156.704 125.215 155.611 124.612 154.622C123.641 153.091 124.842 151.482 124.612 151.4C124.383 151.317 123.641 150.434 122.91 148.985C122.18 147.537 121.725 148.097 121.725 148.097C121.725 148.097 122.672 156.233 121.725 156.959C120.779 157.684 120.65 157.361 120.894 158.332C121.082 159.263 121.217 160.205 121.298 161.151C121.298 161.151 118.388 162.037 116.934 161.151C115.48 160.266 113.291 160.103 111.368 158.735C109.446 157.366 112.239 155.029 112.723 154.707C113.208 154.384 112.563 149.713 112.563 149.713L111.915 145.122C111.915 145.122 114.097 145.605 113.38 143.834C112.664 142.062 111.834 135.941 111.43 134.975C111.026 134.009 112.808 132.718 112.563 132.075C112.317 131.432 113.612 127.727 113.612 127.727C113.612 127.727 113.695 124.667 114.501 124.093C114.809 123.878 115.009 123.209 115.142 122.47C115.283 121.598 115.367 120.717 115.392 119.834C115.392 119.834 133.904 118.545 136.894 120.317C138.24 121.113 138.146 122.58 137.583 124.065C136.894 125.878 135.479 127.727 135.123 128.397C134.455 129.633 134.777 130.466 134.292 131.755Z" fill="#575988"/>
<path opacity="0.1" d="M137.56 124.065C135.263 124.708 132.204 125.653 131.705 126.196C130.897 127.084 128.147 121.202 128.147 121.202C128.147 121.202 128.311 125.624 124.672 123.775C121.523 122.173 116.44 122.383 115.126 122.47C115.267 121.598 115.351 120.717 115.376 119.834C115.376 119.834 133.888 118.545 136.878 120.317C138.224 121.113 138.13 122.58 137.56 124.065Z" fill="#081025"/>
<path d="M128.148 75.3736C128.148 75.3736 129.755 73.4398 130.089 74.1653C130.422 74.8907 132.319 76.3394 132.319 76.3394C132.319 76.3394 132.863 78.0306 133.821 78.2732C134.779 78.5158 141.973 88.1804 141.973 88.1804L139.384 93.4144L137.283 106.141C137.283 106.141 137.374 108.155 136.803 108.887C136.231 109.62 134.046 109.45 135.059 110.336C136.072 111.222 137.526 112.027 138.335 116.057C139.143 120.088 140.112 122.42 140.112 122.42C140.112 122.42 132.514 124.353 131.706 125.239C130.897 126.125 128.148 120.245 128.148 120.245C128.148 120.245 128.311 124.665 124.672 122.818C121.034 120.971 114.809 121.534 114.809 121.534V116.774C114.809 116.774 116.022 114.92 115.376 113.632C114.731 112.343 115.817 109.926 115.817 109.926C115.817 109.926 115.457 107.43 114.809 105.981C114.161 104.532 114.405 97.6848 114.405 97.6848C114.405 97.6848 113.913 93.2542 114.361 90.9976C114.741 89.0418 115.413 87.1535 116.353 85.3952C117.242 83.6697 117.804 82.0585 117.563 81.4131C117.322 80.7678 119.697 79.3717 119.697 79.3717L121.013 81.4932L121.349 82.7611C121.349 82.7611 128.311 77.7904 128.148 75.3736Z" fill="#DCE6F2"/>
<path d="M139.782 86.5693C139.782 86.5693 144.309 90.9977 144.794 91.7232C145.278 92.4487 146.902 96.2202 144.801 97.3645C142.699 98.5088 134.464 100.273 133.647 99.6645C132.829 99.0557 127.904 100.351 127.904 100.351C127.904 100.351 119.667 102.365 121.445 99.0626C123.223 95.7602 127.429 96.3163 127.429 96.3163C127.429 96.3163 134.223 96.3049 134.949 95.6298C135.675 94.9546 141.151 93.506 139.91 90.5217C138.67 87.5374 139.782 86.5693 139.782 86.5693Z" fill="#FFC1C8"/>
<path opacity="0.1" d="M126.487 106.384C126.487 106.384 115.942 115.485 116.991 115.485C118.041 115.485 126.487 106.384 126.487 106.384Z" fill="#081025"/>
<path opacity="0.1" d="M133.52 110.089C133.52 110.089 130.169 110.892 130.817 111.377C131.464 111.863 133.52 110.089 133.52 110.089Z" fill="#081025"/>
<path opacity="0.1" d="M121.702 88.0181C121.702 88.0181 125.885 88.3911 125.148 89.6956C124.41 91.0001 121.702 88.0181 121.702 88.0181Z" fill="#081025"/>
<path opacity="0.1" d="M119.095 127.136C119.095 127.136 118.528 128.775 119.095 129.654C119.663 130.533 119.095 132.629 119.095 132.629V139.952C119.095 139.952 119.017 145.269 120.954 147.12L119.095 127.136Z" fill="#081025"/>
<path opacity="0.1" d="M113.557 149.958C113.557 149.958 114.687 151.608 114.85 152.212C115.013 152.816 113.557 149.958 113.557 149.958Z" fill="#081025"/>
<path opacity="0.1" d="M113.84 146.655C113.84 146.655 116.468 146.173 116.872 146.454C117.276 146.736 113.84 146.655 113.84 146.655Z" fill="#081025"/>
<path opacity="0.1" d="M113.073 156.521C113.073 156.521 112.303 156.602 113.84 157.437C115.376 158.272 118.367 159.33 118.406 158.968C118.445 158.606 113.073 156.521 113.073 156.521Z" fill="#081025"/>
<path opacity="0.1" d="M124.321 148.507C124.592 148.507 127.975 148.306 127.78 148.83C127.585 149.354 124.321 148.507 124.321 148.507Z" fill="#081025"/>
<path opacity="0.1" d="M128.917 143.795C128.917 143.795 129.684 142.468 129.967 143.03C130.249 143.593 128.917 143.795 128.917 143.795Z" fill="#081025"/>
<path opacity="0.1" d="M126.487 69.0094C126.488 69.9977 126.351 70.9815 126.078 71.9318C125.633 72.3346 124.863 72.3392 124.314 72.0394C123.671 71.687 123.251 71.0462 122.833 70.4374C122.415 69.8287 121.939 69.2199 121.255 68.959C120.389 68.634 119.401 68.959 118.648 69.4991C117.894 70.0392 117.292 70.7532 116.58 71.3299C115.868 71.9067 114.961 72.3735 114.054 72.2316C113.468 72.1424 112.949 71.8128 112.446 71.4947C111.757 71.0622 111.017 70.3893 110.261 70.0987C109.506 69.8081 108.883 70.3276 108.164 70.3276C107.592 70.5335 106.97 71.0027 107.085 71.5954C107.146 71.8153 107.246 72.0229 107.379 72.2088C107.609 72.6618 107.701 73.1729 107.641 73.6774C107.58 74.182 107.372 74.6576 107.041 75.0443C106.089 73.6729 105.474 72.0976 105.246 70.4456C105.017 68.7937 105.182 67.1114 105.727 65.5347C106.272 63.958 107.181 62.531 108.382 61.3691C109.582 60.2072 111.04 59.3429 112.638 58.846C114.235 58.3492 115.928 58.2336 117.579 58.5088C119.229 58.784 120.792 59.4421 122.14 60.43C123.489 61.418 124.585 62.708 125.34 64.196C126.096 65.6839 126.489 67.3281 126.489 68.9956L126.487 69.0094Z" fill="#081025"/>
<path d="M108.162 70.0184C107.59 70.2244 106.967 70.6935 107.08 71.2886C107.144 71.5073 107.244 71.7138 107.376 71.8996C108.047 73.0919 107.48 74.8038 106.228 75.3576C106.032 75.4595 105.807 75.4948 105.589 75.4583C105.416 75.4048 105.259 75.3106 105.13 75.1837C104.457 74.5841 103.992 73.7866 103.804 72.9066C103.607 71.9911 103.729 71.0208 103.628 70.0802C103.527 69.1396 103.203 68.2127 103.09 67.2653C103.01 66.797 103.06 66.3159 103.235 65.8738C103.386 65.5821 103.581 65.3151 103.814 65.082C104.459 64.3657 105.132 63.6333 105.456 62.7248C105.968 61.2784 105.596 59.4361 106.717 58.3765C107.236 57.8913 107.962 57.7105 108.605 57.4039C109.211 57.0835 109.79 56.717 110.339 56.3076C112.418 54.8842 114.945 53.7902 117.416 54.2937C118.404 54.5319 119.349 54.9177 120.221 55.438C121.84 56.3271 123.377 57.3563 124.815 58.5138C125.437 58.972 125.98 59.5277 126.423 60.1593C126.753 60.7 126.99 61.2917 127.126 61.91C127.456 63.2592 127.501 64.6619 127.259 66.0294C127.029 67.3705 126.508 68.6727 126.487 70.0344C126.487 70.4921 126.524 70.9865 126.287 71.3801C125.908 72.0072 124.969 72.0667 124.326 71.7188C123.682 71.371 123.262 70.7256 122.846 70.1168C122.431 69.5081 121.953 68.8993 121.268 68.6407C120.402 68.3134 119.415 68.6407 118.661 69.1785C117.908 69.7163 117.308 70.4326 116.594 71.0094C115.88 71.5861 114.986 72.0529 114.067 71.911C113.482 71.8218 112.962 71.4945 112.459 71.1764C111.77 70.7416 111.031 70.0688 110.277 69.7804C109.524 69.492 108.878 70.0184 108.162 70.0184Z" fill="#794F6A"/>
<path d="M132.675 86.5693C132.675 86.5693 120.793 97.5224 123.216 102.999C125.639 108.475 136.309 98.8109 136.309 98.8109L140.113 90.0411L132.675 86.5693Z" fill="#F8BDC5"/>
<g opacity="0.1">
<path d="M106.223 74.7077C106.028 74.8095 105.804 74.8449 105.587 74.8084C105.413 74.7554 105.255 74.6603 105.127 74.5315C104.454 73.9326 103.989 73.136 103.8 72.2567C103.605 71.3298 103.726 70.3686 103.625 69.428C103.524 68.4874 103.198 67.5628 103.088 66.6131C103.088 66.5673 103.088 66.5193 103.076 66.4712C103.051 66.7332 103.055 66.9972 103.088 67.2585C103.198 68.2059 103.524 69.1213 103.625 70.0734C103.726 71.0254 103.605 71.9752 103.8 72.8998C103.989 73.7799 104.454 74.5774 105.127 75.1769C105.256 75.3042 105.414 75.3985 105.587 75.4515C105.804 75.488 106.028 75.4526 106.223 75.3508C107.211 74.9137 107.769 73.7625 107.638 72.7098C107.59 73.1346 107.435 73.5405 107.188 73.8897C106.941 74.239 106.609 74.5204 106.223 74.7077Z" fill="#081025"/>
<path d="M127.243 65.3819C127.013 66.723 126.491 68.0252 126.473 69.3869C126.473 69.8446 126.51 70.3389 126.271 70.7325C125.894 71.3596 124.955 71.4191 124.312 71.0712C123.669 70.7234 123.248 70.0803 122.83 69.4693C122.412 68.8582 121.939 68.2517 121.252 67.9931C120.388 67.6682 119.401 67.9931 118.647 68.5332C117.894 69.0733 117.292 69.7851 116.58 70.3641C115.868 70.9431 114.961 71.4077 114.053 71.2681C113.468 71.1765 112.949 70.8493 112.446 70.5312C111.756 70.0963 111.017 69.4258 110.263 69.1351C109.51 68.8445 108.885 69.364 108.166 69.364C107.594 69.5722 106.972 70.0391 107.082 70.6364C107.096 70.701 107.117 70.7639 107.144 70.8241C107.369 70.4335 107.734 70.1424 108.166 70.0094C108.883 70.0094 109.517 69.4967 110.263 69.7805C111.01 70.0643 111.763 70.7417 112.446 71.1765C112.944 71.4946 113.463 71.8219 114.053 71.9112C114.972 72.053 115.873 71.593 116.58 71.0095C117.288 70.4259 117.896 69.705 118.647 69.1786C119.398 68.6522 120.388 68.3135 121.252 68.6408C121.941 68.8994 122.414 69.515 122.83 70.1169C123.246 70.7188 123.669 71.3573 124.312 71.7189C124.955 72.0805 125.894 72.0073 126.271 71.3802C126.501 70.9866 126.466 70.4945 126.473 70.0345C126.491 68.6728 127.006 67.3706 127.243 66.0295C127.364 65.3407 127.413 64.6413 127.39 63.9424C127.375 64.4251 127.326 64.9061 127.243 65.3819Z" fill="#081025"/>
</g>
<path opacity="0.1" d="M118.448 30.8315C118.448 30.8315 114.084 38.7248 120.056 42.7527C126.028 46.7805 126.604 46.3777 126.604 46.3777C126.604 46.3777 126.522 47.3435 126.604 47.5861C126.687 47.8287 128.212 48.3894 128.212 48.3894C128.212 48.3894 130.07 51.3645 132.737 52.6598C135.404 53.9552 135.891 57.0081 135.891 57.0081C135.891 57.0081 135.891 58.0563 137.269 59.022C138.647 59.9878 139.708 62.8073 139.708 62.8073V65.3865C139.708 65.7893 140.193 66.9885 139.143 67.1167C138.094 67.2448 138.98 69.6547 138.98 69.6547C138.98 69.6547 137.85 71.0278 138.091 71.6686C138.333 72.3094 137.607 73.6002 137.607 73.6002C137.607 73.6002 136.718 74.8886 136.798 75.1312C136.879 75.3738 135.829 76.2595 136.07 76.8225C136.311 77.3855 134.86 78.1109 135.101 78.7563C135.342 79.4017 134.067 79.7221 134.067 79.7221L130.573 87.7778C130.573 87.7778 137.924 89.3798 139.821 93.4145L149.087 76.4998C149.087 76.4998 154.26 63.8555 154.423 63.0499C154.586 62.2443 153.29 59.3447 153.29 59.3447L146.985 47.9019L137.526 34.6123C137.526 34.6123 130.008 18.6701 118.448 30.8315Z" fill="#081025"/>
<path opacity="0.1" d="M127.78 34.1612C127.78 34.1612 116.424 38.1319 122.405 42.1597C128.387 46.1876 128.954 45.7825 128.954 45.7825C128.954 45.7825 128.874 46.7506 128.954 46.9909C129.034 47.2312 130.562 47.7965 130.562 47.7965C130.562 47.7965 132.422 50.7716 135.089 52.0669C137.756 53.3623 138.243 56.4152 138.243 56.4152C138.243 56.4152 138.243 57.4634 139.621 58.4291C140.999 59.3949 142.047 62.2144 142.047 62.2144V64.7913C142.047 65.1941 142.531 66.3933 141.479 66.5238C140.427 66.6542 141.319 69.0618 141.319 69.0618C141.319 69.0618 140.186 70.4349 140.43 71.0734C140.673 71.7119 139.945 73.0073 139.945 73.0073C139.945 73.0073 139.056 74.2957 139.136 74.5383C139.217 74.7809 138.165 75.6666 138.408 76.2296C138.652 76.7925 137.195 77.518 137.439 78.1634C137.682 78.8088 136.403 79.1292 136.403 79.1292L132.912 87.1826C132.912 87.1826 138.966 87.4939 140.878 91.5309L151.423 75.916C151.423 75.916 156.598 63.2717 156.759 62.4662C156.92 61.6606 155.631 58.7518 155.631 58.7518L149.326 47.309L134.942 39.0427C134.942 39.0427 139.341 21.9975 127.78 34.1612Z" fill="#081025"/>
<path d="M119.095 30.8314C119.095 30.8314 114.731 38.7247 120.703 42.7525C126.675 46.7804 127.252 46.3776 127.252 46.3776C127.252 46.3776 127.171 47.3434 127.252 47.586C127.332 47.8286 128.86 48.3893 128.86 48.3893C128.86 48.3893 130.72 51.3644 133.387 52.6597C136.054 53.955 136.541 57.008 136.541 57.008C136.541 57.008 136.541 58.0561 137.919 59.0219C139.297 59.9877 140.356 62.8072 140.356 62.8072V65.3864C140.356 65.7892 140.841 66.9884 139.789 67.1166C138.737 67.2447 139.628 69.6546 139.628 69.6546C139.628 69.6546 138.495 71.0277 138.739 71.6685C138.982 72.3093 138.254 73.6001 138.254 73.6001C138.254 73.6001 137.365 74.8885 137.446 75.1311C137.526 75.3737 136.474 76.2594 136.718 76.8223C136.961 77.3853 135.505 78.1108 135.748 78.7562C135.992 79.4016 134.712 79.722 134.712 79.722L131.221 87.7777C131.221 87.7777 138.557 89.3797 140.466 93.4144L149.732 76.4997C149.732 76.4997 154.907 63.8554 155.068 63.0498C155.229 62.2442 153.936 59.3446 153.936 59.3446L147.63 47.9018L138.174 34.6167C138.174 34.6167 130.654 18.67 119.095 30.8314Z" fill="#3C3C5E"/>
<g opacity="0.1">
<path d="M71.3486 34.7953C71.2636 33.7951 71.0474 32.8102 70.7054 31.866C70.3723 30.9506 69.9175 30.0489 69.8096 29.0762C69.8096 29.0465 69.8096 29.019 69.8096 28.9893C69.7855 29.2328 69.7855 29.4781 69.8096 29.7216C69.9175 30.6942 70.3723 31.5891 70.7054 32.5114C71.0474 33.4548 71.2636 34.4389 71.3486 35.4384C71.3807 35.8137 71.3945 36.1936 71.3991 36.5827C71.406 35.9762 71.3991 35.3835 71.3486 34.7953Z" fill="#081025"/>
<path d="M79.2545 44.8238C78.7607 45.904 77.2607 46.0756 76.1123 45.7575C75.1318 45.4776 74.2321 44.9698 73.487 44.276C72.7419 43.5821 72.1727 42.722 71.8261 41.7663C71.5068 40.7828 71.3517 39.7538 71.3667 38.7202C71.3529 39.9812 71.4012 41.2262 71.8261 42.4094C72.1725 43.3654 72.7417 44.2259 73.4868 44.9201C74.2319 45.6144 75.1317 46.1226 76.1123 46.4029C77.2607 46.7187 78.7607 46.5494 79.2545 45.4669C79.4635 45.0092 79.4429 44.4782 79.4337 43.9564C79.4294 44.2542 79.3686 44.5485 79.2545 44.8238Z" fill="#081025"/>
<path d="M101.572 29.7787C101.473 30.5111 101.181 31.3349 100.481 31.5798C100.073 31.6935 99.6365 31.6527 99.2566 31.4654C98.1081 30.9665 97.086 29.7627 95.8594 30.0533C94.8579 30.2822 94.3778 31.4105 94.1137 32.4037C93.9221 33.0313 93.839 33.6868 93.8679 34.3421C93.9118 33.904 93.994 33.4706 94.1137 33.0468C94.3778 32.0558 94.8579 30.9344 95.8594 30.6964C97.086 30.4081 98.0989 31.6119 99.2566 32.1085C99.636 32.2974 100.072 32.339 100.481 32.2252C101.181 31.9803 101.473 31.1564 101.572 30.4218C101.635 29.9539 101.658 29.4815 101.641 29.0098C101.629 29.2661 101.606 29.5247 101.572 29.7787Z" fill="#081025"/>
<path d="M95.244 39.1023C94.5549 39.599 93.62 39.0703 92.8643 38.6744C92.0558 38.251 91.0267 37.9878 90.2573 38.4753C89.9931 38.64 89.7795 38.8781 89.5222 39.0543C88.9928 39.3805 88.3649 39.5102 87.749 39.4204C86.2858 39.2717 85.7391 38.3494 84.6251 37.6354C83.8074 37.1113 82.0984 36.887 81.6115 37.9626C81.4947 38.2793 81.4622 38.6207 81.5173 38.9536C81.5324 38.8346 81.5641 38.7183 81.6115 38.608C82.1007 37.5301 83.8074 37.7544 84.6251 38.2807C85.7391 38.9948 86.2858 39.9171 87.749 40.0658C88.3651 40.1537 88.9927 40.0233 89.5222 39.6974C89.7795 39.5234 89.9931 39.2854 90.2573 39.1206C91.0336 38.64 92.0558 38.8918 92.8643 39.3197C93.62 39.7134 94.5503 40.2352 95.244 39.7454C95.6482 39.4571 95.7447 38.9444 95.6551 38.4387C95.608 38.704 95.4609 38.9414 95.244 39.1023Z" fill="#081025"/>
<path d="M81.4574 40.2147C81.1427 40.9333 80.1757 41.1301 79.7301 41.7777C79.397 42.2583 79.4246 42.8579 79.4361 43.4598C79.4319 43.0933 79.534 42.7333 79.7301 42.4231C80.1757 41.7755 81.1427 41.5763 81.4574 40.8577C81.5675 40.5451 81.5975 40.21 81.5447 39.8828C81.5305 39.9968 81.5012 40.1084 81.4574 40.2147Z" fill="#081025"/>
</g>
</g>
<defs>
<linearGradient id="paint0_linear_66_5851" x1="118.496" y1="179.728" x2="118.496" y2="16.5989" gradientUnits="userSpaceOnUse">
<stop stop-color="#808080" stop-opacity="0.25"/>
<stop offset="0.54" stop-color="#808080" stop-opacity="0.12"/>
<stop offset="1" stop-color="#808080" stop-opacity="0.1"/>
</linearGradient>
<clipPath id="clip0_66_5851">
<rect width="252" height="181" fill="white"/>
</clipPath>
</defs>
</svg>
