<svg width="233" height="231" viewBox="0 0 233 231" fill="none" xmlns="http://www.w3.org/2000/svg">
<g clip-path="url(#clip0_291_1892)">
<path d="M190.822 230.714H28.5598V64.2352C28.5598 28.8158 57.3768 0 92.7978 0H126.584C162.005 0 190.822 28.8158 190.822 64.2352V230.714Z" fill="#F2F2F2"/>
<path d="M157.036 230.714H28.5598V64.2353C28.5243 50.6633 32.8222 37.4344 40.8276 26.4746C41.1227 26.0724 41.4171 25.6754 41.7206 25.2828C45.5928 20.2044 50.2008 15.732 55.3925 12.0131C55.6858 11.7996 55.9803 11.5899 56.2791 11.3802C60.6234 8.37402 65.3228 5.91649 70.2702 4.06359C70.5641 3.95234 70.8632 3.84079 71.1623 3.73362C75.6368 2.13662 80.2752 1.04262 84.9918 0.471806C85.2831 0.431907 85.5845 0.400748 85.8845 0.369295C90.4807 -0.122122 95.1163 -0.122122 99.7125 0.369295C100.012 0.400457 100.312 0.431909 100.608 0.472099C105.323 1.04308 109.96 2.13709 114.434 3.73391C114.733 3.84079 115.032 3.95233 115.327 4.06417C120.213 5.89356 124.858 8.31434 129.156 11.2725C129.455 11.4763 129.753 11.6872 130.048 11.8969C132.958 13.9741 135.691 16.2883 138.22 18.8157C140.248 20.843 142.138 23.0039 143.877 25.284C144.18 25.6754 144.474 26.0724 144.769 26.474C152.774 37.4339 157.072 50.6631 157.037 64.2353L157.036 230.714Z" fill="#CCCCCC"/>
<path d="M146.589 115.135C150.517 115.135 153.702 111.951 153.702 108.022C153.702 104.094 150.517 100.91 146.589 100.91C142.661 100.91 139.476 104.094 139.476 108.022C139.476 111.951 142.661 115.135 146.589 115.135Z" fill="#3C3C5E"/>
<path d="M232.625 231H0.37478C0.167996 231 0.000244141 230.763 0.000244141 230.471C0.000244141 230.179 0.167996 229.941 0.37478 229.941H232.625C232.832 229.941 233 230.178 233 230.471C233 230.763 232.832 231 232.625 231Z" fill="#E6E6E6"/>
<path d="M121.694 182.482H63.9019C63.1408 182.486 62.4092 182.188 61.8674 181.653C61.3257 181.119 61.0181 180.391 61.0122 179.63V50.6394C61.0181 49.8784 61.3257 49.1508 61.8673 48.6162C62.409 48.0816 63.1406 47.7836 63.9017 47.7876H121.694C122.455 47.7836 123.186 48.0816 123.728 48.6162C124.27 49.1508 124.577 49.8784 124.583 50.6394V179.63C124.577 180.391 124.27 181.119 123.728 181.653C123.186 182.188 122.455 182.486 121.694 182.482Z" fill="white"/>
<path d="M124.584 89.5247H61.0122V90.4138H124.584V89.5247Z" fill="#CCCCCC"/>
<path d="M124.806 140.251H61.2344V141.141H124.806V140.251Z" fill="#CCCCCC"/>
<path d="M81.9064 47.7878H81.0172V182.927H81.9064V47.7878Z" fill="#CCCCCC"/>
<path d="M104.134 47.7878H103.245V182.927H104.134V47.7878Z" fill="#CCCCCC"/>
<path d="M189.834 84.778C189.834 85.2972 189.773 85.8146 189.654 86.3198L184.531 108.117C184.358 108.854 184.042 109.549 183.6 110.164C183.158 110.778 182.599 111.299 181.956 111.697C181.312 112.095 180.597 112.362 179.85 112.483C179.103 112.604 178.34 112.577 177.603 112.403L157.074 106.033L156.072 105.723C155.421 106.17 154.687 106.483 153.914 106.644C153.141 106.804 152.343 106.809 151.568 106.658C148.589 106.131 146.526 103.706 146.961 101.239C147.396 98.7709 150.164 97.2014 153.144 97.7257C153.924 97.8487 154.672 98.1256 155.344 98.5403C156.016 98.9549 156.599 99.4991 157.059 100.141L157.074 100.144L157.126 100.153L174.994 102.364L176.496 84.2413C176.635 82.5216 177.433 80.9222 178.724 79.778C180.016 78.6338 181.7 78.0335 183.423 78.1028C185.147 78.1721 186.778 78.9057 187.973 80.1499C189.168 81.3942 189.835 83.0525 189.835 84.7777L189.834 84.778Z" fill="#ED9DA0"/>
<path d="M189.835 84.778C189.834 85.2972 189.774 85.8146 189.654 86.3198L185.451 109.036C185.278 109.773 184.962 110.468 184.52 111.082C184.078 111.696 183.519 112.217 182.876 112.615C182.232 113.013 181.517 113.28 180.77 113.402C180.023 113.523 179.259 113.495 178.523 113.321L157.994 107.613L158.914 98.7237L174.547 100.869L176.497 84.2401C176.635 82.5204 177.434 80.921 178.725 79.7768C180.016 78.6326 181.7 78.0323 183.424 78.1016C185.148 78.1709 186.778 78.9045 187.973 80.1487C189.169 81.3929 189.836 83.0513 189.836 84.7765L189.835 84.778Z" fill="#3C3C5E"/>
<path d="M216.497 204.482L211.539 208.137L215.195 213.096L220.153 209.44L216.497 204.482Z" fill="#ED9DA0"/>
<path d="M222.631 214.575L212.091 222.345C211.184 223.012 210.139 223.468 209.033 223.679L206.401 224.177C206.111 224.232 205.811 224.197 205.542 224.077C205.272 223.957 205.046 223.758 204.892 223.506C204.739 223.254 204.666 222.961 204.684 222.666C204.702 222.372 204.809 222.09 204.991 221.858L208.182 217.793L212.383 209.133L212.407 209.155C213.014 209.71 213.936 210.545 214.005 210.585C215.302 210.873 216.299 210.711 216.966 210.106C218.131 209.051 217.896 206.98 217.894 206.961L217.892 206.945L217.905 206.937C218.037 206.848 218.187 206.79 218.345 206.769C218.502 206.747 218.663 206.762 218.814 206.812C219.42 207.034 219.736 207.829 219.782 207.951C220.374 208.034 221.913 209.799 222.037 209.942C222.923 210.103 223.532 210.435 223.849 210.93C223.99 211.177 224.077 211.451 224.105 211.734C224.132 212.017 224.1 212.302 224.009 212.571C223.792 213.377 223.306 214.084 222.631 214.575Z" fill="#2F2E43"/>
<path d="M173.975 218.95H167.814V225.11H173.975V218.95Z" fill="#ED9DA0"/>
<path d="M172.923 230.714H159.828C158.702 230.713 157.591 230.459 156.575 229.973L154.161 228.813C153.895 228.685 153.675 228.479 153.529 228.222C153.383 227.966 153.319 227.671 153.345 227.377C153.372 227.083 153.487 226.804 153.676 226.578C153.865 226.351 154.118 226.188 154.403 226.109L159.383 224.731L167.903 220.252L167.91 220.285C168.069 221.092 168.316 222.311 168.347 222.385C169.22 223.386 170.118 223.847 171.014 223.756C172.578 223.598 173.618 221.792 173.628 221.774L173.636 221.76L173.652 221.761C173.811 221.768 173.966 221.811 174.106 221.887C174.245 221.963 174.365 222.07 174.457 222.2C174.814 222.738 174.596 223.566 174.56 223.691C174.988 224.109 175.179 226.443 175.194 226.633C175.812 227.287 176.105 227.917 176.068 228.504C176.035 228.786 175.942 229.058 175.797 229.302C175.651 229.546 175.456 229.756 175.223 229.919C174.57 230.439 173.759 230.72 172.924 230.715L172.923 230.714Z" fill="#2F2E43"/>
<path d="M199.111 122.654H169.586L164.879 220.598H175.277L181.995 176.078L208.952 211.694L218.794 202.79L199.11 176.078L199.111 122.654Z" fill="#2F2E43"/>
<path d="M192.324 62.0453C192.324 60.0342 191.766 58.0626 190.713 56.3493C189.659 54.6361 188.152 53.2482 186.358 52.3399C184.563 51.4316 182.552 51.0384 180.548 51.2039C178.543 51.3694 176.624 52.0871 175.003 53.2774C173.382 54.4677 172.122 56.084 171.364 57.9468C170.606 59.8096 170.379 61.846 170.709 63.83C171.038 65.8139 171.911 67.6678 173.23 69.1856C174.55 70.7035 176.264 71.8261 178.183 72.4286L180.287 86.3301L191.01 77.3942C191.01 77.3942 188.694 74.4437 187.451 71.1164C188.95 70.125 190.18 68.7775 191.03 67.1945C191.881 65.6115 192.325 63.8423 192.324 62.0453Z" fill="#ED9DA0"/>
<path d="M192.628 109.227L197.45 123.437L170.167 123.13L174.235 110.147L192.628 109.227Z" fill="#ED9DA0"/>
<path d="M190.164 73.1624L178.065 77.3683L166.627 136.414L190.164 139.288H201.668L192.879 80.5707C192.485 77.9427 191.561 75.4222 190.163 73.1624H190.164Z" fill="#3C3C5E"/>
<path d="M186.772 142.541L186.982 132.835L181.315 132.712L181.105 142.418C180.54 142.969 180.09 143.628 179.782 144.355C179.475 145.082 179.315 145.864 179.312 146.653C179.246 149.678 181.223 152.175 183.727 152.229C186.231 152.284 188.314 149.875 188.379 146.85C188.411 146.061 188.285 145.273 188.009 144.533C187.733 143.793 187.312 143.116 186.772 142.54V142.541Z" fill="#ED9DA0"/>
<path d="M189.94 68.7252C190.506 68.8216 191.17 67.4505 191.804 66.1149C193.133 63.3191 193.978 61.5426 194.042 59.0298C194.097 56.8886 193.502 57.4507 192.923 52.6905C192.732 51.1205 190.05 51.1234 189.504 50.3778C188.582 49.1185 189.997 48.5993 187.702 47.8441C183.405 46.4273 181.461 48.6284 178.732 48.818C178.663 48.8227 177.31 50.146 176.554 50.2145C175.23 50.3344 173.321 50.1271 172.464 48.1112C171.664 46.2251 171.133 51.7364 171.849 52.4182C172.475 53.0766 173.039 53.7925 173.531 54.5564C173.56 54.6761 172.27 50.7867 171.849 51.9383C171.546 52.7668 171.269 58.1252 172.039 58.2854C172.684 58.4194 178.037 60.4755 183.973 56.4215C184.183 56.2776 183.985 56.5071 184.719 58.2854C185.645 60.5279 185.855 60.6505 185.837 61.2685C185.802 62.6061 184.798 63.0002 185.092 63.8788C185.239 64.2424 185.5 64.5482 185.836 64.75C186.173 64.9519 186.565 65.0387 186.956 64.9974C187.742 64.8349 187.877 63.8616 188.447 63.8788C188.935 63.8937 189.514 64.6287 189.566 65.3705C189.675 66.9333 187.361 67.3631 186.956 69.4725C186.727 70.6631 189.419 68.6382 189.939 68.7267L189.94 68.7252Z" fill="#090814"/>
</g>
<defs>
<clipPath id="clip0_291_1892">
<rect width="233" height="231" fill="white"/>
</clipPath>
</defs>
</svg>
