<svg width="222" height="136" viewBox="0 0 222 136" fill="none" xmlns="http://www.w3.org/2000/svg">
<g clip-path="url(#clip0_291_2284)">
<path opacity="0.1" d="M222 87.3497C222.004 91.0344 221.556 94.7059 220.667 98.2827C220.368 99.4879 220.021 100.668 219.625 101.823C219.141 103.249 218.579 104.648 217.944 106.013C217.623 106.704 217.285 107.381 216.928 108.044C216.934 111.823 216.153 115.562 214.634 119.024C211.889 125.237 206.994 130.26 200.841 133.179C196.994 135.007 192.789 135.968 188.527 135.994H42.143C35.63 136.008 29.2296 134.304 23.5924 131.055L23.5057 131.007C22.7027 130.539 21.9199 130.043 21.1572 129.52C19.4411 128.339 17.8287 127.015 16.3376 125.563C14.3194 123.598 12.541 121.404 11.0394 119.024C7.51243 113.447 5.64406 106.988 5.65061 100.396C2.07884 94.1547 -0.00390625 86.6776 -0.00390625 78.6431C-0.00390625 68.506 3.30587 59.2587 8.74363 52.2585C9.8773 50.796 11.1191 49.42 12.4586 48.1418C13.7804 46.8769 15.201 45.7188 16.7071 44.6783C17.912 43.8449 19.1714 43.0923 20.4767 42.4256C21.0215 42.1496 21.5681 41.8887 22.1241 41.6465C22.6123 41.4306 23.1061 41.2298 23.6056 41.0402C24.205 40.8137 24.8119 40.6053 25.4263 40.4151C26.0408 40.2248 26.6471 40.0584 27.2452 39.9157C28.1248 39.7017 29.0195 39.5277 29.9292 39.3938C30.6831 39.2831 31.4371 39.2061 32.191 39.1479C32.7904 39.1029 33.3954 39.0785 34.0042 39.071H34.3341C35.0051 39.071 35.6723 39.0972 36.3339 39.1423C36.4036 39.0034 36.479 38.8626 36.5488 38.7255C36.8126 38.2243 37.0859 37.725 37.3611 37.2369C37.3605 37.2325 37.3605 37.2281 37.3611 37.2238C37.4082 37.1374 37.4554 37.0529 37.5044 36.9703C37.7268 36.5705 37.9586 36.1744 38.1961 35.782C38.3054 35.5943 38.4129 35.4179 38.5241 35.2414C38.5476 35.1975 38.5734 35.1549 38.6014 35.1137C38.7144 34.926 38.8294 34.7383 38.9463 34.5506C39.5281 33.6245 40.1331 32.7146 40.7614 31.8211L40.9216 31.5921C41.0196 31.4531 41.1101 31.318 41.2194 31.1791C41.4795 30.8168 41.7471 30.4526 42.0167 30.0959C42.2052 29.8406 42.3936 29.5872 42.5972 29.345C43.0873 28.7193 43.5899 28.0935 44.1051 27.4678C44.6203 26.842 45.1556 26.2244 45.711 25.6149C45.7864 25.5305 45.8617 25.4479 45.9409 25.3653L46.7457 24.4905C46.7853 24.4492 46.8192 24.4116 46.8569 24.3741C46.9531 24.2708 47.0454 24.1676 47.1491 24.0681C47.5807 23.6119 48.0237 23.1651 48.4685 22.7202C50.7323 20.4746 53.1439 18.3818 55.6874 16.4559C55.7873 16.3771 55.8891 16.302 55.989 16.2269C56.4677 15.8683 56.954 15.5135 57.4403 15.1644C60.1151 13.2533 62.9111 11.5163 65.8109 9.96444C66.0107 9.84993 66.2142 9.74292 66.4197 9.6378C69.0194 8.268 71.693 7.04218 74.4284 5.96593C75.9193 5.37835 77.4441 4.82645 78.9783 4.32147C79.9999 3.98732 81.0253 3.67007 82.0638 3.37159C83.6873 2.90604 85.3221 2.48866 86.9682 2.11947C91.8177 1.03572 96.7513 0.366244 101.715 0.118342C103.223 0.0420009 104.748 0.00257948 106.29 7.6498e-05C113.729 -0.00973279 121.14 0.923875 128.342 2.77838C128.417 2.89047 128.519 2.98185 128.638 3.04392C128.758 3.10598 128.892 3.1367 129.026 3.13318H129.66C129.935 3.20827 130.208 3.28336 130.483 3.3622C132.02 3.80273 133.535 4.28393 135.028 4.8058L135.405 4.94096C139.089 6.24581 142.674 7.81426 146.131 9.63404C149.248 11.2705 152.249 13.117 155.113 15.1606C155.554 15.476 155.988 15.7939 156.417 16.1143C156.937 15.7826 157.466 15.4647 158.004 15.1606C160.081 13.9825 162.287 13.0459 164.578 12.3692C169.369 10.9572 174.438 10.7597 179.325 11.7947C185.592 13.1182 191.266 16.4034 195.848 21.0758C197.713 22.9875 199.374 25.0876 200.803 27.342C200.907 27.5034 201.01 27.6668 201.11 27.832C202.338 29.8273 203.394 31.9229 204.265 34.0963C204.297 34.177 204.33 34.2521 204.358 34.3309C205.162 36.3661 205.811 38.4589 206.299 40.5915C206.322 40.7004 206.348 40.8074 206.371 40.9163C206.827 42.9802 207.137 45.0734 207.298 47.1806C207.298 47.2557 207.298 47.3327 207.313 47.4115C207.392 48.5016 207.433 49.6029 207.434 50.7155C207.434 51.7104 207.4 52.6978 207.338 53.6777C207.338 53.7847 207.323 53.8955 207.313 54.0062C207.296 54.2897 207.272 54.5694 207.247 54.8548C208.687 56.0112 210.034 57.2772 211.277 58.6411C211.826 59.2381 212.358 59.8576 212.872 60.4996C214.437 62.4536 215.813 64.5511 216.981 66.7639C220.168 72.7561 222 79.8051 222 87.3497Z" fill="#3C3C5E"/>
<path opacity="0.1" d="M200.701 132.484C200.701 133.766 196.266 134.967 188.527 136H42.1431C35.6302 136.014 29.2298 134.31 23.5926 131.061L23.5059 131.012C25.73 130.205 29.7447 129.452 35.2088 128.773L35.4538 128.743C37.9041 128.444 40.6428 128.161 43.6359 127.892C43.7113 127.892 43.7886 127.881 43.864 127.872C46.2389 127.661 48.7652 127.464 51.4429 127.28C51.5277 127.28 51.6107 127.265 51.6955 127.261C52.7284 127.188 53.7826 127.118 54.8583 127.051L55.2729 127.025C63.1044 126.541 72.0065 126.154 81.6607 125.899H81.672C83.024 125.861 84.3905 125.828 85.7715 125.799C87.307 125.763 88.8614 125.731 90.4346 125.703C91.6352 125.677 92.8509 125.658 94.0704 125.64H94.0987C99.6005 125.557 105.285 125.516 111.098 125.516C125.472 125.516 139.058 125.777 151.096 126.246H151.13C152.981 126.317 154.798 126.396 156.57 126.477L158.078 126.548C160.077 126.643 162.025 126.745 163.921 126.854C186.218 128.117 200.701 130.169 200.701 132.484Z" fill="#3C3C5E"/>
<g opacity="0.2">
<path d="M128.222 124.654C128.216 124.856 128.192 125.058 128.152 125.256C126.84 125.049 125.521 124.861 124.194 124.693C124.194 124.641 124.194 124.586 124.194 124.532C124.206 123.969 124.369 123.419 124.665 122.94C125.053 122.328 125.643 121.945 126.294 121.966C126.944 121.986 127.507 122.405 127.856 123.038C128.12 123.534 128.246 124.092 128.222 124.654Z" fill="#3F3D56"/>
<path d="M128.33 121.446C128.376 119.995 127.511 118.789 126.398 118.754C125.284 118.719 124.345 119.868 124.298 121.32C124.252 122.771 125.118 123.977 126.231 124.012C127.344 124.047 128.284 122.898 128.33 121.446Z" fill="#3F3D56"/>
<path d="M128.433 118.232C128.479 116.78 127.614 115.575 126.5 115.54C125.387 115.505 124.447 116.653 124.401 118.105C124.355 119.557 125.22 120.762 126.334 120.797C127.447 120.832 128.387 119.684 128.433 118.232Z" fill="#3F3D56"/>
<path d="M128.534 115.018C128.58 113.566 127.715 112.361 126.602 112.326C125.488 112.291 124.548 113.44 124.502 114.891C124.456 116.343 125.321 117.548 126.435 117.583C127.548 117.619 128.488 116.47 128.534 115.018Z" fill="#3F3D56"/>
<path d="M128.635 111.804C128.681 110.353 127.816 109.147 126.702 109.112C125.589 109.077 124.649 110.226 124.603 111.677C124.557 113.129 125.422 114.335 126.536 114.37C127.649 114.405 128.589 113.256 128.635 111.804Z" fill="#3F3D56"/>
<path d="M119.759 89.5047C119.493 89.1468 119.254 88.7704 119.043 88.3784L124.369 87.6782L118.635 87.5411C118.124 86.3324 117.865 85.0324 117.875 83.7206C117.885 82.4088 118.164 81.1129 118.694 79.9121L126.256 84.1264L119.329 78.7125C120.028 77.5869 120.952 76.6168 122.044 75.863C123.136 75.1091 124.373 74.5876 125.676 74.3311C126.98 74.0745 128.322 74.0884 129.62 74.3719C130.918 74.6553 132.144 75.2023 133.22 75.9786C134.296 76.7549 135.2 77.7438 135.875 78.8836C136.55 80.0235 136.982 81.2897 137.144 82.6033C137.305 83.9168 137.193 85.2495 136.815 86.518C136.436 87.7865 135.799 88.9637 134.943 89.9759C135.356 90.5327 135.707 91.1325 135.989 91.7649L128.998 95.1064L136.411 92.8856C136.878 94.4198 136.953 96.0457 136.63 97.6161C136.307 99.1866 135.596 100.652 134.56 101.879C135.637 103.334 136.28 105.06 136.418 106.862C136.555 108.664 136.181 110.467 135.337 112.067C134.494 113.666 133.215 114.997 131.648 115.907C130.081 116.817 128.288 117.269 126.475 117.213C124.662 117.156 122.902 116.592 121.395 115.585C119.889 114.579 118.697 113.17 117.957 111.521C117.216 109.872 116.956 108.048 117.207 106.259C117.459 104.469 118.21 102.787 119.376 101.403C118.09 99.6646 117.428 97.5465 117.497 95.3887C117.565 93.2309 118.36 91.1586 119.753 89.5047H119.759Z" fill="#3C3C5E"/>
<path opacity="0.1" d="M136.822 95.996C136.756 98.1551 135.959 100.228 134.56 101.879C135.637 103.334 136.28 105.06 136.418 106.862C136.555 108.663 136.181 110.467 135.337 112.067C134.494 113.666 133.215 114.997 131.648 115.907C130.081 116.817 128.288 117.269 126.475 117.212C124.662 117.155 122.902 116.591 121.395 115.585C119.889 114.578 118.697 113.17 117.957 111.521C117.216 109.871 116.956 108.048 117.207 106.259C117.459 104.469 118.21 102.786 119.376 101.402C118.138 99.7261 136.856 94.9166 136.822 95.996Z" fill="black"/>
</g>
<g opacity="0.2">
<path d="M99.5723 124.654C99.5663 124.856 99.543 125.058 99.5026 125.256C98.1907 125.049 96.8714 124.861 95.5444 124.693C95.5444 124.641 95.5444 124.586 95.5444 124.532C95.5567 123.969 95.7194 123.419 96.0156 122.94C96.4039 122.328 96.9939 121.945 97.6441 121.966C98.2944 121.986 98.858 122.405 99.2067 123.038C99.4704 123.534 99.5966 124.092 99.5723 124.654Z" fill="#3F3D56"/>
<path d="M99.6784 121.447C99.7245 119.995 98.8593 118.79 97.7461 118.755C96.6328 118.72 95.6929 119.868 95.6469 121.32C95.6008 122.772 96.466 123.977 97.5792 124.012C98.6925 124.047 99.6324 122.899 99.6784 121.447Z" fill="#3F3D56"/>
<path d="M99.7814 118.233C99.8275 116.781 98.9624 115.576 97.8491 115.541C96.7358 115.506 95.796 116.654 95.7499 118.106C95.7038 119.558 96.569 120.763 97.6823 120.798C98.7956 120.833 99.7354 119.685 99.7814 118.233Z" fill="#3F3D56"/>
<path d="M99.8823 115.019C99.9283 113.567 99.0632 112.362 97.9499 112.327C96.8366 112.292 95.8968 113.441 95.8507 114.892C95.8047 116.344 96.6698 117.549 97.7831 117.584C98.8964 117.619 99.8362 116.471 99.8823 115.019Z" fill="#3F3D56"/>
<path d="M99.9833 111.805C100.029 110.354 99.1643 109.148 98.051 109.113C96.9377 109.078 95.9979 110.227 95.9518 111.678C95.9058 113.13 96.7709 114.336 97.8842 114.371C98.9974 114.406 99.9373 113.257 99.9833 111.805Z" fill="#3F3D56"/>
<path d="M91.1094 89.5047C90.844 89.1468 90.6046 88.7704 90.3932 88.3784L95.7197 87.6782L89.986 87.5411C89.4744 86.3324 89.2156 85.0324 89.2257 83.7206C89.2357 82.4088 89.5143 81.1129 90.0445 79.9121L97.6064 84.1264L90.6796 78.7125C91.3784 77.5869 92.3027 76.6168 93.3948 75.863C94.4869 75.1091 95.7233 74.5876 97.0269 74.3311C98.3304 74.0745 99.6731 74.0884 100.971 74.3719C102.269 74.6553 103.494 75.2023 104.57 75.9786C105.646 76.7549 106.55 77.7438 107.225 78.8836C107.901 80.0235 108.333 81.2897 108.494 82.6033C108.656 83.9168 108.544 85.2495 108.165 86.518C107.787 87.7865 107.15 88.9637 106.294 89.9759C106.707 90.5327 107.057 91.1325 107.34 91.7649L100.349 95.1064L107.762 92.8856C108.229 94.4198 108.304 96.0457 107.981 97.6161C107.658 99.1866 106.946 100.652 105.911 101.879C106.987 103.334 107.631 105.06 107.768 106.862C107.906 108.664 107.531 110.467 106.688 112.067C105.844 113.666 104.566 114.997 102.999 115.907C101.432 116.817 99.6391 117.269 97.826 117.213C96.0128 117.156 94.2524 116.592 92.7459 115.585C91.2395 114.579 90.0478 113.17 89.3073 111.521C88.5667 109.872 88.3071 108.048 88.5581 106.259C88.8091 104.469 89.5607 102.787 90.7268 101.403C89.4409 99.6646 88.779 97.5465 88.8474 95.3887C88.9158 93.2309 89.7104 91.1586 91.1037 89.5047H91.1094Z" fill="#3C3C5E"/>
<path opacity="0.1" d="M108.173 95.996C108.107 98.1551 107.31 100.228 105.911 101.879C106.987 103.334 107.631 105.06 107.768 106.862C107.906 108.663 107.531 110.467 106.688 112.067C105.844 113.666 104.566 114.997 102.999 115.907C101.432 116.817 99.6391 117.269 97.826 117.212C96.0128 117.155 94.2524 116.591 92.7459 115.585C91.2395 114.578 90.0478 113.17 89.3073 111.521C88.5667 109.871 88.3071 108.048 88.5581 106.259C88.8091 104.469 89.5607 102.786 90.7268 101.402C89.4884 99.7261 108.207 94.9166 108.173 95.996Z" fill="black"/>
</g>
<g opacity="0.2">
<path d="M177.831 126.708C177.816 127.091 177.77 127.473 177.693 127.849C175.167 127.447 172.623 127.088 170.061 126.771C170.061 126.67 170.061 126.567 170.061 126.462C170.085 125.378 170.399 124.319 170.97 123.396C171.724 122.219 172.855 121.481 174.104 121.519C175.354 121.556 176.441 122.366 177.12 123.584C177.632 124.544 177.877 125.622 177.831 126.708Z" fill="#3F3D56"/>
<path d="M178.036 120.527C178.124 117.731 176.458 115.41 174.314 115.342C172.169 115.275 170.359 117.487 170.27 120.282C170.182 123.078 171.848 125.399 173.992 125.467C176.137 125.534 177.947 123.323 178.036 120.527Z" fill="#3F3D56"/>
<path d="M178.232 114.34C178.32 111.544 176.654 109.223 174.51 109.155C172.365 109.088 170.555 111.3 170.466 114.095C170.378 116.891 172.044 119.212 174.188 119.28C176.333 119.347 178.143 117.136 178.232 114.34Z" fill="#3F3D56"/>
<path d="M178.429 108.152C178.518 105.357 176.852 103.035 174.707 102.968C172.563 102.9 170.753 105.112 170.664 107.908C170.575 110.704 172.242 113.025 174.386 113.092C176.53 113.16 178.341 110.948 178.429 108.152Z" fill="#3F3D56"/>
<path d="M178.404 101.683C178.489 98.8858 176.818 96.5662 174.672 96.5021C172.527 96.438 170.719 98.6537 170.635 101.451C170.551 104.248 172.222 106.568 174.367 106.632C176.513 106.696 178.32 104.48 178.404 101.683Z" fill="#3F3D56"/>
<path d="M161.536 59.0408C161.028 58.3517 160.567 57.6285 160.158 56.8764L170.412 55.5285L159.376 55.2638C158.39 52.937 157.892 50.4343 157.911 47.9088C157.929 45.3834 158.465 42.8884 159.486 40.5763L174.046 48.6879L160.713 38.2655C162.061 36.1036 163.841 34.2415 165.944 32.7952C168.046 31.3488 170.425 30.3493 172.933 29.8587C175.44 29.3682 178.022 29.3973 180.517 29.9441C183.013 30.4909 185.368 31.5438 187.437 33.037C189.506 34.5303 191.244 36.432 192.543 38.6236C193.842 40.8153 194.674 43.2498 194.986 45.7755C195.299 48.3013 195.086 50.8641 194.361 53.3043C193.635 55.7444 192.413 58.0097 190.77 59.9588C191.564 61.0315 192.24 62.1864 192.785 63.4035L179.325 69.8405L193.595 65.5604C194.495 68.5104 194.641 71.6371 194.022 74.6577C193.402 77.6782 192.036 80.4971 190.046 82.8592C192.118 85.659 193.357 88.983 193.621 92.451C193.885 95.919 193.164 99.391 191.54 102.47C189.916 105.549 187.455 108.111 184.438 109.863C181.422 111.614 177.971 112.485 174.48 112.376C170.99 112.266 167.601 111.18 164.701 109.243C161.801 107.305 159.507 104.594 158.081 101.419C156.656 98.2446 156.156 94.7343 156.639 91.2897C157.122 87.8452 158.568 84.6055 160.812 81.9412C158.338 78.5953 157.065 74.5186 157.196 70.3653C157.327 66.2121 158.856 62.2232 161.536 59.0389V59.0408Z" fill="#3C3C5E"/>
<path opacity="0.1" d="M194.389 71.5356C194.265 75.6897 192.738 79.6808 190.054 82.8629C192.125 85.6627 193.364 88.9867 193.628 92.4547C193.892 95.9227 193.171 99.3947 191.548 102.474C189.924 105.553 187.463 108.115 184.446 109.866C181.429 111.618 177.978 112.489 174.488 112.379C170.998 112.27 167.609 111.184 164.709 109.247C161.809 107.309 159.515 104.598 158.089 101.423C156.663 98.2483 156.163 94.738 156.646 91.2934C157.129 87.8489 158.576 84.6093 160.82 81.9449C158.419 78.7142 194.455 69.4575 194.389 71.5356Z" fill="black"/>
</g>
<path d="M29.7466 127.038L31.7238 127.032H34.5115L38.0361 70.0057L72.9414 11.9935L71.4241 10.3715V6.26416L33.6746 68.6616L29.7466 127.038Z" fill="#F1C0C0"/>
<path opacity="0.1" d="M31.9348 127.032H34.5114L38.036 70.0057L72.9414 11.9935L71.4241 10.3716L35.4199 69.1365L31.9348 127.032Z" fill="black"/>
<path d="M23.9204 127.513L114.364 134.406L114.442 134.412L201.972 129.051L202.038 129.047V125.366L105.59 123.603L25.1248 123.526H24.5368L24.4727 123.939L23.9204 127.513Z" fill="#F1C0C0"/>
<path opacity="0.1" d="M23.9204 127.513L114.364 134.406L114.442 134.412L201.972 129.051L202.038 128.979V125.443H201.96L114.364 128.356L25.1248 123.526H25.1116L24.9533 123.629L24.4727 123.939L23.9204 127.513Z" fill="black"/>
<path opacity="0.1" d="M23.9204 127.513L114.364 134.406V128.356L24.9533 123.629L24.4727 123.939L23.9204 127.513Z" fill="black"/>
<path d="M71.4128 10.2949L111.287 52.9193L110.054 127.896L113.441 128.303L113.498 128.311H116.885L117.29 56.1388L191.954 80.9784L193.213 125.206L195.938 125.51L196.862 125.613L194.725 77.911L116.673 50.6197L73.8763 6.30762H71.4128V10.2949Z" fill="#F1C0C0"/>
<path opacity="0.1" d="M116.982 54.7588L117.29 56.1386L191.954 80.9781L193.213 125.206L195.938 125.51L193.801 80.0583L116.982 54.7588Z" fill="black"/>
<path opacity="0.1" d="M71.4128 10.2949L111.287 52.9193L110.054 127.896L113.441 128.303L114.365 50.4658L71.4128 6.30762V10.2949Z" fill="black"/>
<path d="M117.128 84.849L144.513 90.2198L144.522 90.2217L192.485 99.6323L194.681 98.7556L194.674 98.6017L194.53 95.5512L117.156 79.9795L117.128 84.849Z" fill="#F1C0C0"/>
<path opacity="0.1" d="M144.522 90.2217L192.485 99.6323L194.681 98.7556L194.674 98.6017L144.522 90.2217Z" fill="black"/>
<path d="M146.356 65.8081L147.096 106.42L147.479 127.256L150.851 127.143L152.973 127.072L152.314 66.3957L150.851 65.9114L150.531 65.8081H146.356Z" fill="#F1C0C0"/>
<path opacity="0.1" d="M146.386 65.7988V65.8082L147.097 106.42L147.479 127.256L150.851 127.143V65.7988H146.386Z" fill="black"/>
<path d="M93.5369 76.1801C93.7347 76.2872 93.9238 76.4096 94.1023 76.5462C94.3135 76.7303 94.5031 76.9375 94.6678 77.1638C95.4764 78.2057 96.2228 79.4165 96.1436 80.7306C96.1453 80.9218 96.109 81.1114 96.0369 81.2886C95.9648 81.4658 95.8582 81.627 95.7233 81.763C95.3897 82.0465 94.9109 82.0596 94.4736 82.0596C93.9986 82.0596 93.4992 82.0597 93.0883 81.8156C92.6774 81.5716 92.3343 81.0966 91.848 81.1079C91.7794 81.1192 91.7094 81.1192 91.6407 81.1079C91.473 81.0534 91.439 80.8338 91.3297 80.6949C91.1412 80.4452 90.7435 80.5072 90.4476 80.6161C90.1517 80.7249 89.8237 80.8882 89.5316 80.7625C89.362 80.6734 89.2234 80.5353 89.1339 80.3664C88.4346 79.24 88.2857 77.8866 88.1538 76.5781C88.0727 75.7822 87.4545 73.0677 89.1603 73.6853C89.9142 73.9556 90.6191 74.4963 91.3052 74.8924L93.5369 76.1801Z" fill="#3F3D56"/>
<path d="M91.852 76.4487C92.0044 76.5579 92.189 76.6131 92.3766 76.6056C92.5641 76.5981 92.7437 76.5284 92.8868 76.4074C93.1675 76.1548 93.3463 75.8092 93.3901 75.435C93.5785 75.3768 93.6747 75.6227 93.7953 75.7729C94.0064 76.0282 94.4361 76.0245 94.6284 76.2967C94.7622 76.4844 94.7321 76.7453 94.8263 76.9574C94.9488 77.2315 95.2523 77.3742 95.4596 77.5957C95.6554 77.8377 95.7968 78.1187 95.8743 78.4198L96.1834 79.3434C96.3313 79.7275 96.4264 80.1297 96.4661 80.5392C96.4856 80.7439 96.464 80.9504 96.4025 81.1467C96.341 81.343 96.2409 81.5251 96.108 81.6824C95.6933 82.1273 95.0129 82.1743 94.4116 82.1611C94.2108 82.1654 94.0104 82.142 93.816 82.0917C93.2826 81.9265 92.9415 81.3915 92.8001 80.8527C92.6587 80.3139 92.6738 79.7489 92.5909 79.197C92.5013 78.6549 92.343 78.1263 92.1197 77.6239C91.9538 77.2334 91.4977 76.6515 91.5052 76.2366C91.6409 76.2366 91.7389 76.3605 91.852 76.4487Z" fill="#3F3D56"/>
<path d="M92.5286 74.5467C92.4405 74.2802 92.3891 74.0029 92.3759 73.7226C92.3759 73.1594 92.6342 72.6301 92.8943 72.127L90.7399 72.4179C90.4798 72.4536 90.1895 72.5062 90.0425 72.722C89.9867 72.829 89.9575 72.9478 89.9575 73.0684C89.9575 73.189 89.9867 73.3078 90.0425 73.4147C90.1505 73.6289 90.2364 73.8535 90.2989 74.0849C90.3037 74.2875 90.3271 74.4892 90.3686 74.6875C90.4356 74.8332 90.5296 74.965 90.6457 75.0761C91.262 75.7556 91.7238 76.5572 92.1837 77.3513C92.1705 77.3288 93.4823 76.3169 93.4296 75.9865C93.3994 75.7988 93.0206 75.5736 92.8999 75.3933C92.7333 75.1318 92.6081 74.8462 92.5286 74.5467Z" fill="#BE6F72"/>
<path d="M111 67.2124V69.0615L79.2085 75.2376L77.5592 76.2325H71.8689V75.1906L103.104 67.6742L111 67.2124Z" fill="#F1C0C0"/>
<path opacity="0.1" d="M111 69.0615L79.2085 75.2376L77.5592 76.2326H71.8689L103.336 69.5252L111 69.0615Z" fill="black"/>
<path d="M85.4754 119.704C85.1212 119.277 84.6322 118.981 84.0881 118.866C83.5439 118.751 82.9766 118.823 82.4785 119.069C82.3719 119.119 82.2779 119.192 82.2033 119.283C82.0148 119.546 82.1355 119.908 82.1524 120.233C82.1958 121.025 81.5625 121.669 80.9933 122.223C80.6879 122.52 80.3769 122.837 80.2393 123.241C80.1017 123.644 80.2035 124.157 80.5729 124.367C80.7342 124.447 80.9096 124.496 81.0894 124.51C81.6919 124.627 82.3096 124.644 82.9177 124.56C83.5189 124.446 84.1089 124.106 84.369 123.554C84.4192 123.404 84.5023 123.268 84.6122 123.154C84.9439 122.893 85.4528 123.199 85.8298 123.013C86.1408 122.859 86.154 122.617 86.1577 122.298C86.169 121.416 86.0371 120.417 85.4754 119.704Z" fill="#3C3C5E"/>
<path d="M89.9991 119.67C90.231 120.278 90.263 120.941 90.2932 121.59C90.3101 121.966 90.3214 122.367 90.1179 122.685C89.9143 123.002 89.5166 123.169 89.1359 123.248C88.3499 123.409 87.4395 123.257 86.9325 122.636C86.5442 122.161 86.4632 121.51 86.5348 120.894C86.5951 120.389 86.7233 119.797 86.3595 119.439C86.2653 119.343 86.1428 119.276 86.0561 119.172C85.8676 118.943 85.8977 118.598 85.9995 118.316C86.1321 118.047 86.2314 117.763 86.2954 117.47C86.3105 117.331 88.8475 117.567 89.0812 117.682C89.3998 117.838 89.3507 118.099 89.4469 118.414C89.5807 118.853 89.837 119.249 89.9991 119.67Z" fill="#3C3C5E"/>
<path d="M90.4646 92.7014C90.9622 93.0224 91.1544 93.6531 91.2317 94.2388C91.4447 95.8439 91.0715 97.4658 91.0432 99.0858C91.0168 101.355 91.6765 103.666 91.113 105.865C90.7756 107.179 91.0621 108.68 90.7454 110.008C90.6512 110.402 90.4778 110.774 90.3873 111.168C90.1988 112.022 90.3967 112.915 90.6625 113.751C90.7473 113.976 90.8012 114.211 90.8227 114.451C90.8099 114.82 90.716 115.181 90.5475 115.51L89.4166 118.174C89.2903 118.472 88.7927 118.521 88.4742 118.56C87.8748 118.632 87.2057 118.682 86.7288 118.312C86.252 117.943 86.137 117.323 86.0635 116.745C85.9225 115.635 85.8595 114.517 85.875 113.398C85.8957 113.106 85.8696 112.813 85.7977 112.529C85.6941 112.208 85.466 111.93 85.4038 111.59C85.3246 111.151 85.5489 110.719 85.6319 110.276C85.6887 109.871 85.6824 109.46 85.613 109.058C85.5395 108.457 85.4547 107.856 85.3586 107.259C85.2228 106.424 85.417 105.6 85.547 104.763C85.6696 103.976 85.5131 103.174 85.3586 102.394C85.3719 103.027 85.2925 103.66 85.1229 104.271C85.0231 104.569 84.8798 104.855 84.7931 105.159C84.4067 106.523 85.2304 107.956 85.1135 109.369C85.0589 110.03 84.7988 110.683 84.8723 111.335C84.9232 111.812 85.1456 112.249 85.2982 112.703C85.4509 113.158 85.5301 113.678 85.2982 114.102C84.6857 115.254 85.1437 116.822 85.6922 118.005C85.8035 118.214 85.9005 118.431 85.9824 118.654C86.1445 119.187 86.0088 119.76 86.0522 120.315C85.8943 120.341 85.7327 120.331 85.5795 120.285C85.4263 120.239 85.2856 120.159 85.1682 120.051C85.0853 119.964 85.0174 119.863 84.9364 119.773C84.7099 119.558 84.4418 119.391 84.1485 119.283C83.9763 119.187 83.7801 119.142 83.583 119.153C83.3759 119.211 83.1896 119.326 83.0459 119.486C82.8594 119.649 82.6617 119.799 82.454 119.934C82.3656 120.002 82.2622 120.048 82.1524 120.068C82.0973 120.076 82.0408 120.067 81.9911 120.042C81.9413 120.017 81.9009 119.976 81.8754 119.927C81.8636 119.896 81.8566 119.863 81.8546 119.829C81.7846 119.262 81.7475 118.692 81.7434 118.121C81.7434 117.139 80.5635 116.463 80.4146 115.493C80.2959 114.71 80.5164 113.912 80.4429 113.124C80.4071 112.718 80.294 112.32 80.3015 111.915C80.3015 111.652 80.3618 111.395 80.3826 111.134C80.3999 110.844 80.3955 110.554 80.3694 110.265L80.311 109.358C80.2544 108.463 80.1922 107.548 79.8379 106.73C79.4177 105.774 79.1689 104.753 79.1028 103.711C79.0651 103.054 79.0896 102.397 79.0142 101.738C78.9463 101.143 78.7955 100.552 78.8389 99.955C78.8747 99.4932 79.0274 99.0464 79.0632 98.5846C79.1367 97.6967 78.7974 96.8332 78.5317 95.9828C78.2659 95.1324 78.0699 94.19 78.4186 93.3697C78.4684 93.235 78.5514 93.115 78.6598 93.0205C78.7935 92.9324 78.9457 92.8759 79.1047 92.8553C82.3386 92.1787 85.6533 91.9682 88.9473 92.2302C89.4843 92.2605 90.0054 92.4224 90.4646 92.7014Z" fill="#3F3D56"/>
<path d="M79.7644 72.7637C81.432 72.7637 82.7839 71.4173 82.7839 69.7564C82.7839 68.0954 81.432 66.749 79.7644 66.749C78.0968 66.749 76.7449 68.0954 76.7449 69.7564C76.7449 71.4173 78.0968 72.7637 79.7644 72.7637Z" fill="#BE6F72"/>
<path d="M79.1802 73.5127C79.2236 73.6846 79.2236 73.8645 79.1802 74.0364C79.1327 74.1566 79.0659 74.2682 78.9823 74.3668C78.69 74.7423 78.3666 75.0927 78.0154 75.4143C78.1943 75.8123 78.5164 76.1291 78.9182 76.3023C79.3172 76.4714 79.7357 76.5906 80.1641 76.6571C80.3779 76.7131 80.6005 76.7283 80.82 76.7021C81.0223 76.6515 81.2139 76.565 81.3855 76.4468L83.063 75.4462C83.3161 75.3097 83.5505 75.1412 83.7604 74.945C84.068 74.6301 84.2422 74.2093 84.2467 73.7699C84.2545 73.6912 84.233 73.6123 84.1863 73.5484C84.122 73.4926 84.0414 73.459 83.9564 73.4526C83.3664 73.3231 82.9009 72.8463 82.637 72.3056C82.3985 71.7514 82.2441 71.1649 82.179 70.5654L80.3903 71.504C80.1245 71.6448 79.8606 71.7856 79.5854 71.9077C79.4102 71.9865 79.0558 72.0522 78.9314 72.2118C78.6939 72.5065 79.118 73.1579 79.1802 73.5127Z" fill="#BE6F72"/>
<path d="M78.0268 74.8677C77.7721 75.0756 77.5732 75.3433 77.4481 75.6467C77.3312 76.0222 77.4481 76.4183 77.5537 76.79C78.0483 78.3742 78.4263 79.9923 78.6846 81.6314C78.8429 82.7577 78.9013 83.9009 78.9786 85.0404C79.1369 87.3644 79.3669 91.0701 79.6741 93.3791C80.805 93.4298 81.9076 93.1013 83.0291 92.9811C85.1251 92.7596 87.2832 93.2665 89.3358 92.7934C88.8382 90.8354 88.3406 87.4921 87.843 85.536C87.6228 84.7653 87.4702 83.977 87.3869 83.1801C87.3435 82.6075 87.3699 82.0331 87.3774 81.4568C87.3944 80.3304 87.3322 79.2041 87.27 78.0777C87.1984 76.7637 87.1268 75.4496 86.8139 74.1637C86.7921 73.9999 86.715 73.8483 86.5952 73.7338C86.4067 73.5968 86.1617 73.6456 85.9374 73.6756C85.2506 73.7625 84.5555 73.5984 83.981 73.2138C83.7322 73.0449 83.3985 72.8384 83.1667 73.0261C83.0678 73.1393 83.0025 73.2778 82.9782 73.426C82.8756 73.6915 82.7173 73.9322 82.5138 74.132C82.3104 74.3317 82.0664 74.4859 81.7983 74.5842C81.2612 74.778 80.6987 74.893 80.1283 74.9259C79.9538 74.9632 79.7718 74.9428 79.61 74.8677C79.3424 74.7044 79.3235 74.1168 78.9861 74.0774C78.6902 74.0436 78.2265 74.6781 78.0268 74.8677Z" fill="#3F3D56"/>
<path d="M82.4861 79.4519C81.7906 78.7893 81.4853 77.8281 80.9783 77.0115C80.633 76.4624 80.1919 75.9792 79.6759 75.5848C79.4164 75.4142 79.1785 75.2131 78.9672 74.986C78.7881 74.7663 78.6524 74.4735 78.381 74.389C78.2688 74.3647 78.1524 74.3679 78.0418 74.3983C77.9311 74.4287 77.8295 74.4854 77.7458 74.5636C77.5796 74.7213 77.4223 74.888 77.2746 75.0629C76.4754 75.8871 75.0712 76.0016 74.4379 76.9552C74.267 77.1574 74.1509 77.3997 74.1005 77.6592C73.9182 79.0471 74.2785 80.4518 75.107 81.5826C75.2674 81.8447 75.5138 82.0436 75.8044 82.1457C75.765 82.4958 75.8116 82.8501 75.9401 83.1782C76.2891 84.3663 76.7179 85.5297 77.2237 86.6605C77.1028 87.1028 77.0183 87.5542 76.9711 88.0102C76.8392 89.1572 76.9617 90.3211 76.8373 91.47C76.7355 92.4086 76.4603 93.3228 76.4509 94.2633C76.4509 94.4135 76.4641 94.5918 76.5941 94.6688C76.6633 94.7042 76.7408 94.7204 76.8184 94.7157L79.1368 94.7852C80.4826 94.8246 81.8415 94.864 83.1666 94.6162C83.343 94.5902 83.5142 94.5364 83.6736 94.4567C84.1222 94.207 84.2711 93.6438 84.3427 93.1426C84.4363 92.4924 84.4735 91.8355 84.4539 91.179C84.7348 92.0632 85.0684 92.9774 85.9166 93.3604C86.3651 93.5631 86.8778 93.5481 87.3698 93.5349C88.4301 93.4879 89.4867 93.3795 90.5344 93.2102C90.599 93.2182 90.6645 93.211 90.7258 93.1892C90.7871 93.1674 90.8424 93.1316 90.8872 93.0847C90.9321 93.0378 90.9654 92.9811 90.9843 92.9191C91.0032 92.8571 91.0073 92.7916 90.9962 92.7277L91.0075 91.7028C91.0301 89.6209 90.5118 87.631 90.3101 85.5586C90.246 84.9053 90.2517 84.2445 90.0915 83.6044C90.0255 83.3359 89.9294 83.0731 89.8709 82.8028C89.8207 82.5381 89.7892 82.2703 89.7767 82.0012L89.6297 79.9363C89.5599 78.9807 89.46 78.059 89.3865 77.1054C89.3461 76.1768 89.211 75.2547 88.9832 74.3534C88.8192 73.7902 88.4781 73.1519 87.8881 73.0825C87.5733 73.0468 87.268 73.1838 86.9683 73.2796C86.2317 73.5105 85.4411 73.5073 84.7065 73.2702C84.4795 73.1809 84.243 73.1179 84.0016 73.0825C83.88 73.066 83.7563 73.082 83.643 73.1288C83.5297 73.1757 83.431 73.2517 83.3569 73.349C83.2838 73.4957 83.2494 73.6585 83.257 73.8221C83.1685 75.6975 83.0045 77.6291 82.4861 79.4519Z" fill="#3C3C5E"/>
<path d="M79.4534 79.5082C78.5845 78.5958 77.693 77.6666 76.5734 77.0865C76.1323 76.8575 75.631 76.6848 75.1428 76.7712C74.6546 76.8575 74.2004 77.2799 74.223 77.7736C74.2381 78.0796 74.4247 78.3499 74.4831 78.6503C74.5509 78.9882 74.4529 79.3486 74.5585 79.6753C74.6442 79.8905 74.7724 80.0864 74.9354 80.2516L76.2699 81.8266C76.8354 82.4836 77.4008 83.15 78.1284 83.6043C78.8559 84.0586 79.7983 84.2707 80.5975 83.9478C81.1661 83.6846 81.6389 83.2524 81.9508 82.7107C82.2825 82.1851 82.5163 81.6107 82.8273 81.0682C83.3113 80.2013 83.95 79.4296 84.7121 78.7911C84.3201 78.6897 83.8281 78.547 83.5812 78.2279C83.5109 78.1264 83.4509 78.0183 83.4021 77.905L83.0968 77.248C82.9929 77.2426 82.8891 77.2587 82.7918 77.2952C82.6945 77.3317 82.6058 77.3878 82.5313 77.4601C82.4004 77.6109 82.26 77.7532 82.111 77.8862C81.8453 78.0852 81.4853 78.1397 81.244 78.3668C81.1507 78.4643 81.0661 78.5699 80.9914 78.6822C80.809 78.9211 80.5773 79.1183 80.3121 79.2608C80.0468 79.4032 79.7541 79.4876 79.4534 79.5082Z" fill="#3F3D56"/>
<path d="M84.782 75.5831C85.4361 74.3949 85.4059 72.97 85.5925 71.6278C85.6127 71.2724 85.738 70.9308 85.9525 70.646C86.3295 70.2218 86.9948 70.2161 87.564 70.2706C87.7318 70.2893 87.941 70.3682 87.9316 70.5353C87.9184 70.5951 87.889 70.6503 87.8468 70.6948C87.2951 71.404 86.9706 72.2623 86.9157 73.1578C87.2116 73.3624 87.6696 72.9419 87.9542 73.1578C88.1427 73.3154 88.056 73.6271 87.9429 73.8523C87.6803 74.3742 87.4095 74.8923 87.1305 75.4067C86.9078 75.86 86.6174 76.2772 86.2692 76.6438C86.0298 76.8728 85.7489 77.053 85.5058 77.2783C84.9403 77.8058 84.5992 78.551 84.0149 79.0654C83.9655 79.1187 83.8987 79.1526 83.8264 79.1612C83.7521 79.1559 83.682 79.1246 83.6285 79.0729C83.3366 78.8365 83.0945 78.5449 82.916 78.215C82.6936 77.8058 82.7275 77.6856 83.0781 77.3965C83.734 76.8803 84.373 76.3265 84.782 75.5831Z" fill="#BE6F72"/>
<path d="M78.3602 78.7014C78.4733 78.7709 78.6128 78.8497 78.7372 78.7915C78.788 78.7609 78.8312 78.7192 78.8635 78.6695C79.0789 78.3831 79.2587 78.0717 79.3988 77.7421C79.4229 77.6956 79.4364 77.6443 79.4383 77.592C79.4383 77.4718 79.3309 77.3836 79.231 77.3141C78.6957 76.9743 78.1202 76.702 77.5177 76.5032C77.0201 76.3154 76.4999 76.1521 75.9721 76.1991C75.7738 76.2123 75.5803 76.2654 75.4031 76.3551C75.2259 76.4448 75.0688 76.5692 74.9411 76.7209C74.5641 77.2034 75.1956 77.3498 75.5914 77.5244C76.5074 77.9393 77.4988 78.1795 78.3602 78.7014Z" fill="#3C3C5E"/>
<path opacity="0.1" d="M77.7667 81.8926C77.7603 81.9355 77.7641 81.9792 77.7779 82.0203C77.7916 82.0614 77.8149 82.0987 77.8458 82.1292C77.9005 81.8626 77.8289 81.581 77.8854 81.3126C77.9683 80.909 78.3623 80.6048 78.3962 80.1994C77.6743 80.0586 77.7723 81.4571 77.7667 81.8926Z" fill="black"/>
<path opacity="0.2" d="M111 67.2124V69.0615L103.336 69.5252L103.104 67.6742L111 67.2124Z" fill="black"/>
<path d="M77.0464 70.2027C77.5252 69.8141 77.2481 68.9994 77.5723 68.4775C77.7608 68.1922 78.0793 68.042 78.3922 67.9144C78.7698 67.7384 79.1744 67.6267 79.5891 67.584C79.7968 67.5641 80.0063 67.5911 80.2021 67.6629C80.3978 67.7347 80.5749 67.8496 80.72 67.9989C80.8425 68.1378 80.9254 68.3067 81.0404 68.4513C81.1828 68.6199 81.3684 68.747 81.5774 68.819C81.7865 68.8911 82.0113 68.9054 82.2279 68.8605C82.4785 68.8042 82.7387 68.6146 82.7217 68.3593C82.6934 68.204 82.6138 68.0626 82.4955 67.9576L81.9564 67.3625C81.3439 66.6867 80.6634 65.9696 79.7644 65.8006C79.1386 65.6823 78.4978 65.8494 77.8946 66.0503C77.6515 66.131 77.3782 66.2511 77.3103 66.4971C77.2651 66.666 77.3329 66.85 77.2934 67.0208C77.2161 67.3606 76.7788 67.4751 76.5752 67.7604C76.3717 68.0458 76.4339 68.3837 76.3754 68.6991C76.317 69.0144 76.1474 69.3223 76.1266 69.6489C76.1134 69.8461 76.2133 70.2121 76.4358 70.2834C76.6582 70.3548 76.9088 69.9681 77.0464 70.2027Z" fill="#3F3D56"/>
<path d="M82.5388 68.0892C82.3799 67.2633 82.0373 66.4833 81.5361 65.8065C81.0905 65.1741 80.4705 64.6838 79.7512 64.3948C79.3916 64.2549 79.0048 64.1979 78.6199 64.2281C78.2351 64.2583 77.8621 64.375 77.5289 64.5694C77.0344 64.921 76.6496 65.4044 76.4188 65.9642C75.9306 67.0117 75.7496 68.292 76.317 69.2981C76.5432 69.0241 76.9314 69.148 77.2745 69.0485C77.7042 68.9265 78.068 68.6411 78.477 68.4628C79.7116 67.9203 81.2195 68.3595 82.5388 68.0892Z" fill="#FED253"/>
<path opacity="0.1" d="M76.6055 68.0308C76.5622 67.6929 76.5339 67.3006 76.7751 67.0603C76.7871 67.0456 76.8024 67.0338 76.8198 67.026C76.8371 67.0182 76.856 67.0145 76.875 67.0152C76.8919 67.0207 76.9074 67.0295 76.9207 67.0411C76.934 67.0527 76.9447 67.0669 76.9523 67.0828C77.0916 67.3017 77.2102 67.533 77.3067 67.7736C77.1662 67.7414 77.0192 67.7519 76.8848 67.8038C76.7504 67.8556 76.6347 67.9465 76.5527 68.0646" fill="black"/>
<path opacity="0.1" d="M81.0105 67.0772L80.9426 66.407C80.9317 66.3518 80.9362 66.2946 80.9558 66.2418C80.9842 66.1976 81.0281 66.1655 81.0789 66.1516C81.1297 66.1377 81.1839 66.1431 81.231 66.1667C81.3237 66.2179 81.4001 66.294 81.4515 66.3864C81.6084 66.6262 81.7386 66.8824 81.8398 67.1504C81.5362 67.0921 81.2239 67.096 80.9219 67.1616" fill="black"/>
<path opacity="0.1" d="M82.6972 94.2764V95.8082L81.3985 95.8945H74.5679V94.2764H82.6972Z" fill="black"/>
<path d="M82.6972 94.2768V95.8949H74.5679L52.9714 68.951V67.6782H57.4988L82.6972 94.2768Z" fill="#F1C0C0"/>
<path opacity="0.1" d="M82.6972 94.2768V95.8949H74.5679L52.9714 68.951V67.6782H57.4988L82.6972 94.2768Z" fill="black"/>
<path opacity="0.1" d="M82.6972 94.2768V95.8949H74.5679L52.9714 68.951V67.6782L74.6848 94.2768H82.6972Z" fill="black"/>
<path d="M55.8026 121.283C55.8168 121.359 55.8151 121.437 55.7976 121.512C55.78 121.588 55.7471 121.659 55.7007 121.721C55.6544 121.783 55.5957 121.835 55.5282 121.874C55.4608 121.912 55.3861 121.937 55.3088 121.945C54.7848 122.122 54.2288 122.296 53.8575 122.696C53.4861 123.096 53.4126 123.837 53.8575 124.162C54.0848 124.299 54.3459 124.37 54.6114 124.367C55.4652 124.425 56.3549 124.414 57.1295 124.053C57.6837 123.798 58.2058 123.362 58.8146 123.402C59.1293 123.421 59.4648 123.567 59.7457 123.424C60.0265 123.282 60.1057 122.884 60.1076 122.552C60.1147 121.858 60.0097 121.168 59.7966 120.507C59.7683 120.417 58.5695 120.348 58.4263 120.319L56.9731 120.132C56.6979 120.096 56.1042 119.89 55.8874 120.119C55.6707 120.348 55.8026 121.01 55.8026 121.283Z" fill="#3C3C5E"/>
<path d="M64.4747 116.597C64.5362 116.935 64.6361 117.265 64.7725 117.58C64.9742 118.091 65.2324 118.634 65.7262 118.881C66.1748 119.105 66.7252 119.024 67.1813 118.812C67.3717 118.733 67.5385 118.607 67.6657 118.446C67.8129 118.19 67.8786 117.896 67.8542 117.603C67.8542 116.876 67.8109 116.126 67.4773 115.48C67.1908 114.917 66.6913 114.432 66.6837 113.809L64.9667 114.139C64.8747 114.148 64.7872 114.183 64.7141 114.239C64.6597 114.296 64.6219 114.367 64.6048 114.444C64.4214 115.146 64.3773 115.877 64.4747 116.597Z" fill="#3C3C5E"/>
<path d="M43.9694 98.7634C43.8978 99.3679 43.928 100.016 44.2446 100.537C44.5613 101.059 45.2285 101.405 45.8053 101.196C45.8348 101.189 45.8625 101.175 45.8868 101.157C45.9111 101.139 45.9314 101.116 45.9466 101.089C45.962 101.026 45.9532 100.959 45.9221 100.902C45.6675 100.225 45.6885 99.4757 45.9805 98.8141C46.0182 98.7277 46.0993 98.6264 46.1879 98.6601C46.2249 98.6788 46.2548 98.7092 46.2727 98.7465C46.3639 98.9037 46.4096 99.0831 46.4046 99.2646C46.378 99.4291 46.373 99.5963 46.3896 99.7621C46.4254 99.9235 46.5988 100.076 46.7496 100.006C46.7932 99.9795 46.8308 99.9442 46.8603 99.9026C46.8898 99.861 46.9105 99.8138 46.9211 99.764C47.3414 98.5531 47.151 97.2297 46.9588 95.9626C46.9604 95.9335 46.9556 95.9044 46.9446 95.8773C46.9337 95.8503 46.917 95.826 46.8956 95.8061C46.8742 95.7862 46.8487 95.7713 46.8208 95.7623C46.793 95.7533 46.7635 95.7506 46.7345 95.7542C45.8448 95.666 45.3586 95.4538 44.8496 96.2779C44.4124 96.9725 43.9694 97.928 43.9694 98.7634Z" fill="#3C3C5E"/>
<path d="M54.3701 95.6826C54.1062 96.7752 53.8404 97.8809 53.8235 99.0035C53.8281 99.7027 53.881 100.401 53.9818 101.093L54.1797 102.718C54.2476 103.267 54.3135 103.813 54.4097 104.355C54.471 104.635 54.5045 104.92 54.5096 105.206C54.4911 105.488 54.4463 105.767 54.3757 106.041C54.2572 106.616 54.191 107.2 54.1778 107.787C54.1571 108.726 54.274 109.664 54.3475 110.603C54.4942 112.473 54.4721 114.353 54.2815 116.22C54.2054 116.723 54.3152 117.238 54.5906 117.667C54.7024 117.802 54.7944 117.953 54.8639 118.114C55.0053 118.544 54.6754 118.973 54.5906 119.415C54.5364 119.759 54.6214 120.11 54.8271 120.392C55.0328 120.673 55.3423 120.862 55.6876 120.916C57.1955 121.095 58.7448 121.014 60.1038 121.701C60.247 121.284 59.9341 120.811 60.0774 120.387C60.1679 120.124 60.4167 119.953 60.5863 119.732C60.8142 119.394 60.9278 118.993 60.9105 118.587C60.9171 118.056 60.8225 117.529 60.6315 117.034C60.4713 116.621 60.2414 116.214 60.2546 115.771C60.2546 115.553 60.3318 115.324 60.2432 115.123C60.1825 115.008 60.0999 114.905 60.0001 114.821C59.4368 114.206 59.0906 113.425 59.0143 112.597C58.9408 111.774 58.9674 110.946 59.0935 110.13C59.1858 109.353 59.3103 108.532 59.806 107.926C59.5761 106.087 59.7112 104.222 60.2037 102.435C60.2527 102.27 60.33 102.078 60.4996 102.039C60.567 102.032 60.635 102.041 60.698 102.066C60.761 102.091 60.8171 102.131 60.8615 102.182C61.1574 102.458 61.2988 102.857 61.4269 103.24C61.5683 103.655 61.7115 104.098 61.6041 104.523C61.5589 104.71 61.4684 104.875 61.4156 105.056C61.3009 105.418 61.321 105.809 61.4722 106.158C61.5458 106.285 61.592 106.426 61.6079 106.572C61.5904 106.698 61.5522 106.82 61.4948 106.933C61.4249 107.155 61.4027 107.389 61.4296 107.621C61.4566 107.852 61.5321 108.075 61.6512 108.275C61.8915 108.674 62.1879 109.036 62.5314 109.351C62.3673 110.071 62.4097 110.823 62.654 111.521C62.6716 111.552 62.6828 111.587 62.687 111.623C62.6912 111.658 62.6883 111.695 62.6785 111.729C62.6445 111.801 62.5578 111.827 62.49 111.878C62.3015 112.031 62.4184 112.322 62.5446 112.523C62.8907 113.075 63.2729 113.603 63.6887 114.104C64.0657 114.553 64.0318 115.418 64.5935 115.579C64.8295 115.63 65.0737 115.63 65.3097 115.579C65.8638 115.495 66.4821 115.335 66.7535 114.847C66.8647 114.646 66.9099 114.402 67.0833 114.252C67.2567 114.102 67.481 114.076 67.5772 113.896C67.6733 113.715 67.5658 113.479 67.5979 113.27C67.6299 113.062 67.8128 112.895 67.8712 112.675C68.0107 112.168 67.4169 111.752 67.3359 111.234C67.219 110.483 68.169 109.92 68.1294 109.169C68.0465 107.537 67.9937 105.899 67.9089 104.267C67.8024 102.806 67.7873 101.339 67.8637 99.8764C67.9296 98.9659 68.0521 98.0123 67.7166 97.1656C67.2341 95.9717 65.9034 95.3015 64.6161 95.1739C63.3287 95.0462 62.0452 95.3504 60.7691 95.5493C58.6513 95.8744 56.4997 95.9192 54.3701 95.6826Z" fill="#3F3D56"/>
<path d="M58.1963 77.7402C59.8639 77.7402 61.2158 76.3938 61.2158 74.7329C61.2158 73.072 59.8639 71.7256 58.1963 71.7256C56.5286 71.7256 55.1768 73.072 55.1768 74.7329C55.1768 76.3938 56.5286 77.7402 58.1963 77.7402Z" fill="#FBBEBE"/>
<path d="M56.9673 78.3014C56.8647 78.5393 56.6923 78.7407 56.4726 78.8791C56.2529 79.0175 55.9963 79.0864 55.7365 79.0767C55.6272 79.5273 55.8892 79.9816 56.1889 80.3364C56.8112 81.0576 57.6154 81.6005 58.5185 81.909C59.4217 82.2175 60.3912 82.2806 61.3269 82.0916C61.6911 82.0266 62.0366 81.8831 62.3391 81.6711C62.7469 81.3319 63.0208 80.8596 63.1119 80.3382C63.1986 79.8205 63.2233 79.2943 63.1854 78.7707C63.196 78.6673 63.1663 78.5639 63.1025 78.4816C63.0271 78.4235 62.9339 78.393 62.8386 78.3953C62.2015 78.339 61.5362 78.3146 60.9764 78.0029C60.4166 77.6913 60.0189 76.9874 60.2884 76.4092C60.245 76.4993 59.1443 76.5425 58.9992 76.5612C58.5449 76.6251 58.0907 76.6964 57.6383 76.779C57.4209 76.7909 57.2061 76.8313 56.9994 76.8991C56.726 77.0399 56.8278 76.9705 56.8919 77.2258C56.988 77.6162 57.1294 77.8959 56.9673 78.3014Z" fill="#FBBEBE"/>
<path d="M59.265 80.1298C58.8584 80.1344 58.4527 80.0897 58.0569 79.9965C57.6572 79.9035 57.305 79.6694 57.0654 79.3376C56.926 79.1273 56.8355 78.8626 56.6131 78.7444C56.2493 78.5567 55.8346 78.8739 55.5444 79.1649C55.2801 79.4518 54.9738 79.6974 54.6359 79.8932C54.2325 80.1054 53.7613 80.1805 53.3806 80.4301C53.0831 80.654 52.8279 80.9285 52.6266 81.2411L49.9558 84.8642C48.8834 86.3209 47.9504 87.8846 46.9948 89.4221C46.1673 90.753 45.7338 92.2849 45.1099 93.721C45.0605 93.8088 45.0401 93.91 45.0515 94.01C45.0741 94.1077 45.1929 94.1865 45.2758 94.1302C44.9949 94.408 45.2419 94.8811 45.1759 95.2715C45.1009 95.5448 44.9445 95.7889 44.7273 95.9718C45.1422 95.9179 45.5633 95.9376 45.9713 96.0299C46.3929 96.149 46.7908 96.3395 47.1474 96.5931C47.3755 96.5574 47.3548 96.1538 47.5244 96.0037C47.6262 95.9154 47.777 95.9267 47.9108 95.9004C48.414 95.8028 48.6138 95.2002 49.0002 94.8604C49.3225 94.577 49.7787 94.485 50.1198 94.2184C50.674 93.7848 50.7927 93.0132 51.083 92.3731C51.3299 91.8306 51.7182 91.3575 51.9349 90.8019C52.0763 90.4414 52.1441 90.051 52.3458 89.7187C52.6681 89.1818 53.275 88.8965 53.8537 88.6393C54.2193 88.476 54.6076 88.307 55.0015 88.3333C54.9808 89.2062 54.8696 90.066 55.06 90.9182C55.1259 91.2186 55.2183 91.5114 55.2975 91.8099C55.6575 93.154 55.7423 94.5544 55.7593 95.9398C56.6252 95.7425 57.5097 95.6368 58.398 95.6245C59.0973 95.6038 59.7947 95.6939 60.494 95.6808C61.3233 95.6658 62.1432 95.5062 62.9725 95.4499C63.8019 95.3936 64.6689 95.4499 65.4021 95.8253C65.3426 94.6356 65.3759 93.4431 65.502 92.2586L65.7018 90.3926C65.7469 89.8505 65.8306 89.3122 65.9525 88.7819C66.0618 88.3539 66.2201 87.9409 66.3407 87.5148C66.7648 86.013 66.6875 84.4099 66.6065 82.8461C66.565 82.0427 66.254 81.2524 65.8884 80.5371C65.756 80.2715 65.6049 80.0155 65.436 79.7712C64.9942 79.1649 64.4053 78.6799 63.7243 78.3615C63.0434 78.043 62.2926 77.9016 61.5419 77.9503C61.4461 77.9532 61.3515 77.9736 61.263 78.0104C61.1039 78.1118 60.9796 78.2592 60.9067 78.4328C60.5168 79.1308 59.951 79.7157 59.265 80.1298Z" fill="#3F3D56"/>
<path d="M55.5405 75.7297C55.6253 75.542 55.8534 75.4725 55.9928 75.3224C56.2605 75.037 56.1399 74.5809 56.1813 74.196C56.2492 73.6329 56.7185 73.1617 57.2557 72.9608C57.8035 72.7857 58.3864 72.7489 58.952 72.8538C59.2243 72.8736 59.4873 72.9607 59.7173 73.1072C59.8153 73.1786 59.9058 73.2705 59.9981 73.3363C60.1665 73.4376 60.3679 73.4694 60.5595 73.4248C60.7511 73.3803 60.9176 73.263 61.0235 73.0978C60.3563 72.2981 59.6174 71.4534 58.6034 71.2075C58.2555 71.1367 57.901 71.1034 57.546 71.108C57.0766 71.0986 56.5922 71.0911 56.1587 71.2694C55.5688 71.5116 55.1541 72.0691 54.9411 72.6698C54.7548 73.2787 54.6552 73.9106 54.6452 74.5471C54.6066 74.9717 54.6066 75.399 54.6452 75.8236C54.7181 76.4035 54.9344 76.9563 55.2747 77.4324C55.3207 77.5063 55.3858 77.5666 55.4632 77.607C56.3227 77.9824 55.4707 75.8855 55.5405 75.7297Z" fill="#3F3D56"/>
<path d="M60.9256 72.634C60.8219 71.7498 60.1886 71.0196 59.5157 70.432C58.9734 69.9225 58.3274 69.5352 57.6215 69.2963C56.9109 69.0879 56.0929 69.1329 55.4841 69.5553C54.994 69.8951 54.683 70.4357 54.4436 70.9801C54.1292 71.6226 53.9734 72.3306 53.9894 73.0451C54.0365 73.7547 54.3833 74.4737 55.0016 74.8322C55.224 74.5056 55.6104 74.3366 55.9817 74.2034C57.6 73.5918 59.2504 73.0679 60.9256 72.634Z" fill="#FED253"/>
<path opacity="0.1" d="M55.2089 72.2662C55.2692 72.2662 55.3088 72.3282 55.339 72.3788C55.4924 72.617 55.6243 72.8683 55.7329 73.1297C55.5124 73.1767 55.1335 73.2292 55.0242 73.0359C54.9658 72.9383 55.0355 72.2568 55.2089 72.2662Z" fill="black"/>
<path opacity="0.1" d="M59.5045 71.8415C59.4592 71.8847 59.4064 71.7965 59.4064 71.7326V71.0043C59.4052 70.984 59.4098 70.9638 59.4196 70.9461C59.4275 70.9372 59.437 70.9299 59.4477 70.9248C59.4584 70.9196 59.47 70.9166 59.4818 70.916C59.6345 70.8991 59.7608 71.0287 59.8588 71.1526C60.0075 71.3534 60.1369 71.5677 60.2452 71.7927L59.4479 71.7683" fill="black"/>
<path d="M69.4545 83.9031C69.6279 83.7391 69.8131 83.5879 70.0086 83.4507C70.5307 83.1034 71.1621 82.9664 71.7483 82.7449C72.3345 82.5233 72.9301 82.1648 73.1582 81.5828C73.2724 81.2189 73.3096 80.8354 73.2675 80.4565C73.273 80.2978 73.2447 80.1398 73.1846 79.9928C73.1128 79.8629 73.0107 79.7521 72.8868 79.6699C72.0914 79.0842 71.0246 79.0373 70.0369 79.0974C67.8594 79.2319 65.7251 79.7625 63.7397 80.663C63.6347 80.6976 63.5426 80.763 63.4758 80.8507C63.4371 80.9321 63.4196 81.0218 63.4249 81.1117C63.3898 81.6653 63.4621 82.2204 63.6379 82.7467C63.898 83.415 64.4333 83.9538 64.6576 84.6352C64.7594 84.9412 64.7933 85.266 64.8819 85.5738C64.9545 85.8918 65.1433 86.1715 65.4115 86.3585C66.156 86.8016 66.8591 86.2065 67.3755 85.7447L69.4545 83.9031Z" fill="#3F3D56"/>
<path d="M59.7042 86.5029L58.7486 84.4267C58.6085 84.139 58.4876 83.8424 58.3867 83.5388C58.2774 83.1765 58.2246 82.801 58.1228 82.4369C57.7873 81.2242 56.941 80.2142 56.5283 79.0259C56.5022 78.9186 56.449 78.8198 56.3737 78.7387C56.3135 78.6963 56.2446 78.6675 56.1719 78.6546C56.0993 78.6416 56.0247 78.6447 55.9534 78.6636C55.3766 78.7631 54.9261 79.2005 54.3984 79.4483C54.1534 79.5609 53.8895 79.636 53.6445 79.7655C53.522 79.8233 53.4134 79.9067 53.3263 80.0101C53.2391 80.1134 53.1753 80.2343 53.1393 80.3644C53.0809 80.6516 53.2241 80.9276 53.3448 81.2073C53.8574 82.3599 53.9743 83.6477 53.9969 84.9092C54.0139 85.7577 53.9705 86.6681 53.4673 87.3496C52.5004 88.6636 53.1186 90.5934 53.4805 92.1835C53.5238 92.3712 53.5747 92.5739 53.6049 92.7729C53.6368 93.0219 53.6513 93.2728 53.6482 93.5238C53.6482 94.3667 53.6011 95.2358 53.2468 95.9999C53.5966 96.1853 53.9822 96.2941 54.3777 96.319C55.4721 96.4579 56.571 96.5555 57.6742 96.6118C58.0199 96.6442 58.3685 96.6265 58.709 96.5593C59.1135 96.4504 59.4699 96.2105 59.7222 95.8773C59.9744 95.5442 60.108 95.1368 60.1019 94.7196C60.1622 95.2396 60.2734 95.8046 60.6523 96.1651C61.0311 96.5255 61.5834 96.5799 62.098 96.6081C63.5502 96.6848 65.0063 96.644 66.4519 96.4861C66.5442 96.4819 66.6349 96.4609 66.7196 96.4241C66.9985 96.2852 67.0136 95.9023 66.991 95.5944C66.9495 95.0181 66.9062 94.4418 66.8364 93.8692C66.7773 93.5042 66.7471 93.1351 66.746 92.7654C66.7747 92.3851 66.8378 92.0081 66.9344 91.6391C67.187 90.4677 67.3868 89.2719 67.302 88.0723C67.2685 87.7801 67.2565 87.4858 67.2662 87.1919C67.3152 86.5292 67.6658 85.8985 67.5998 85.2396C67.4113 83.3023 67.2586 81.3143 66.7158 79.4445C66.6178 79.1104 66.4934 78.7518 66.2012 78.5604C65.8243 78.3088 65.2946 78.4402 64.863 78.2807C64.6605 78.1868 64.4679 78.073 64.2881 77.9409C63.8976 77.6976 63.4498 77.5604 62.9895 77.5429C62.6427 77.5298 62.2563 77.6067 62.0471 77.8846C61.9502 78.041 61.8861 78.2153 61.8586 78.397C61.5853 79.5422 61.2649 80.6741 60.9444 81.8061L60.6372 82.8911L59.8135 85.8046C59.7325 86.1144 59.7871 86.2101 59.7042 86.5029Z" fill="#3C3C5E"/>
<path d="M64.5237 75.1362L82.7557 94.2183V95.8365H74.6264L60.9255 78.0272" fill="#F1C0C0"/>
<path opacity="0.1" d="M64.5237 75.1362L82.7557 94.2183V95.8365H74.6264L60.9255 78.0272" fill="black"/>
<path opacity="0.1" d="M61.2158 77.7759L61.2742 77.7965L74.7433 94.2186H82.7557V95.8368H74.6264L60.9255 78.0274L61.2158 77.7759Z" fill="black"/>
<path d="M63.3135 78.1776C62.6538 78.4648 61.9206 78.8327 61.7227 79.5235C61.6836 79.6448 61.6752 79.7737 61.6982 79.899C61.7464 80.0463 61.8383 80.1755 61.9618 80.2697C62.0853 80.3639 62.2346 80.4186 62.3899 80.4265C62.7003 80.434 63.0089 80.3778 63.2965 80.2613L67.1887 78.981C67.2943 78.9472 67.4149 78.8965 67.4413 78.7933C67.4481 78.7284 67.4349 78.6629 67.4036 78.6056C67.283 78.3127 67.1642 77.7139 66.9117 77.5093C66.7043 77.3441 66.2934 77.4023 66.0428 77.406C65.0777 77.4135 64.1711 77.8021 63.3135 78.1776Z" fill="#3C3C5E"/>
<path d="M66.7836 79.133C67.4393 79.1311 68.0913 79.2318 68.7156 79.4315C69.3427 79.6343 69.8981 80.0122 70.3158 80.5203C70.4374 80.6623 70.5239 80.8308 70.5684 81.0121C70.6061 81.1998 71.2205 81.3125 71.0848 81.4401C71.4976 81.3744 71.3996 81.5678 71.818 81.564C72.2364 81.5603 72.6888 81.4533 72.9395 81.121C73.1137 80.848 73.1913 80.5249 73.16 80.203C73.1655 79.9802 73.1231 79.7587 73.0356 79.5535C72.8471 79.1593 72.4136 78.9472 72.014 78.7651L68.6477 77.2314C68.4524 77.1279 68.2428 77.0539 68.0257 77.0117C67.843 76.9945 67.6589 76.999 67.4772 77.0249L65.9524 77.1995C66.2859 77.4144 66.5574 77.7121 66.7401 78.0634C66.9229 78.4146 67.0106 78.8072 66.9947 79.2025" fill="#3F3D56"/>
</g>
<defs>
<clipPath id="clip0_291_2284">
<rect width="222" height="136" fill="white"/>
</clipPath>
</defs>
</svg>
