<svg width="150" height="150" viewBox="0 0 150 150" fill="none" xmlns="http://www.w3.org/2000/svg">
<path d="M131.25 77.65V68.75C131.25 53.8316 125.324 39.5242 114.775 28.9752C104.226 18.4263 89.9183 12.5 74.9999 12.5C60.0815 12.5 45.774 18.4263 35.2251 28.9752C24.6762 39.5242 18.7499 53.8316 18.7499 68.75V77.65C12.1946 80.5365 6.82988 85.5872 3.55376 91.9567C0.277641 98.3261 -0.710995 105.628 0.753359 112.639C2.21771 119.65 6.04617 125.946 11.5978 130.472C17.1495 134.997 24.0873 137.479 31.2499 137.5C34.5651 137.5 37.7445 136.183 40.0887 133.839C42.4329 131.495 43.7499 128.315 43.7499 125V87.5C43.7499 84.1848 42.4329 81.0054 40.0887 78.6612C37.7445 76.317 34.5651 75 31.2499 75V68.75C31.2499 57.1468 35.8592 46.0188 44.064 37.8141C52.2687 29.6094 63.3967 25 74.9999 25C86.6031 25 97.7311 29.6094 105.936 37.8141C114.141 46.0188 118.75 57.1468 118.75 68.75V75C115.435 75 112.255 76.317 109.911 78.6612C107.567 81.0054 106.25 84.1848 106.25 87.5V125C106.25 128.315 107.567 131.495 109.911 133.839C112.255 136.183 115.435 137.5 118.75 137.5C125.912 137.479 132.85 134.997 138.402 130.472C143.954 125.946 147.782 119.65 149.246 112.639C150.711 105.628 149.722 98.3261 146.446 91.9567C143.17 85.5872 137.805 80.5365 131.25 77.65Z" fill="#474463"/>
</svg>
