<svg width="141" height="60" viewBox="0 0 141 60" fill="none" xmlns="http://www.w3.org/2000/svg">
<g filter="url(#filter0_d_291_2372)">
<rect x="9" y="9" width="119" height="38" rx="19" fill="#898AC4" stroke="#898AC4" stroke-width="3"/>
<path d="M51.2999 21.3895C51.2999 20.8855 51.6059 20.6155 52.1819 20.6515C52.9559 20.6695 54.5039 20.6695 55.9259 20.6695C57.1139 20.6695 58.1939 20.6695 58.7519 20.6335C59.1839 20.6515 59.6699 20.8675 59.6699 21.2815C59.6699 21.7495 59.3819 22.0195 58.9139 22.0555C58.3379 22.0915 57.4739 22.0915 56.6099 22.0915C55.5119 22.0915 54.3059 22.0915 52.9739 22.0735C52.9559 22.3795 52.9559 22.9195 52.9559 23.2795L52.9739 24.4315C52.9559 24.7735 53.0099 24.8095 53.1359 24.8095C54.1619 24.8455 54.8819 24.8635 56.5739 24.8275C57.4199 24.8095 58.3019 24.7555 59.1479 24.7375C59.7599 24.7195 60.1199 24.9355 60.1199 25.4215C60.1199 25.8355 59.8859 26.0515 59.4179 26.1055C58.4999 26.1955 57.3839 26.2495 56.2859 26.2495V27.1135C56.2859 27.6895 56.2679 27.8875 56.2679 28.1755C57.9419 28.1935 59.8139 28.1755 61.3079 28.1575C61.7939 28.1575 62.0819 28.4095 62.0819 28.8595C62.0819 29.3455 61.8839 29.4895 61.5239 29.5795C61.3259 29.6335 60.3179 29.5975 60.3179 29.5975C58.9319 29.5615 57.7079 29.5615 56.3579 29.5615C55.2059 29.5615 54.0539 29.5795 52.9199 29.5795C51.7859 29.5795 50.6699 29.6155 49.5539 29.6155C49.1579 29.6155 48.8159 29.3815 48.8159 28.8775C48.8159 28.5175 49.0859 28.2835 49.4279 28.1935C49.6799 28.1215 50.2019 28.1395 50.4539 28.1395C51.5879 28.1575 53.0819 28.1935 54.6479 28.1755V26.2495C53.7479 26.2495 53.0819 26.2135 52.3619 26.1775C51.2819 26.1235 51.2639 25.6555 51.2639 24.9715C51.2459 24.5575 51.2639 23.9095 51.2639 23.5675C51.2639 22.6315 51.2819 21.6415 51.2999 21.3895ZM55.4039 30.7675C57.6179 30.7135 59.9039 31.3435 59.9579 33.9175C60.0119 36.6175 57.4199 37.0675 55.4039 37.0675C53.1179 37.0675 51.3179 36.2395 51.3179 33.8995C51.3179 31.5415 53.5679 30.8215 55.4039 30.7675ZM55.4939 32.1535C54.2519 32.1895 53.0459 32.6035 53.0099 33.8995C52.9919 35.3395 54.2879 35.6815 55.4399 35.6815C56.7539 35.6815 58.2659 35.4835 58.3019 33.9175C58.3379 32.4955 56.6999 32.1175 55.4939 32.1535ZM67.0055 24.3775C69.0215 24.3415 70.2995 25.3675 70.2995 27.2755C70.2995 29.4715 68.7695 30.2635 67.0775 30.2635C65.0795 30.2635 63.8735 29.1115 63.8735 27.2575C63.8735 25.4755 65.2235 24.4135 67.0055 24.3775ZM72.6215 35.7715C72.5855 33.2515 72.6395 29.4895 72.6215 26.9695C72.6035 24.1255 72.6035 22.7215 72.5315 21.1015C72.5135 20.5975 72.8195 20.3095 73.2155 20.2555C73.6115 20.2015 74.1515 20.5435 74.1515 20.9755C74.1515 22.2895 74.1695 23.0815 74.1875 23.9995V26.7175C75.0515 26.7355 75.7715 26.7175 76.1855 26.7175C76.7075 26.7175 77.0315 27.0955 77.0135 27.4735C76.9775 27.8155 76.7075 28.1215 76.2215 28.1575C75.8615 28.1755 75.3755 28.1755 75.0335 28.1755C74.6555 28.1755 74.5835 28.1755 74.2055 28.1575C74.2055 30.0655 74.2055 33.2515 74.2235 35.1955C74.2235 35.4655 74.2235 35.8615 74.1875 36.0595C74.0975 36.4735 73.7555 36.6175 73.3955 36.6175C72.9455 36.6175 72.6215 36.3475 72.6215 35.7715ZM67.1675 30.7675C67.5455 30.7675 67.9235 31.0195 67.9235 31.4875V32.7295C69.0395 32.6755 69.9935 32.5855 71.1275 32.3875C71.4875 32.3335 71.9915 32.4055 72.0275 32.9275C72.0635 33.4675 71.6675 33.6115 71.3075 33.6835C69.7055 33.9895 68.5175 34.0615 67.2395 34.1155C65.8715 34.1695 64.0715 34.1515 63.4415 34.1335C63.0995 34.1155 62.6675 34.0075 62.6675 33.4495C62.6675 32.9635 62.9015 32.7655 63.2615 32.7655H65.8895H66.3215C66.3215 32.4415 66.3215 32.1715 66.3395 31.5595C66.3395 31.0375 66.7355 30.7675 67.1675 30.7675ZM63.7115 23.7655C63.1895 23.7655 62.9375 23.5135 62.9375 23.0815C62.9375 22.6855 63.1535 22.4335 63.8195 22.4335H66.2495C67.7435 22.4335 69.1655 22.4335 70.4435 22.4875C70.8215 22.5055 71.1635 22.7035 71.1635 23.1175C71.1635 23.6395 70.8215 23.8015 70.4255 23.8015L68.3915 23.7835C67.4735 23.7655 67.2935 23.7655 65.7995 23.7655C65.0435 23.7655 64.3415 23.7475 63.7115 23.7655ZM67.0055 25.7275C65.9975 25.7635 65.4215 26.3935 65.4215 27.2575C65.4215 28.4455 66.0695 28.9495 67.0775 28.9495C68.2655 28.9495 68.7695 28.3555 68.7695 27.2755C68.7695 26.2855 68.1395 25.6915 67.0055 25.7275ZM65.3315 21.4615C64.8815 21.3715 64.6655 21.1375 64.6835 20.6875C64.7015 20.2195 65.1875 20.0035 65.6015 20.0935C66.4475 20.2735 67.0415 20.3095 67.8335 20.3275H68.6255C69.0215 20.3275 69.2915 20.5255 69.2915 20.9395C69.2915 21.4795 68.9855 21.6595 68.6075 21.6595C68.3555 21.6595 67.9775 21.6775 67.7255 21.6775C66.8615 21.6775 66.2675 21.6415 65.3315 21.4615ZM89.6936 30.7495C92.1236 30.7315 94.2476 31.4155 94.2656 33.9715C94.2836 36.1855 92.5196 37.0495 89.6936 37.0855C87.4256 37.1215 85.6076 36.0955 85.6076 33.9535C85.6076 31.7935 87.7136 30.7675 89.6936 30.7495ZM89.8376 21.2815C89.8196 20.8135 90.1796 20.5075 90.5936 20.5075C90.9716 20.5075 91.3316 20.7415 91.3856 21.1735C91.4036 21.3715 91.4036 21.5515 91.4036 21.8755C91.4036 22.0375 91.4216 22.2715 91.4216 22.5595V24.0535V24.3775H92.2136H92.9516C92.9336 23.2975 92.9156 22.2715 92.8796 21.1375C92.8616 20.6695 93.1316 20.3095 93.6896 20.3095C94.0856 20.3095 94.3916 20.5255 94.4636 20.9395C94.4816 21.0835 94.4816 22.0735 94.4816 22.3615C94.4816 22.5775 94.4636 23.9815 94.4636 25.8895C94.4636 27.6175 94.4816 27.9775 94.4636 29.5975C94.4456 30.1195 94.0496 30.4435 93.6536 30.4255C93.2576 30.3895 92.9336 30.0655 92.9156 29.5795C92.9336 28.4455 92.9516 27.0235 92.9516 25.7995H92.1236H91.4216C91.4036 26.8615 91.3856 27.9775 91.3856 29.0035C91.3676 29.4715 91.0616 29.8495 90.7016 29.8675C90.1976 29.8855 89.8556 29.6155 89.8736 28.9675C89.9456 27.2215 89.9096 25.3855 89.9096 24.2155C89.9096 23.0635 89.8916 22.6495 89.8376 21.2815ZM83.2676 29.3815C82.9076 29.6515 82.4216 29.8315 82.1516 29.3635C81.9176 28.9495 82.1336 28.6795 82.3856 28.4095C83.9696 26.8075 84.9056 24.9175 85.1396 22.9195C85.1936 22.5595 85.2116 22.3255 85.2116 21.6955C85.2116 21.1015 85.6616 20.9035 86.0396 20.9035C86.4896 20.9035 86.8856 21.1195 86.8856 21.7135C86.8856 22.7395 86.7956 23.3695 86.6696 23.9275C86.6156 24.1615 86.5616 24.3775 86.4896 24.5935C87.3356 26.0515 88.1996 27.0415 88.9556 27.9415C89.2076 28.2475 89.3336 28.7695 89.0636 29.0395C88.7036 29.3815 88.3256 29.2015 87.8576 28.7515C87.4616 28.3555 86.5616 27.3115 85.7696 26.2855C85.0136 27.7075 83.9876 28.8415 83.2676 29.3815ZM89.7836 32.1895C88.5236 32.2075 87.3356 32.7115 87.2996 33.9535C87.2636 35.3035 88.5956 35.6995 89.7296 35.6995C90.9896 35.6995 92.6096 35.4835 92.6456 33.9715C92.6636 32.4595 91.0616 32.1535 89.7836 32.1895ZM103.424 30.4795C105.854 30.4615 108.014 31.2355 108.032 33.8455C108.05 36.0775 106.25 37.0495 103.424 37.0855C101.138 37.1035 99.2841 35.9875 99.2841 33.8095C99.2841 31.6315 101.426 30.4975 103.424 30.4795ZM97.6101 29.4535C97.2861 29.6875 96.7821 29.7955 96.4941 29.3275C96.2601 28.9495 96.4941 28.5355 96.8001 28.2835C98.5641 26.7175 99.7881 24.7375 100.04 22.8475C100.094 22.4875 100.112 22.1275 100.112 21.4975C100.112 20.8495 100.526 20.7055 100.904 20.7055C101.354 20.7055 101.75 20.8675 101.75 21.5155V22.1275C101.75 22.9015 101.624 23.6575 101.39 24.3595C102.398 25.9075 103.37 26.9695 104.27 27.8515C104.54 28.1395 104.756 28.7155 104.432 29.0215C104.09 29.3275 103.712 29.2735 103.208 28.8595C102.704 28.4455 101.57 27.1855 100.67 26.0515C99.8061 27.5995 98.5821 28.8055 97.6101 29.4535ZM106.268 20.9755C106.268 20.4715 106.718 20.2195 107.114 20.2195C107.492 20.2195 107.87 20.4355 107.942 20.8855V25.0075C107.942 26.5555 107.96 28.2475 107.942 29.5435C107.942 30.0475 107.51 30.4075 107.114 30.4075C106.718 30.4075 106.304 30.0655 106.322 29.5255C106.358 28.3735 106.358 26.6995 106.358 25.4215H105.098C104.81 25.4215 104.504 25.4215 104.342 25.4035C103.91 25.3675 103.568 25.1335 103.568 24.6295C103.568 24.1435 103.91 23.8735 104.378 23.9095C104.558 23.9275 104.846 23.9275 105.152 23.9275H106.358C106.34 22.9555 106.304 22.0735 106.268 20.9755ZM103.514 31.9735C102.236 31.9915 101.012 32.5855 100.976 33.8095C100.958 35.1595 102.326 35.6275 103.46 35.6275C104.702 35.6275 106.358 35.3215 106.394 33.8455C106.43 32.3155 104.774 31.9555 103.514 31.9735Z" fill="white"/>
<path d="M27.9951 29.3805H27.9621C27.2031 29.3475 26.7081 28.7205 26.7081 28.0605C26.7081 27.5325 27.0381 27.0045 27.7641 26.8065C29.2161 26.7405 30.2061 26.7075 31.3941 26.7075H32.1201V21.4605C32.2851 20.6685 32.9121 20.2395 33.5721 20.2395C34.1661 20.2395 34.8261 20.6685 35.0241 21.4935V26.7735C35.7831 26.8065 36.4431 26.7735 36.9711 26.8065H39.3471C40.1391 27.0375 40.5351 27.5985 40.5351 28.1265C40.5351 28.6875 40.1061 29.2155 39.2481 29.4135C38.2581 29.3805 37.4991 29.3805 36.8391 29.3805C36.2121 29.3805 36.0471 29.3475 35.0241 29.3475V35.4525C35.0241 36.3765 34.2651 36.8385 33.5721 36.8385C32.8461 36.8385 32.2191 36.4095 32.1201 35.5185V29.3145H31.5591C30.8001 29.3145 30.2061 29.3145 29.5791 29.3475C29.0841 29.3475 28.6221 29.3805 27.9951 29.3805Z" fill="white"/>
</g>
<defs>
<filter id="filter0_d_291_2372" x="0" y="0" width="141" height="60" filterUnits="userSpaceOnUse" color-interpolation-filters="sRGB">
<feFlood flood-opacity="0" result="BackgroundImageFix"/>
<feColorMatrix in="SourceAlpha" type="matrix" values="0 0 0 0 0 0 0 0 0 0 0 0 0 0 0 0 0 0 127 0" result="hardAlpha"/>
<feOffset dx="2" dy="2"/>
<feGaussianBlur stdDeviation="4.75"/>
<feComposite in2="hardAlpha" operator="out"/>
<feColorMatrix type="matrix" values="0 0 0 0 0 0 0 0 0 0 0 0 0 0 0 0 0 0 0.34 0"/>
<feBlend mode="normal" in2="BackgroundImageFix" result="effect1_dropShadow_291_2372"/>
<feBlend mode="normal" in="SourceGraphic" in2="effect1_dropShadow_291_2372" result="shape"/>
</filter>
</defs>
</svg>
