<svg width="16" height="16" viewBox="0 0 16 16" fill="none" xmlns="http://www.w3.org/2000/svg">
<mask id="mask0_186_3796" style="mask-type:alpha" maskUnits="userSpaceOnUse" x="0" y="0" width="16" height="16">
<path fill-rule="evenodd" clip-rule="evenodd" d="M6.42704 0.333496C3.06421 0.333496 0.333374 3.03789 0.333374 6.37972C0.333374 9.72155 3.06421 12.4259 6.42704 12.4259C7.68079 12.4259 8.84704 12.0499 9.81632 11.4052L13.7917 15.3478C14.2206 15.7732 14.9149 15.7732 15.3439 15.3478C15.7743 14.9209 15.7743 14.2276 15.3439 13.8007L11.3939 9.88328C12.1032 8.89503 12.5207 7.68547 12.5207 6.37972C12.5207 3.03789 9.78988 0.333496 6.42704 0.333496ZM2.53121 6.37972C2.53121 4.24994 4.27283 2.51872 6.42704 2.51872C8.58126 2.51872 10.3229 4.24994 10.3229 6.37972C10.3229 8.5095 8.58126 10.2407 6.42704 10.2407C4.27283 10.2407 2.53121 8.5095 2.53121 6.37972Z" fill="#006FFD"/>
</mask>
<g mask="url(#mask0_186_3796)">
<rect width="16" height="16" fill="#3C3C5E"/>
</g>
</svg>
