<svg width="19" height="20" viewBox="0 0 19 20" fill="none" xmlns="http://www.w3.org/2000/svg">
<path d="M8.57771 14.7558L5.83354 17.5V0.833333C5.83354 0.3725 5.46104 0 5.00021 0C4.53938 0 4.16687 0.3725 4.16687 0.833333V17.5L1.42271 14.7558C1.09688 14.43 0.570208 14.43 0.244375 14.7558C-0.0814583 15.0817 -0.0814583 15.6083 0.244375 15.9342L3.82188 19.5117C4.14687 19.8367 4.57354 19.9992 5.00021 19.9992C5.42688 19.9992 5.85354 19.8367 6.17854 19.5117L9.75604 15.9342C10.0819 15.6083 10.0819 15.0817 9.75604 14.7558C9.43021 14.43 8.90354 14.43 8.57771 14.7558ZM18.0894 5.24417C18.4152 4.91833 18.4152 4.39167 18.0894 4.06583L14.5119 0.488333C14.1869 0.163333 13.7602 0 13.3335 0C12.9069 0 12.4802 0.1625 12.1552 0.4875L8.57771 4.065C8.25188 4.39083 8.25188 4.9175 8.57771 5.24333C8.90354 5.56917 9.43021 5.56917 9.75604 5.24333L12.5002 2.49917V19.1667C12.5002 19.6275 12.8727 20 13.3335 20C13.7944 20 14.1669 19.6275 14.1669 19.1667V2.5L16.911 5.24417C17.2369 5.57 17.7635 5.57 18.0894 5.24417Z" fill="black"/>
</svg>
