<svg width="30" height="30" viewBox="0 0 30 30" fill="none" xmlns="http://www.w3.org/2000/svg">
<path d="M27.7976 13.6717L20.5955 11.0058L17.9061 2.19152C17.8553 2.02596 17.7528 1.88106 17.6135 1.77812C17.4742 1.67518 17.3056 1.61963 17.1324 1.61963C16.9592 1.61963 16.7906 1.67518 16.6514 1.77812C16.5121 1.88106 16.4095 2.02596 16.3587 2.19152L13.6702 11.0058L6.46726 13.6717C6.3121 13.729 6.17824 13.8325 6.0837 13.9682C5.98916 14.104 5.93848 14.2654 5.93848 14.4308C5.93848 14.5962 5.98916 14.7577 6.0837 14.8934C6.17824 15.0291 6.3121 15.1326 6.46726 15.1899L13.6661 17.855L16.3563 26.938C16.4059 27.1054 16.5083 27.2523 16.6482 27.3568C16.7881 27.4612 16.9581 27.5176 17.1327 27.5175C17.3073 27.5174 17.4773 27.4609 17.6171 27.3563C17.7569 27.2517 17.8592 27.1047 17.9086 26.9372L20.5987 17.8542L27.7984 15.1891C27.954 15.1323 28.0883 15.0289 28.1831 14.8932C28.278 14.7574 28.3288 14.5958 28.3288 14.4301C28.3287 14.2645 28.2777 14.1029 28.1826 13.9672C28.0876 13.8316 27.9532 13.7284 27.7976 13.6717Z" fill="#FFD633"/>
<path d="M11.6113 22.5749L9.73856 21.8821L9.01018 19.2113C8.96452 19.0392 8.86325 18.887 8.72214 18.7784C8.58103 18.6698 8.40798 18.6108 8.2299 18.6107C8.05183 18.6107 7.87872 18.6694 7.73749 18.7779C7.59627 18.8864 7.49485 19.0385 7.44901 19.2105L6.72062 21.8813L4.84867 22.574C4.69352 22.6314 4.55966 22.7349 4.46512 22.8706C4.37058 23.0063 4.3199 23.1678 4.3199 23.3332C4.3199 23.4986 4.37058 23.66 4.46512 23.7958C4.55966 23.9315 4.69352 24.035 4.84867 24.0923L6.71091 24.7827L7.44496 27.714C7.48891 27.889 7.59006 28.0443 7.73235 28.1552C7.87464 28.2661 8.0499 28.3263 8.23031 28.3262C8.41072 28.3261 8.58593 28.2657 8.7281 28.1547C8.87027 28.0436 8.97127 27.8882 9.01503 27.7132L9.74908 24.7819L11.6113 24.0915C11.767 24.0349 11.9015 23.9318 11.9965 23.7961C12.0915 23.6604 12.1425 23.4988 12.1425 23.3332C12.1425 23.1675 12.0915 23.0059 11.9965 22.8702C11.9015 22.7346 11.767 22.6314 11.6113 22.5749ZM8.10051 5.04263L6.18728 4.33448L5.47832 2.42045C5.42134 2.26494 5.31797 2.13069 5.1822 2.03584C5.04643 1.941 4.8848 1.89014 4.71918 1.89014C4.55357 1.89014 4.39194 1.941 4.25617 2.03584C4.1204 2.13069 4.01703 2.26494 3.96005 2.42045L3.25189 4.33448L1.33786 5.04263C1.18271 5.09997 1.04885 5.20347 0.954306 5.3392C0.859765 5.47493 0.809082 5.63636 0.809082 5.80177C0.809082 5.96718 0.859765 6.12862 0.954306 6.26435C1.04885 6.40007 1.18271 6.50358 1.33786 6.56091L3.25189 7.26906L3.96005 9.1831C4.01738 9.33825 4.12088 9.47211 4.25661 9.56665C4.39234 9.66119 4.55377 9.71187 4.71918 9.71187C4.88459 9.71187 5.04603 9.66119 5.18176 9.56665C5.31749 9.47211 5.42099 9.33825 5.47832 9.1831L6.18647 7.26906L8.10051 6.56091C8.25566 6.50358 8.38952 6.40007 8.48406 6.26435C8.5786 6.12862 8.62929 5.96718 8.62929 5.80177C8.62929 5.63636 8.5786 5.47493 8.48406 5.3392C8.38952 5.20347 8.25566 5.09997 8.10051 5.04263Z" fill="#FFCC4D"/>
</svg>
